<svg width="274" height="187" viewBox="0 0 274 187" fill="none" xmlns="http://www.w3.org/2000/svg">
<path d="M273.7 0C266.149 1.14448 258.564 2.35628 251.012 3.63541C245.035 4.31655 239.442 7.00132 235.092 11.2765C231.675 15.3703 229.195 20.2017 227.834 25.4142L213.417 71.8668C211.554 77.9595 208.481 89.1014 217.994 88.2935C221.228 87.5535 224.366 86.4237 227.344 84.9274C236.977 80.7309 246.643 76.5682 256.341 72.4391C258.804 62.6997 261.245 52.9716 263.664 43.2547C258.608 44.8705 253.53 46.5311 248.43 48.2366C247.436 51.8336 246.463 55.4534 245.495 59.0585L245.486 59.0917L244.866 61.3981C241.929 62.4803 239.036 63.5854 236.132 64.6945C235.514 64.9309 234.895 65.1674 234.274 65.4038C238.633 49.6952 243.09 33.9866 247.645 18.278L257.028 16.2247C256.697 17.4379 256.373 18.6511 256.05 19.8614L256.049 19.8636C255.637 21.4063 255.226 22.9443 254.805 24.4717L268.502 21.2403C269.637 16.6987 270.744 12.1432 271.85 7.59167L271.852 7.58426C272.467 5.05392 273.081 2.52482 273.7 0Z" fill="#1E1E1E"/>
<path d="M148.59 43.0864L155.782 41.0331C147.064 62.8456 138.51 84.7478 130.119 106.74C126.654 115.694 123.254 124.614 119.854 133.669C131.057 128.059 142.248 122.594 153.428 117.276C158.506 102.824 163.639 88.4057 168.826 74.0211C173.599 83.8502 178.318 93.6906 182.982 103.542L184.223 102.966C191.063 99.7929 197.878 96.6313 204.721 93.6793C200.362 83.3565 195.895 73.0113 191.318 62.6436C199.36 50.0992 207.457 37.5996 215.608 25.145L222.505 23.4955C222.849 22.4205 223.193 21.3468 223.536 20.274C224.924 15.9381 226.308 11.6153 227.671 7.27084C221.002 8.52753 214.354 9.81787 207.729 11.1419C196.832 25.6387 186.163 40.2252 175.724 54.9015C180.65 41.437 185.63 27.9725 190.664 14.508C179.484 16.9989 168.303 19.5235 157.188 22.2501C156.539 23.815 155.888 25.38 155.237 26.9453L155.233 26.9539L155.232 26.9574C152.999 32.324 150.765 37.6951 148.59 43.0864Z" fill="#1E1E1E"/>
<path fill-rule="evenodd" clip-rule="evenodd" d="M107.464 124.715C111.336 117.597 114.69 110.194 117.501 102.566C123.908 86.3412 130.446 70.1613 137.115 54.0263C137.565 52.929 138.076 51.7799 138.603 50.595C140.986 45.2373 143.693 39.1497 142.542 33.8296C140.125 26.129 128.804 29.278 121.723 31.2473C120.664 31.542 119.699 31.8103 118.874 32.0119C110.287 34.256 101.689 36.5786 93.08 38.9797C78.3362 43.1201 65.1942 49.6167 54.6676 61.6001C48.8934 68.7735 44.0575 76.6952 40.2834 85.163C28.5144 109.848 17.225 134.724 6.415 159.79C6.11019 160.49 5.73855 161.298 5.32927 162.187C1.9197 169.597 -4.10086 182.682 4.15931 186.349C12.6273 188.612 22.8079 182.918 31.2027 178.222L31.2049 178.221C32.9208 177.261 34.5621 176.343 36.0989 175.543C41.0027 172.968 45.9066 170.444 50.8105 167.919C55.714 165.394 60.6176 162.87 65.5212 160.295C82.2592 151.779 97.428 141.377 107.464 124.715ZM86.2475 62.2733C74.0863 88.776 62.3719 115.458 51.1042 142.32C58.8848 138.651 66.6327 135.049 74.544 131.481C84.8527 106.078 95.5973 80.7646 106.778 55.5411C99.8799 57.8637 93.0474 60.0854 86.2475 62.2733Z" fill="#1E1E1E"/>
</svg>
