<svg width="2118" height="288" viewBox="0 0 2118 288" fill="none" xmlns="http://www.w3.org/2000/svg">
<g clip-path="url(#clip0_292_864)">
<path fill-rule="evenodd" clip-rule="evenodd" d="M1727.22 -82.7105C1743.12 -81.6365 1750.72 -79.1708 1757.46 -72.0765C1762.68 -67.0371 1765.33 -58.2667 1764.19 -52.0951C1763.12 -46.3092 1755.77 -34.699 1747.98 -25.8522C1739.8 -17.4227 1712.36 2.98448 1686.11 19.5659C1660.32 36.179 1621.01 59.2996 1599.49 70.7335C1577.9 82.5532 1528.64 105.782 1490.54 122.345C1452.38 139.294 1405.23 158.76 1385.57 165.243C1365.84 172.111 1346.43 179.783 1342.19 182.23C1337.95 184.677 1331.38 186.967 1328.57 186.777C1325.3 186.556 1322.92 184.052 1323.35 181.738C1323.38 179.006 1328.11 173.859 1333.43 170.703C1338.75 167.547 1356.82 159.396 1373.68 152.723C1390.53 146.051 1404.76 140.764 1405.63 141.213C1406.1 141.244 1416.37 136.862 1428.74 131.448C1440.56 126.389 1473.55 111.824 1501.83 99.6752C1530.11 87.5263 1566.47 70.0653 1582.28 61.3697C1598.09 52.6741 1623.99 38.0213 1639.4 28.9084C1654.81 19.7955 1682.51 0.577138 1700.71 -13.4239C1718.52 -27.8422 1734 -42.4185 1734.56 -45.5043C1735.13 -48.5902 1732.18 -53.0859 1728.32 -55.2988C1724 -57.5433 1716.12 -58.4661 1710.84 -58.0421C1705.48 -57.2323 1686.93 -54.1897 1669.31 -51.0838C1651.69 -47.978 1631.05 -43.9045 1622.68 -42.1271C1614.7 -39.9324 1575.05 -27.7702 1534.79 -14.868C1494.53 -1.96592 1426 23.0851 1382.55 40.458C1339.1 57.8309 1283.61 81.4205 1259.36 92.2792C1235.1 103.138 1213.25 113.769 1210.09 115.508C1207 116.861 1195.58 122.338 1184.29 127.043C1173.01 131.748 1144.91 145.472 1121.84 157.583C1098.78 169.693 1058.29 191.562 1032.38 206.215C1006.01 220.836 972.354 241.604 957.664 251.937C942.436 262.624 921.067 278.365 909.936 287.376C899.272 296.419 883.8 310.995 876.41 320.26C868.409 330.264 863.683 340.489 864.089 345.984C865.218 352.699 868.604 354.88 880.295 355.67C888.712 356.239 909.858 354.543 927.475 351.437C945.022 348.717 985.178 338.932 1016.7 329.736C1048.23 320.54 1077.74 311.989 1081.76 310.699C1085.79 309.408 1101.82 304.633 1116.85 300.181C1131.94 295.342 1171.38 284.337 1204.3 275.236C1237.3 265.749 1278.96 252.942 1297.22 246.364C1315.48 239.787 1356.28 226.531 1387.87 216.949C1419.47 207.367 1459.91 196.039 1477.74 191.776C1495.64 187.127 1514.52 184.888 1520.46 186.07C1527.65 188.118 1529.89 191.394 1528.61 198.337C1527.61 203.737 1524.96 207.854 1522.16 207.664C1519.35 207.475 1502.6 211.029 1483.83 215.229C1465.46 219.846 1433.61 228.239 1413.01 234.659C1391.01 240.984 1378.11 246.751 1382.11 248.193C1385.71 249.217 1402.9 248.425 1420.45 245.705C1437.92 243.371 1463.99 238.102 1478.33 234.775C1500.19 229.222 1506.88 228.893 1516.52 233.059C1526.1 237.611 1536.06 237.503 1569.68 232.354C1592.52 229.21 1636.6 221.252 1667.62 214.756C1698.58 208.646 1729.82 200.993 1737 197.963C1744.19 194.934 1752.97 193.574 1756.56 194.598C1760.09 196.008 1789.33 194.078 1821.19 190.762C1853.05 187.447 1900.84 182.474 1927.42 179.582C1953.92 177.077 1981.39 171.903 1988.57 168.873C1995.83 165.458 2016.9 159.07 2036.13 154.902C2055.29 151.119 2097.97 143.067 2131.59 137.918C2165.21 132.769 2210.8 126.866 2233.35 125.265C2255.9 123.664 2290.75 122.112 2311.21 121.542C2339.23 121.091 2347.58 122.046 2346.87 125.903C2346.44 128.217 2341.19 130.987 2334.97 131.348C2329.22 131.74 2302.71 134.246 2276.07 137.523C2249.5 140.415 2209.19 145.893 2186.21 149.809C2163.24 153.724 2126.92 160.644 2105.28 165.04C2083.64 169.436 2052.33 177.475 2035.83 182.219C2019.26 187.348 1995.47 198.238 1982.61 206.352C1966.91 217.008 1959.27 225.083 1957.92 232.412C1956.85 238.198 1953.77 244.629 1951.54 246.431C1949.24 248.619 1941.84 252.806 1934.66 255.835C1927.54 258.479 1909.92 261.585 1895.61 262.18C1879.35 263.035 1863.13 261.158 1852.4 257.699C1839.88 253.729 1835.91 249.556 1835 241.683C1834.73 235.417 1837.23 226.994 1840.89 222.555C1847.13 214.385 1846.74 213.967 1831.96 214.531C1823.86 214.766 1796.89 217.24 1773.2 219.935C1749.5 222.63 1682.05 234.086 1624.09 245.402C1566.06 257.104 1505.37 267.844 1489.37 269.888C1469.56 272.064 1456.86 271.597 1449.34 268.746C1440.95 265.446 1424.16 266.654 1377.27 274.422C1343.58 279.957 1304.6 285.916 1290.47 288.086C1271.45 291.097 1261.63 290.434 1250.51 286.558C1237.66 281.785 1231.3 282.917 1183.67 297.274C1154.62 305.857 1102.43 321.858 1066.81 332.73C1031.73 343.248 983.704 357.188 959.509 362.583C935.711 368.396 905.223 374.537 892.169 375.999C875.304 377.593 863.613 376.804 853.355 373.377C845.761 370.911 837.872 364.911 835.849 360.479C833.825 356.046 833.52 347.434 834.73 340.876C835.939 334.319 841.205 323.74 846.623 317.466C852.58 310.839 863.671 299.482 871.569 292.595C879.468 285.709 900.44 269.551 918.433 256.707C936.427 243.863 964.373 225.834 980.862 216.013C997.28 206.577 1022.18 192.247 1036.37 184.614C1050.56 176.981 1078.47 161.683 1098.92 150.957C1119.43 139.846 1160.5 119.969 1190.47 106.372C1220.37 93.1605 1245.77 81.2078 1247.46 79.7596C1249.08 78.6972 1258.89 74.2829 1269.09 70.2859C1279.77 66.3205 1291.52 61.6469 1294.75 59.522C1298.38 57.8145 1317.46 49.34 1337.48 40.9287C1357.5 32.5174 1373.88 25.8137 1374.35 25.8453C1375.29 25.9085 1382.01 22.8475 1389.73 19.4641C1398 15.7264 1437.21 0.800924 1477.82 -14.0298C1518.43 -28.8606 1574 -47.7582 1601.64 -56.4355C1629.28 -65.1129 1664.22 -74.8593 1679.04 -78.1547C1693.85 -81.4501 1715.53 -83.5002 1727.22 -82.7105ZM959.631 -105.269C971.038 -102.937 982.912 -100.572 985.575 -99.6114C988.706 -98.6188 992.031 -90.9741 993.343 -82.6842C994.553 -71.277 992.479 -65.1685 983.188 -53.299C976.947 -45.1288 953.067 -26.0435 929.361 -10.4613C906.193 4.76677 875.441 22.6068 861.463 29.0828C847.017 35.5272 810.4 51.7994 779.028 65.3017C747.656 78.804 695.942 99.9145 663.777 112.582C631.612 125.25 604.082 135.887 602.537 136.564C600.992 137.241 602.08 141.61 604.174 145.657C606.665 150.121 607.54 155.648 605.781 157.482C604.022 159.315 579.014 171.685 549.655 184.543C520.835 197.046 485.661 215.759 470.971 226.092C456.821 236.071 444.724 247.751 443.941 251.994C442.803 258.166 445.792 259.93 456.547 260.656C464.497 261.193 486.791 258.403 505.954 254.621C525.585 250.87 587.018 233.54 642.229 216.571C697.512 199.216 751.574 183.341 762.431 180.951C773.218 178.945 791.008 172.336 801.499 166.796C812.529 160.902 826.904 154.844 833.806 153.357C840.709 151.871 849.34 151.282 852.868 152.692C856.396 154.102 859.029 157.795 858.46 160.881C857.89 163.966 851.893 168.248 844.99 169.734C838.087 171.221 829.934 176.918 826.132 182.129C822.33 187.34 814.177 193.038 807.275 194.524C800.372 196.01 782.297 204.162 767.028 212.504C751.362 220.428 717.337 238.047 690.784 251.093C664.698 264.172 642.821 277.534 642.323 280.235C641.825 282.935 644.885 284.313 649.775 283.472C654.665 282.63 666.783 281.106 676.888 280.226C691.344 278.859 694.475 279.852 693.622 284.481C693.053 287.566 682.49 293.492 669.874 297.717C657.329 301.556 638.167 305.338 626.658 306.123C609.468 306.915 605.869 305.891 602.005 298.6C600.053 293.782 599.931 286.744 601.974 283.367C604.556 279.636 621.218 266.312 639.608 253.885C665.612 236.115 670.207 231.739 660.427 233.422C653.596 234.522 629.045 241.846 605.429 249.233C581.814 256.62 542.309 268.011 518.043 273.792C485.725 282.154 466.308 284.748 447.602 283.484C429.832 282.284 419.97 279.274 414.745 274.235C410.709 270.448 408.462 262.095 410.139 255.569C411.348 249.011 417.691 237.724 424.33 229.971C432.655 220.77 434.444 216.204 430.235 215.92C427.358 216.116 416.501 218.507 406.905 221.764C397.237 225.407 340.48 243.053 281.243 261.312C221.935 279.957 162.84 297.445 149.899 300.866C136.561 303.871 125.887 307.836 125.602 309.379C125.247 311.308 120.824 312.181 115.68 311.833C110.536 311.486 100.36 312.751 92.4509 314.56C85.0094 316.4 74.5486 319.209 69.12 320.404C63.6202 321.985 49.8148 324.958 37.9511 327.672C26.555 330.417 5.48071 331.727 -8.54854 330.779C-22.5778 329.832 -38.986 326.38 -45.035 323.238C-51.1551 320.481 -56.6349 314.253 -57.2552 309.915C-57.8755 305.577 -56.4526 297.863 -53.586 292.589C-50.7194 287.315 -38.9476 274.832 -27.2062 265.081C-14.926 254.975 7.3066 239.684 22.718 230.571C38.1294 221.458 67.6612 205.098 88.1759 193.987C108.691 182.875 138.944 167.735 155.006 160.228C171.536 152.753 191.227 143.539 198.628 139.352C206.425 135.583 225.436 127.494 240.817 121.113C256.127 115.118 278.156 106.061 289.44 101.356C300.724 96.6507 311.073 91.8823 312.69 90.8199C314.306 89.7574 320.955 87.0822 328.071 84.4387C335.187 81.7951 361.1 72.2199 386.474 62.9989C411.309 54.132 433.268 45.4614 434.884 44.3989C436.572 42.9508 444.227 39.9531 452.817 37.0185C460.868 34.4381 479.055 28.2464 493.287 22.9592C506.981 18.0261 529.803 9.80438 543.965 4.9029C557.658 -0.0301473 590.006 -11.1233 614.77 -19.6044C639.606 -28.4713 693.485 -45.9208 734.281 -59.177C775.474 -72.016 822.634 -86.4045 839.529 -90.7307C856.964 -95.411 886.446 -101.23 904.927 -103.887C926.825 -107.095 946.283 -107.342 959.631 -105.269ZM905.62 -81.9706C886.955 -80.8882 849.635 -73.6456 822.279 -66.5112C794.851 -58.991 722.673 -37.3101 661.819 -17.9886C600.966 1.33303 540.976 21.1035 528.289 25.714C515.602 30.3245 476.931 44.8959 441.889 57.7598C406.918 70.2379 363.54 87.2251 344.998 95.3454C326.526 103.08 305.107 111.397 297.594 113.623C290.01 116.235 283.758 119.327 283.474 120.87C283.118 122.799 280.566 123.798 278.228 123.64C275.422 123.451 260.112 129.446 243.583 136.921C227.52 144.428 211.529 151.549 208.907 152.934C205.745 154.673 190.689 161.858 175.166 169.01C159.572 176.549 144.048 183.701 141.354 185.472C138.193 187.211 124.611 194.104 110.023 201.32C95.9739 208.182 63.5348 227.47 37.7441 244.083C12.4211 260.728 -12.7189 278.947 -18.1371 285.22C-23.5554 291.493 -26.7066 298.31 -25.2629 300.751C-23.8192 303.191 -19.2443 306.625 -15.249 308.066C-10.8571 309.925 6.12025 310.291 22.3758 309.436C39.1701 308.227 64.9512 304.501 79.8342 300.82C94.6461 297.525 113.555 292.553 122.003 290.39C129.912 288.581 151.301 282.996 169.203 278.348C187.106 273.699 231.643 260.695 267.803 249.469C304.431 238.275 334.695 228.212 334.908 227.055C335.122 225.898 330.913 225.614 325.556 226.423C320.198 227.233 316.203 225.792 316.559 223.863C316.914 221.934 339.411 212.909 366.046 204.555C393.22 195.846 447.313 177.239 486.381 163.085C525.448 148.931 561.964 135.776 567.068 133.778C572.638 131.811 579.826 128.781 582.449 127.396C585.539 126.043 614.614 114.729 646.707 102.447C678.801 90.165 739.319 64.9627 780.969 47.0777C834.441 24.1333 872.167 4.42107 907.656 -18.5665C940.451 -39.7833 959.806 -54.8784 963.1 -62.4666C966.18 -68.8976 966.85 -75.1009 965.264 -76.7702C963.75 -78.8252 957.091 -81.2276 950.686 -82.4413C944.281 -83.655 923.888 -83.4704 905.62 -81.9706ZM1899.6 227.692C1889.65 232.878 1889.65 232.878 1903.43 232.637C1911.05 232.371 1917.56 230.467 1916.98 228.475C1916.94 226.129 1915.42 224.074 1913.15 223.531C1911.35 223.019 1905.32 224.954 1899.6 227.692Z" fill="#DBCCB8"/>
</g>
<defs>
<clipPath id="clip0_292_864">
<rect width="2118" height="288" fill="white"/>
</clipPath>
</defs>
</svg>
