<svg width="188" height="121" viewBox="0 0 188 121" fill="none" xmlns="http://www.w3.org/2000/svg">
<path fill-rule="evenodd" clip-rule="evenodd" d="M128.618 27.9917C129.826 27.6272 130.466 27.5928 131.191 27.9131C131.738 28.1284 132.213 28.6823 132.326 29.1553C132.432 29.5987 132.261 30.633 131.968 31.4818C131.633 32.3118 130.259 34.5328 128.849 36.4475C127.475 38.3515 125.311 41.0958 124.087 42.5109C122.87 43.9555 119.974 46.9841 117.69 49.2259C115.413 51.4973 112.553 54.1981 111.308 55.2074C110.07 56.2463 108.882 57.3336 108.647 57.6263C108.412 57.919 107.999 58.2653 107.786 58.3296C107.537 58.4047 107.281 58.2916 107.239 58.1143C107.154 57.9181 107.339 57.4184 107.631 57.0452C107.923 56.6719 108.997 55.5872 110.029 54.6422C111.061 53.6972 111.943 52.9241 112.021 52.9322C112.057 52.9215 112.676 52.3228 113.416 51.5925C114.127 50.9025 116.098 48.9453 117.799 47.2914C119.499 45.6376 121.627 43.3796 122.517 42.3189C123.406 41.2583 124.851 39.4914 125.698 38.4119C126.545 37.3324 127.977 35.1894 128.874 33.6827C129.729 32.1572 130.406 30.6853 130.349 30.4488C130.292 30.2124 129.93 29.973 129.575 29.9216C129.184 29.881 128.573 30.0337 128.196 30.2108C127.826 30.4174 126.553 31.1499 125.351 31.8611C124.149 32.5722 122.755 33.4363 122.193 33.7959C121.674 34.1744 119.134 36.1446 116.573 38.1847C114.012 40.2248 109.751 43.9187 107.097 46.3672C104.443 48.8156 101.099 52.0427 99.6542 53.4925C98.2098 54.9423 96.936 56.309 96.758 56.5211C96.573 56.7037 95.9041 57.4125 95.221 58.0622C94.538 58.7119 92.9012 60.4733 91.5846 61.9796C90.268 63.486 87.9763 66.1738 86.5314 67.9407C85.051 69.7183 83.2287 72.1378 82.4739 73.2845C81.6907 74.4715 80.6155 76.1903 80.0813 77.1437C79.5827 78.0864 78.9057 79.5583 78.6559 80.426C78.3847 81.3635 78.3624 82.226 78.568 82.6077C78.8659 83.0566 79.1857 83.1186 80.0744 82.8506C80.7143 82.6576 82.2218 81.9495 83.4237 81.2383C84.6328 80.5568 87.2859 78.7425 89.3203 77.2098C91.3548 75.6771 93.2612 74.2464 93.5173 74.0424C93.7734 73.8384 94.8049 73.052 95.7723 72.3165C96.7327 71.5514 99.2935 69.6699 101.435 68.105C103.569 66.5107 106.236 64.4384 107.375 63.4612C108.513 62.4841 111.102 60.4037 113.13 58.8415C115.157 57.2792 117.782 55.3467 118.963 54.5469C120.136 53.7175 121.459 53.0334 121.935 52.9531C122.532 52.8998 122.802 53.072 122.93 53.6041C123.029 54.0179 122.964 54.386 122.751 54.4503C122.538 54.5146 121.414 55.2339 120.162 56.0551C118.953 56.8952 116.869 58.3795 115.553 59.4102C114.13 60.4731 113.361 61.2437 113.703 61.2359C114.001 61.2093 115.245 60.6755 116.454 59.9939C117.671 59.342 119.427 58.2417 120.38 57.6056C121.817 56.6018 122.301 56.3926 123.146 56.4228C123.999 56.4825 124.732 56.1983 127.05 54.8969C128.636 54.0383 131.637 52.2457 133.721 50.92C135.812 49.6238 137.875 48.2093 138.309 47.7932C138.743 47.3771 139.348 47.0363 139.646 47.0096C139.952 47.0126 142.049 46.063 144.297 44.9416C146.544 43.8202 149.915 42.138 151.785 41.1937C153.662 40.2788 155.526 39.1464 155.96 38.7303C156.387 38.2846 157.738 37.2431 159.026 36.4111C160.32 35.6087 163.215 33.8483 165.533 32.5469C167.852 31.2455 171.031 29.5579 172.645 28.8175C174.259 28.0772 176.783 26.9989 178.276 26.3901C180.331 25.5803 180.978 25.4168 181.049 25.7125C181.091 25.8898 180.793 26.2335 180.345 26.432C179.932 26.6198 178.055 27.5346 176.192 28.5085C174.321 29.4529 171.519 30.9635 169.947 31.8812C168.376 32.7989 165.915 34.3017 164.457 35.2169C162.999 36.132 160.943 37.576 159.876 38.3732C158.816 39.1999 157.407 40.639 156.717 41.5762C155.898 42.7739 155.591 43.5637 155.726 44.1253C155.832 44.5687 155.81 45.1141 155.703 45.3048C155.603 45.5251 155.19 46.0299 154.756 46.446C154.315 46.8326 153.113 47.5437 152.075 47.9836C150.902 48.4959 149.644 48.812 148.741 48.8624C147.689 48.9261 147.263 48.7377 146.944 48.2001C146.724 47.7592 146.639 47.0875 146.768 46.6684C146.968 45.9109 146.925 45.892 145.851 46.3426C145.261 46.584 143.348 47.5095 141.684 48.36C140.02 49.2105 135.404 51.9019 131.486 54.3199C127.574 56.7673 123.434 59.22 122.318 59.8103C120.924 60.5159 119.971 60.8349 119.325 60.8398C118.6 60.8366 117.398 61.3891 114.183 63.246C111.872 64.577 109.184 66.085 108.209 66.6324C106.901 67.3756 106.154 67.6008 105.209 67.6323C104.107 67.6476 103.674 67.9052 100.615 70.2539C98.7438 71.6739 95.4004 74.2669 93.1169 76.0331C90.8619 77.7591 87.7604 80.0889 86.1458 81.1463C84.5739 82.2226 82.5184 83.5081 81.601 83.9749C80.4064 84.557 79.5177 84.825 78.6505 84.8647C78.0109 84.8991 77.2365 84.689 76.9454 84.4281C76.6543 84.1673 76.3566 83.5598 76.2364 83.0573C76.1161 82.5548 76.167 81.652 76.3667 81.053C76.5949 80.4137 77.0511 79.2936 77.4144 78.5819C77.7778 77.8701 78.8104 76.1325 79.7289 74.7145C80.6474 73.2965 82.1353 71.2315 83.0393 70.0714C83.9504 68.9409 85.3312 67.2251 86.1354 66.2853C86.9397 65.3455 88.5126 63.4766 89.6797 62.1421C90.8398 60.778 93.238 58.2166 95.0169 56.4123C96.803 54.6377 98.2973 53.0777 98.3757 52.9273C98.4611 52.8065 99.0446 52.2185 99.6707 51.6493C100.332 51.0695 101.051 50.409 101.222 50.1673C101.435 49.9445 102.574 48.8088 103.783 47.6517C104.993 46.4945 105.989 45.5603 106.025 45.5495C106.096 45.5281 106.494 45.1227 106.957 44.6663C107.448 44.1696 109.867 42.0138 112.392 39.8259C114.918 37.638 118.418 34.7442 120.182 33.3564C121.947 31.9687 124.216 30.3018 125.204 29.655C126.193 29.0082 127.729 28.2598 128.618 27.9917ZM71.2048 47.6836C72.1218 47.5338 73.0743 47.3733 73.3018 47.3681C73.5647 47.3522 74.0546 47.8066 74.4164 48.3631C74.8703 49.1453 74.9123 49.6397 74.6054 50.7465C74.4054 51.504 73.2516 53.5317 71.9987 55.3041C70.7742 57.0362 69.073 59.1656 68.2476 60.0168C67.3866 60.8786 65.2021 63.0587 63.3165 64.8951C61.4309 66.7315 58.286 69.6766 56.3152 71.4753C54.3444 73.2741 52.6511 74.7989 52.5586 74.8902C52.4661 74.9815 52.686 75.2638 52.97 75.4951C53.2967 75.7452 53.5379 76.1162 53.4666 76.2961C53.3953 76.4761 51.9435 78.0549 50.186 79.7893C48.4569 81.4834 46.4571 83.798 45.7023 84.9447C44.9761 86.0511 44.4558 87.2222 44.5336 87.5474C44.6468 88.0204 44.9239 88.0635 45.7415 87.817C46.3458 87.6347 47.9032 86.8164 49.1977 86.014C50.5277 85.2009 54.5112 82.2564 58.0467 79.5104C61.5751 76.7348 65.0608 74.0989 65.7863 73.6266C66.5188 73.1838 67.6216 72.2174 68.2194 71.53C68.8457 70.8023 69.7138 69.97 70.1761 69.6721C70.6384 69.3742 71.257 69.0926 71.5626 69.0955C71.8682 69.0984 72.1807 69.2894 72.2373 69.5259C72.2939 69.7624 71.9877 70.2351 71.5254 70.5329C71.063 70.8308 70.643 71.4646 70.5287 71.9428C70.4144 72.421 69.9943 73.0548 69.532 73.3527C69.0697 73.6506 67.9952 74.7352 67.134 75.7556C66.2302 76.7571 64.2802 78.9616 62.736 80.6316C61.2273 82.291 60.0385 83.8539 60.088 84.0608C60.1375 84.2677 60.4075 84.2813 60.7418 84.0855C61.0761 83.8896 61.9224 83.4442 62.6406 83.1008C63.6646 82.6018 63.9276 82.5859 64.0124 82.9406C64.069 83.1771 63.4782 83.8941 62.6815 84.5464C61.8776 85.1691 60.5832 85.9715 59.7583 86.3471C58.5139 86.8808 58.2154 86.9075 57.6971 86.4933C57.399 86.2029 57.165 85.7029 57.208 85.4047C57.2795 85.0662 58.0843 83.6509 59.0455 82.2517C60.3982 80.2591 60.5977 79.8186 59.9292 80.2104C59.4598 80.4787 57.8806 81.6839 56.3725 82.8677C54.8644 84.0515 52.3106 85.9626 50.7031 87.0496C48.5834 88.5446 47.2322 89.269 45.8103 89.6978C44.4595 90.1052 43.635 90.1637 43.088 89.9483C42.6689 89.7895 42.236 89.2545 42.1513 88.7412C42.0311 88.2387 42.1389 87.2554 42.3815 86.5167C42.7023 85.6276 42.6886 85.2514 42.3687 85.3479C42.1624 85.4418 41.437 85.9141 40.8322 86.4134C40.2346 86.9423 36.6066 89.7796 32.815 92.7296C29.0305 95.7092 25.2247 98.6001 24.3782 99.204C23.4891 99.789 22.8275 100.369 22.8558 100.487C22.8911 100.635 22.5924 100.82 22.2014 100.938C21.8104 101.056 21.0992 101.429 20.5729 101.778C20.0821 102.116 19.3992 102.607 19.0365 102.843C18.6808 103.109 17.7561 103.705 16.9666 104.228C16.2127 104.741 14.6981 105.419 13.6316 105.741C12.5652 106.063 11.243 106.271 10.6958 106.214C10.1557 106.187 9.552 105.894 9.36757 105.601C9.18314 105.308 9.04172 104.717 9.08492 104.26C9.12811 103.803 9.59865 102.584 10.1542 101.56C10.7383 100.497 11.8917 98.7862 12.7388 97.7067C13.5858 96.6272 15.2441 94.6375 16.4042 93.2734C17.5643 91.9094 19.315 89.9869 20.2614 89.0042C21.2434 88.0108 22.4033 86.8053 22.8161 86.3004C23.2715 85.8145 24.4171 84.7083 25.3492 83.8251C26.2884 82.9713 27.626 81.7122 28.3091 81.0625C28.9921 80.4128 29.6041 79.7845 29.6895 79.6637C29.775 79.5428 30.1805 79.167 30.6216 78.7804C31.0627 78.3938 32.6706 76.9898 34.25 75.6261C35.8009 74.3026 37.1457 73.073 37.2311 72.9522C37.3094 72.8018 37.779 72.3749 38.3197 71.9266C38.8319 71.5186 39.9773 70.571 40.8595 69.7978C41.7132 69.065 43.1361 67.8435 44.0254 67.0999C44.8791 66.367 46.9138 64.6759 48.4718 63.382C50.0227 62.0585 53.4445 59.3151 56.034 57.2347C58.6661 55.1732 61.6894 52.8352 62.799 52.0568C63.9371 51.2382 65.9286 50.0037 67.2087 49.3007C68.7235 48.4636 70.1527 47.9058 71.2048 47.6836ZM67.9602 50.8489C66.6162 51.4444 64.0913 52.9982 62.2988 54.2678C60.5134 55.5669 55.8753 59.1208 51.9983 62.1916C48.1212 65.2625 44.3224 68.3415 43.5327 69.0233C42.743 69.7052 40.3524 71.8207 38.1754 73.7133C35.9913 75.5763 33.3303 77.9952 32.2203 79.0906C31.1032 80.1564 29.787 81.3457 29.3033 81.7135C28.8266 82.1108 28.4637 82.5055 28.492 82.6237C28.5273 82.7715 28.3708 82.9138 28.193 82.9674C27.9798 83.0317 27.0406 83.8854 26.0586 84.8788C25.1122 85.8615 24.1587 86.8146 24.0093 86.9865C23.8313 87.1986 22.9489 88.1303 22.031 89.0727C21.1201 90.0447 20.2022 90.9871 20.0598 91.1885C19.8818 91.4006 19.099 92.2706 18.2522 93.1915C17.4338 94.0722 15.6543 96.352 14.2803 98.256C12.9419 100.149 11.6673 102.15 11.4676 102.749C11.2679 103.348 11.253 103.923 11.4376 104.057C11.6222 104.192 12.0698 104.31 12.4109 104.303C12.7947 104.314 14.0603 103.869 15.2336 103.356C16.4353 102.804 18.2204 101.822 19.202 101.145C20.1906 100.499 21.4283 99.6182 21.9831 99.229C22.5095 98.8801 23.9108 97.887 25.0844 97.0577C26.2581 96.2283 29.1319 94.0622 31.4439 92.2557C33.7914 90.4384 35.7051 88.8788 35.6839 88.7901C35.6627 88.7014 35.3427 88.7979 34.9729 89.0045C34.6031 89.2111 34.262 89.2189 34.2266 89.0711C34.1913 88.9233 35.5644 87.6535 37.2646 86.3167C38.9933 84.9396 42.3939 82.1075 44.827 80.0109C47.2602 77.9143 49.5368 75.96 49.8498 75.6754C50.1984 75.3801 50.6325 74.964 50.7819 74.7921C50.9669 74.6096 52.7528 72.9934 54.7307 71.2243C56.7085 69.4551 60.3729 65.973 62.8775 63.5379C66.0937 60.4128 68.2501 57.9559 70.1366 55.3269C71.8808 52.8993 72.8279 51.2825 72.8287 50.6484C72.8507 50.103 72.702 49.6407 72.5315 49.5654C72.354 49.4605 71.7854 49.4735 71.2736 49.5644C70.7618 49.6554 69.2615 50.2346 67.9602 50.8489ZM151.268 45.4063C150.699 46.0534 150.699 46.0534 151.708 45.6538C152.263 45.4231 152.683 45.1064 152.576 44.98C152.498 44.8134 152.321 44.7085 152.136 44.7325C151.987 44.7458 151.603 45.0519 151.268 45.4063Z" fill="#AE2D2F"/>
</svg>
