<svg width="49" height="51" viewBox="0 0 49 51" fill="none" xmlns="http://www.w3.org/2000/svg">
<path d="M7.03747 20.2535C8.82585 21.1147 10.6373 21.2618 11.3113 21.3165C11.334 21.3184 11.3554 21.3201 11.3755 21.3218H11.4001C11.5388 21.3429 11.679 21.3514 11.8192 21.3472C12.0258 21.3398 12.2325 21.3569 12.4353 21.3981C12.4353 21.3981 12.4353 21.3981 12.4353 21.3981C12.2325 21.3569 12.0258 21.3398 11.8192 21.3472C11.679 21.3514 11.5388 21.3429 11.4001 21.3218H11.3755C11.3554 21.3201 11.334 21.3184 11.3113 21.3165C10.6373 21.2618 8.82585 21.1147 7.03747 20.2535Z" fill="#F0F0F0"/>
<path d="M31.3095 35.4576C31.3865 35.2954 31.4635 35.1333 31.5375 34.9806C31.5375 34.9806 31.5375 34.9806 31.5375 34.9806C31.4635 35.1333 31.3865 35.2954 31.3095 35.4576Z" fill="#F0F0F0"/>
<path d="M45.3403 10.995L45.4389 11.4528L44.5762 10.8169C44.3622 10.9135 44.1555 11.0326 43.9521 11.1497C43.7806 11.2485 43.6115 11.3459 43.4424 11.4274C43.7112 9.75535 43.7939 8.05712 43.6889 6.36572C44.3774 7.67213 44.7857 9.08181 45.2024 10.5203C45.2481 10.6782 45.294 10.8365 45.3403 10.995Z" fill="#F0F0F0"/>
<path d="M34.1255 28.3674C33.9283 28.9778 33.4107 29.5883 32.8192 29.7155C32.5975 29.7509 32.3707 29.7164 32.1684 29.6166C31.9661 29.5167 31.7977 29.3561 31.6854 29.1559C31.5303 28.9312 31.4367 28.6677 31.4142 28.3928C32.1783 29.0287 33.3861 28.8761 34.1255 28.3674Z" fill="#F0F0F0"/>
<path d="M33.4107 29.9698C33.1037 30.0867 32.7751 30.1302 32.4494 30.097C31.8825 29.9952 31.4142 29.4611 31.1185 28.9524C30.6929 30.284 30.3957 31.6557 30.2311 33.0475C30.2262 33.1664 30.2208 33.2848 30.2155 33.4027L30.2154 33.4044C30.1668 34.471 30.1202 35.4943 30.453 36.4558C31.5128 34.3193 32.548 32.1827 33.4107 29.9698Z" fill="#F0F0F0"/>
<path d="M42.1854 22.8479C39.7535 21.9537 37.1993 21.4643 34.6185 21.3981C34.3966 18.5747 34.0762 16.8197 33.534 15.2172C32.2769 15.1409 26.7065 14.912 24.5375 14.912C22.5605 14.912 17.7344 15.2147 16.0272 15.3217L16.0255 15.3219C15.8817 15.3309 15.7601 15.3385 15.6642 15.3444C14.9622 17.3376 14.5067 19.4143 14.3086 21.5252C11.5671 21.7437 8.86551 22.3338 6.27338 23.2803C6.05772 23.3598 5.91907 23.4393 5.84542 23.4815C5.80122 23.5068 5.78043 23.5187 5.78043 23.5092C6.24591 24.1197 6.83641 24.6163 7.50967 24.9637C8.18292 25.3111 8.92227 25.5006 9.67479 25.5186C10.4142 25.544 11.8192 25.3914 12.7065 24.9845C12.953 24.8827 13.4459 24.6538 13.4459 24.6538C13.5422 24.8246 13.6246 25.0032 13.6924 25.1879C13.7557 25.3708 13.8239 25.5755 13.894 25.7861C14.0969 26.3954 14.3163 27.054 14.4811 27.3754C14.8016 28.0621 15.3192 28.5709 16.1572 28.5963C16.4307 28.5805 16.6977 28.5042 16.9401 28.3725C17.1825 28.2408 17.3946 28.0569 17.5621 27.8332C15.3931 27.706 14.4811 26.5106 14.3332 24.7047C13.8156 24.6284 13.6678 24.5775 13.6185 24.2723C13.5866 24.1122 13.59 23.9469 13.6284 23.7884C13.6668 23.6299 13.7392 23.4823 13.8403 23.3566C14.0868 23.0005 14.5058 22.6698 15.541 23.0005C16.1302 23.237 16.673 23.5817 17.1431 24.0179C17.2239 24.0967 17.3334 24.2075 17.4631 24.3389C18.0456 24.9288 19.0368 25.9327 19.6818 26.3071C20.5199 26.8158 22.122 27.2991 23.1572 26.2308C23.8158 25.5883 24.2493 24.7384 24.3896 23.8144C22.756 23.7686 21.1265 23.6243 19.5093 23.382C19.0656 23.3057 19.2628 22.8733 19.6079 22.9751C19.6079 22.9751 22.4424 23.3566 24.4635 23.382C24.4635 23.1277 24.4635 22.7207 24.4882 22.2374C22.7845 22.2004 21.0866 22.0217 19.4107 21.7033C19.041 21.6015 19.1149 21.1691 19.46 21.2709C21.1237 21.5518 22.8033 21.7217 24.4882 21.7796C24.4882 21.6151 24.4934 21.4126 24.4991 21.1947C24.5057 20.9409 24.5128 20.6661 24.5128 20.4061C22.8445 20.3805 21.1803 20.2275 19.5339 19.9482C19.1149 19.8719 19.2135 19.4904 19.5339 19.5413C21.1848 19.7739 22.8471 19.9098 24.5128 19.9482V18.8036C24.5128 18.3712 24.8825 18.3458 24.8825 18.7782V19.9228C26.452 19.8834 28.0169 19.7304 29.5656 19.465C30.0586 19.3632 30.0093 19.7956 29.7875 19.8211C28.1691 20.1431 26.5294 20.3386 24.8825 20.4061V21.7796L25.0104 21.7753C26.486 21.7256 28.2031 21.6678 29.6642 21.3218C30.2311 21.1946 30.2804 21.6524 29.8121 21.7287C28.1904 22.014 26.5515 22.184 24.9072 22.2374C24.9072 22.619 24.9072 23.1022 24.9318 23.382C26.6395 23.3281 28.3429 23.1752 30.034 22.9242C30.4283 22.8479 30.5023 23.2803 30.0832 23.3566C30.0398 23.3619 29.9703 23.3707 29.8786 23.3824C29.0868 23.4831 26.6404 23.7943 25.0058 23.8399C25.0472 23.9735 25.081 24.1195 25.1168 24.274C25.2514 24.855 25.4141 25.5571 26.1149 26.1799C26.953 26.943 28.4072 26.8667 29.4178 26.2562C30.0307 25.8807 30.9264 24.9521 31.5035 24.3539C31.669 24.1824 31.8083 24.038 31.9072 23.9416C31.9209 23.9293 31.9353 23.9164 31.9504 23.9028C32.3431 23.5499 33.2081 22.7725 34.3473 22.797C35.3673 22.8194 35.5083 23.2954 35.578 23.5303C35.5874 23.5622 35.5955 23.5897 35.6044 23.6109C35.6537 23.8144 35.703 24.1451 35.4318 24.3231C35.3257 24.3916 35.2195 24.4085 35.1133 24.4253C35.0223 24.4398 34.9313 24.4542 34.8403 24.5012C34.6924 25.4932 34.3966 26.6123 33.6325 27.1973C32.8192 27.8332 31.5621 27.9095 31.5621 27.9095C31.5621 27.9095 31.7347 28.113 31.784 28.1639C32.1128 28.4058 32.5163 28.5144 32.9178 28.4691C33.441 28.3772 33.9234 28.1194 34.298 27.7315C34.6308 27.2808 34.9459 26.4319 35.1992 25.7498C35.2461 25.6234 35.2909 25.5028 35.3332 25.3914C35.382 25.2656 35.467 25.0837 35.5493 24.9075C35.6335 24.7274 35.7149 24.5531 35.7523 24.4503C35.8534 24.4921 35.9297 24.5296 36.0151 24.5715C36.1378 24.6318 36.2795 24.7014 36.541 24.8064C37.4466 25.1577 38.4081 25.3302 39.3755 25.3151C40.5832 25.2897 41.9635 24.5266 42.7769 23.7381C42.9002 23.6109 43.1959 23.2548 43.1959 23.2548C43.1959 23.2548 42.4072 22.9242 42.1854 22.8479Z" fill="#F0F0F0"/>
<path d="M5.85437 11.6563C5.48465 10.0284 5.46 8.17163 5.53395 6.46745C4.74316 8.14809 4.16336 9.92596 3.8086 11.758C4.00353 11.5569 4.18274 11.3395 4.36398 11.1196C4.50356 10.9503 4.64439 10.7794 4.79451 10.6134C5.16572 10.9411 5.51952 11.2892 5.85437 11.6563Z" fill="#F0F0F0"/>
<path fill-rule="evenodd" clip-rule="evenodd" d="M24.6361 27.121C25.5234 28.5454 27.1748 28.9524 28.703 28.5454C29.2652 28.4157 29.8111 28.2194 30.3297 27.9604C29.7992 29.5118 29.5405 31.1482 29.5656 32.7931C29.5702 34.2197 29.7948 35.6364 30.2311 36.99C30.104 36.9608 29.985 36.8899 29.8601 36.8155L29.86 36.8154L29.8598 36.8153C29.7669 36.76 29.6708 36.7027 29.5656 36.6593C26.5339 35.0823 22.2699 35.1332 19.2875 36.7611C19.4354 36.2778 19.5832 35.7182 19.7065 35.2095C20.1501 32.844 19.8297 30.3768 19.041 28.2148C20.6431 28.9015 22.9847 29.0541 24.291 27.528C24.3935 27.3816 24.509 27.2453 24.6361 27.121ZM25.8931 33.9886C27.9635 33.4036 29.1959 31.089 29.5903 29.0796C29.5588 29.0452 29.5204 29.0183 29.4779 29.0007C29.4353 28.9832 29.3896 28.9753 29.3438 28.9778C29.1009 30.1771 28.6043 31.3062 27.8896 32.2844C27.3395 32.9666 26.6048 33.4641 25.7794 33.7132C24.9541 33.9624 24.0754 33.952 23.2558 33.6834C21.4072 33.0984 20.4459 31.0127 20.2734 29.105C20.1882 29.0971 20.1026 29.1148 20.0269 29.1559C20.1131 30.4342 20.5681 31.6567 21.3332 32.666C22.4424 34.0649 24.2663 34.421 25.8931 33.9886Z" fill="#F0F0F0"/>
<path d="M16.8966 29.9698C17.5868 29.7155 17.8086 28.9524 17.8825 28.2911L17.8579 28.2656C17.1185 28.8252 15.9847 29.283 15.122 28.698C15.1763 28.9543 15.2954 29.1913 15.467 29.3848C15.8368 29.7918 16.3297 30.1224 16.8966 29.9698Z" fill="#F0F0F0"/>
<path d="M18.967 36.4304V36.4558C17.6607 34.421 16.6748 32.259 15.7382 30.097C16.1572 30.3259 16.872 30.4785 17.3156 30.1733C17.7136 29.852 17.9992 29.4055 18.129 28.9015C19.1889 31.089 19.4354 33.9377 18.967 36.4304Z" fill="#F0F0F0"/>
<path fill-rule="evenodd" clip-rule="evenodd" d="M29.0727 43.2217C30.2334 41.7858 30.9465 40.0214 31.1185 38.16C30.4037 37.5496 29.5903 37.1426 28.777 36.7356C25.4988 35.2095 21.0375 35.6928 18.1783 37.8293C18.2523 39.8642 18.7452 41.7718 20.0762 43.2471C22.7628 44.4171 26.3861 44.3154 29.0727 43.2217ZM29.1959 38.4652C29.4177 38.8976 29.2452 39.3809 28.9987 39.7624C28.7796 40.0441 28.4859 40.254 28.1534 40.3669C27.821 40.4798 27.4639 40.4907 27.1255 40.3983C26.6997 40.2585 26.3339 39.971 26.0903 39.5844C26.035 39.7842 26.0883 39.9519 26.1414 40.119C26.1829 40.2499 26.2243 40.3803 26.2135 40.5255C26.2032 40.5418 26.1895 40.5556 26.1735 40.566C26.1574 40.5763 26.1394 40.5829 26.1206 40.5853C26.1019 40.5877 26.0828 40.5859 26.0648 40.58C26.0468 40.574 26.0303 40.5641 26.0163 40.5509C25.622 40.0168 25.4741 39.2029 25.8192 38.6179C26.2382 37.8039 27.0516 37.4733 27.9142 37.5496C28.1827 37.587 28.4388 37.6895 28.6616 37.8487C28.8843 38.0078 29.0674 38.2191 29.1959 38.4652ZM23.1079 40.6527C23.4283 40.0931 23.6008 39.33 23.2558 38.745C23.0201 38.3243 22.6429 38.0076 22.1959 37.8548C21.4318 37.6004 20.4952 37.753 19.9776 38.4652C19.8803 38.6172 19.8166 38.7894 19.791 38.9697C19.7655 39.1499 19.7787 39.3337 19.8297 39.5081C19.9362 39.7783 20.1035 40.0185 20.3178 40.2087C20.5321 40.3989 20.7873 40.5337 21.0621 40.6018C21.4268 40.6672 21.8021 40.6229 22.1431 40.474C22.484 40.3252 22.7762 40.0781 22.9847 39.7624C23.0134 39.9148 23.005 40.0722 22.96 40.2203C22.9516 40.281 22.9231 40.3388 22.8951 40.3956C22.841 40.5054 22.7886 40.6117 22.8861 40.729C22.9847 40.8053 23.0586 40.729 23.1079 40.6527ZM29.0442 42.7547L29.044 42.755C29.0253 42.7767 29.0029 42.803 28.9741 42.8401C28.703 42.7638 28.4072 42.6621 28.1114 42.5603C25.6466 41.5684 22.5163 41.8482 20.1994 42.8401C20.1235 42.7863 20.0705 42.7043 20.0516 42.6112C22.7382 41.3649 26.4354 41.2123 29.1466 42.5858C29.1118 42.6757 29.0892 42.7021 29.0442 42.7547Z" fill="#F0F0F0"/>
<path d="M6.27338 12.9535C7.33324 15.0646 9.47761 15.7514 11.6713 15.6242C12.5286 15.6242 13.3736 15.5601 14.2237 15.4956C14.5711 15.4693 14.9195 15.4429 15.2699 15.4207V15.497C14.6579 17.2685 14.2283 19.1014 13.9882 20.9657C10.8332 21.0928 7.60437 20.813 5.28747 18.651C3.68536 16.9977 3.29099 14.7085 3.63606 12.4448C3.82092 12.2159 4.0181 12.006 4.21529 11.7962C4.41246 11.5863 4.60966 11.3765 4.79451 11.1476C4.95217 11.3258 5.13956 11.4922 5.32742 11.659C5.75632 12.0398 6.18768 12.4229 6.27338 12.9535Z" fill="#F0F0F0"/>
<path d="M45.6187 12.612C45.6005 12.4099 45.583 12.216 45.5375 12.0124C45.3636 11.9167 45.217 11.7985 45.072 11.6816C44.9087 11.5499 44.7474 11.4199 44.5516 11.3256C44.3569 11.4261 44.167 11.5412 43.9776 11.656C43.7355 11.8028 43.4942 11.9491 43.2452 12.0632C43.1104 12.3259 42.9575 12.5511 42.8029 12.7786C42.7031 12.9256 42.6025 13.0736 42.5058 13.2333C40.9094 15.519 38.2307 15.4208 35.686 15.3275C35.0874 15.3055 34.4962 15.2839 33.9283 15.2935C34.3738 16.8925 34.6952 18.5255 34.8896 20.1772C34.9132 20.3111 34.9311 20.4624 34.9488 20.6118C34.9681 20.7745 34.9871 20.9348 35.0128 21.0674C37.798 20.9657 40.4107 20.5078 42.6783 19.0834C44.7487 17.8117 45.8086 15.497 45.6607 13.0044C45.6418 12.8676 45.6301 12.7383 45.6187 12.6122L45.6187 12.612Z" fill="#F0F0F0"/>
<path d="M34.2241 24.7047C34.2487 25.6712 33.9283 26.6632 33.0903 27.121C32.6947 27.33 32.2523 27.4265 31.8086 27.4008C31.7963 27.308 31.7963 27.2139 31.8086 27.121C32.4741 27.121 33.1396 26.8667 33.5093 26.3071C33.7386 25.8607 33.8572 25.3626 33.8544 24.8573C33.9639 24.7764 34.0907 24.724 34.2241 24.7047Z" fill="#F0F0F0"/>
<path d="M16.9952 27.2991C17.1322 27.3391 17.2773 27.3391 17.4142 27.2991C17.3943 27.2476 17.4026 27.2127 17.4114 27.176C17.4243 27.1221 17.4382 27.064 17.3649 26.943C15.5903 26.943 15.2452 25.773 15.2452 24.8827C15.1099 24.8317 14.9615 24.8317 14.8262 24.8827C14.8029 25.1912 14.8417 25.5012 14.9401 25.7935C15.0386 26.0857 15.1946 26.3537 15.3983 26.5807C15.6021 26.8077 15.8491 26.9887 16.1239 27.1123C16.3988 27.2359 16.6954 27.2995 16.9952 27.2991Z" fill="#F0F0F0"/>
</svg>
