<svg width="123" height="42" viewBox="0 0 123 42" fill="none" xmlns="http://www.w3.org/2000/svg">
<path d="M22.445 23.0596C22.4874 23.0547 22.5347 23.0921 22.587 23.172C22.658 23.2281 22.6728 23.3553 22.6314 23.5534C22.5812 23.8599 22.5224 24.0923 22.4549 24.2505C22.4086 24.4062 22.3391 24.6398 22.2465 24.9513C22.1052 25.3973 21.9375 25.986 21.7435 26.7174C21.547 27.4275 21.2731 28.2111 20.9219 29.0682C20.5895 29.9016 20.156 30.7897 19.6215 31.7325C19.1057 32.6517 18.4578 33.5433 17.6779 34.4074C16.9541 35.2004 16.0908 35.9023 15.0881 36.5131C14.0878 37.1451 13.0523 37.5664 11.9814 37.777C10.9318 37.9852 9.90677 37.9435 8.90633 37.6519C7.90588 37.3604 7.04606 36.7088 6.32686 35.6972C5.96603 35.1808 5.66826 34.5605 5.43355 33.8361C5.22002 33.1092 5.05279 32.2267 4.93186 31.1883C4.76896 29.7898 4.81354 28.4208 5.0656 27.0813C5.31519 25.7206 5.68329 24.271 6.16988 22.7323C6.69247 21.3184 7.29293 19.9276 7.97126 18.5599C8.64959 17.1922 9.46493 15.8945 10.4173 14.6668C11.2036 13.6731 11.9828 12.8951 12.7549 12.3327C13.5271 11.7702 14.3002 11.401 15.0744 11.2249C16.2674 10.9571 17.3193 10.9527 18.23 11.2117C19.1383 11.4496 19.8641 12.149 20.4074 13.3099C20.4646 13.4321 20.5472 13.6802 20.6552 14.0542C20.7607 14.4071 20.8325 14.839 20.8705 15.35C20.9273 15.8374 20.9242 16.364 20.8612 16.9297C20.7982 17.4955 20.615 18.043 20.3116 18.5723C20.078 18.9646 19.8135 19.2747 19.5178 19.5024C19.2222 19.7301 18.9179 19.8837 18.605 19.9631C18.3133 20.04 18.0154 20.064 17.7113 20.035C17.4048 19.9848 17.1369 19.8978 16.9078 19.7742C16.7919 19.7018 16.7303 19.6338 16.7229 19.5702C16.7342 19.483 16.768 19.4039 16.8241 19.3329C16.8803 19.2619 16.9483 19.2003 17.0281 19.1481C17.1079 19.0958 17.1784 19.0554 17.2395 19.0268C17.343 18.9933 17.4977 18.8464 17.7036 18.5861C17.9283 18.3022 18.1096 17.8301 18.2474 17.1697C18.5645 15.6508 18.3588 14.6224 17.6303 14.0844C17.2567 13.8272 16.6834 13.8833 15.9102 14.2525C15.1371 14.6218 14.3554 15.3786 13.5652 16.5231C13.2706 16.944 12.989 17.3848 12.7205 17.8457C12.4732 18.304 12.2134 18.839 11.941 19.4506C11.6873 20.0386 11.4248 20.735 11.1534 21.5398C10.8795 22.3234 10.5793 23.2497 10.2528 24.3186C9.9051 25.39 9.64513 26.5694 9.4729 27.8566C9.29819 29.1227 9.27008 30.2642 9.38854 31.2814C9.45025 31.8111 9.58241 32.3004 9.78504 32.7493C9.98767 33.1983 10.2359 33.5774 10.5296 33.8868C10.8209 34.1751 11.1566 34.383 11.5366 34.5105C11.9165 34.6381 12.3253 34.6442 12.7629 34.5288C13.5134 34.334 14.1986 34.0394 14.8185 33.645C15.4595 33.2482 16.0215 32.8176 16.5043 32.3533C17.0084 31.8865 17.4289 31.4402 17.7659 31.0144C18.1216 30.5649 18.3906 30.2006 18.5729 29.9217C18.8089 29.5506 19.0237 29.1819 19.2173 28.8157C19.4296 28.4259 19.6395 28.0148 19.8469 27.5826C20.0754 27.1479 20.3097 26.6696 20.5496 26.1477C20.787 25.6045 21.0582 24.9823 21.3631 24.281C21.7241 23.5087 22.0848 23.1016 22.445 23.0596Z" fill="#181818"/>
<path d="M26.146 30.0383C26.2958 29.8491 26.4874 29.5583 26.7209 29.1659C26.9545 28.7736 27.2005 28.3047 27.4591 27.7591C27.7178 27.2135 27.9702 26.615 28.2165 25.9634C28.4839 25.3094 28.7041 24.618 28.8769 23.8891C29.0084 23.3583 29.098 22.9291 29.1458 22.6013C29.191 22.2524 29.2131 21.9814 29.2121 21.7882C29.2298 21.5714 29.2219 21.4112 29.1884 21.3077C29.1524 21.183 29.1164 21.0584 29.0804 20.9337C28.9709 20.7317 28.8004 20.5582 28.5688 20.4134C28.3371 20.2686 28.053 20.2265 27.7164 20.2872C27.2976 20.3789 26.813 20.736 26.2626 21.3585C25.7098 21.9599 25.2209 22.833 24.7958 23.9778C24.3008 25.2597 23.9661 26.3511 23.7918 27.252C23.6388 28.1504 23.6372 28.9667 23.7871 29.701C23.8937 30.247 24.0416 30.5949 24.2309 30.7446C24.4413 30.8919 24.6232 30.9781 24.7764 31.0032C24.9085 31.0308 25.0849 30.9781 25.3057 30.845C25.5476 30.7094 25.8277 30.4405 26.146 30.0383ZM35.3691 22.6497C35.4292 22.4279 35.526 22.2448 35.6595 22.1004C35.7906 21.9348 35.9266 21.8116 36.0675 21.7307C36.2084 21.6499 36.3237 21.6257 36.4134 21.6582C36.5007 21.6695 36.5211 21.753 36.4748 21.9088C36.4399 21.9773 36.3854 22.1554 36.3116 22.4433C36.2377 22.7311 36.1407 23.0967 36.0205 23.5403C35.9191 23.9602 35.7827 24.4486 35.6113 25.0055C35.4611 25.5599 35.2816 26.1392 35.0728 26.7434C35.0565 26.7883 35.0053 26.9017 34.9191 27.0835C34.8541 27.2629 34.7821 27.4753 34.7033 27.7207C34.6221 27.945 34.5314 28.1811 34.4315 28.429C34.329 28.6557 34.244 28.8481 34.1765 29.0063C33.9529 29.4834 33.6869 29.9654 33.3785 30.4524C33.0676 30.9181 32.6976 31.3371 32.2684 31.7092C32.1512 31.8088 31.994 31.9345 31.7969 32.0863C31.6185 32.2145 31.419 32.3451 31.1982 32.4782C30.9962 32.5876 30.7823 32.6877 30.5566 32.7784C30.3285 32.848 30.106 32.8739 29.8891 32.8562C29.2174 32.8056 28.7049 32.5538 28.3515 32.101C27.998 31.6482 27.8124 31.0685 27.7945 30.3618C27.7896 30.3194 27.7922 30.158 27.8025 29.8776C27.8316 29.5735 27.868 29.333 27.9118 29.1561C27.7143 29.6731 27.4825 30.1726 27.2165 30.6546C26.9505 31.1366 26.6477 31.58 26.3083 31.9846C25.9875 32.3656 25.6394 32.6961 25.264 32.9761C24.886 33.2349 24.4995 33.4195 24.1043 33.53C23.7701 33.6118 23.4074 33.6326 23.0162 33.5923C22.646 33.5495 22.286 33.4089 21.9361 33.1704C21.5862 32.932 21.2769 32.5814 21.0082 32.1187C20.7159 31.6373 20.5041 31.0176 20.3729 30.2597C20.2243 29.3535 20.1954 28.5514 20.2859 27.8536C20.374 27.1346 20.5281 26.4294 20.7482 25.7379C20.8896 25.2919 21.0391 24.8235 21.1967 24.3326C21.373 23.8181 21.5624 23.3235 21.7648 22.8489C21.986 22.3506 22.2215 21.8829 22.4712 21.4458C22.7185 20.9874 22.9957 20.6007 23.3026 20.2858C23.8766 19.682 24.4797 19.2359 25.1119 18.9475C25.7629 18.6354 26.3875 18.466 26.9857 18.4393C27.584 18.4126 28.1229 18.5216 28.6024 18.7664C29.1007 18.9876 29.4842 19.3295 29.7528 19.7922L30.0309 20.2431C30.1634 19.9055 30.2902 19.6115 30.4114 19.3612C30.5326 19.1108 30.6575 18.8922 30.786 18.7054C31.1605 18.2322 31.6008 17.9555 32.1068 17.875C32.6129 17.7946 33.0759 17.8051 33.4958 17.9065C33.9132 17.9868 34.2178 18.1124 34.4095 18.2834C34.6225 18.4519 34.623 18.5485 34.4111 18.5731C34.2204 18.5953 34.0245 18.7578 33.8235 19.0604C33.6437 19.3605 33.4794 19.7018 33.3307 20.0843C33.1819 20.4667 33.0437 20.8479 32.9162 21.2279C32.8098 21.6054 32.7241 21.8839 32.6591 22.0633C32.04 23.9395 31.6022 25.3436 31.3456 26.2755C31.1102 27.205 30.9662 27.8124 30.9135 28.0977C30.8647 28.2323 30.8259 28.4516 30.7968 28.7556C30.7654 29.0385 30.7551 29.3189 30.766 29.5969C30.798 29.8723 30.857 30.1017 30.9428 30.285C31.0473 30.4447 31.2018 30.4804 31.4063 30.3921C31.5871 30.2852 31.7642 30.1464 31.9377 29.9759C32.1323 29.8028 32.3245 29.6086 32.5141 29.3932C32.7014 29.1567 32.8849 28.8883 33.0647 28.5882C33.2445 28.288 33.3938 28.0021 33.5125 27.7306C33.6524 27.4566 33.7642 27.218 33.8479 27.015C33.9504 26.7883 34.0191 26.6407 34.0541 26.5721C34.1891 26.2557 34.3053 25.963 34.4028 25.6939C34.5004 25.4248 34.5873 25.157 34.6636 24.8903C34.7887 24.4892 34.9138 24.088 35.0389 23.6868C35.1852 23.2832 35.2953 22.9375 35.3691 22.6497Z" fill="#181818"/>
<path d="M46.0316 21.4078C46.1128 21.1835 46.219 20.9886 46.35 20.823C46.5023 20.6549 46.6383 20.5317 46.758 20.4533C46.8989 20.3725 47.0037 20.3495 47.0722 20.3845C47.1619 20.417 47.1836 20.5111 47.1373 20.6669C47.1235 20.7329 47.0797 20.9098 47.0058 21.1977C46.9531 21.483 46.8667 21.8474 46.7465 22.291C46.6476 22.7321 46.5242 23.2404 46.3765 23.816C46.2263 24.3705 46.048 24.9604 45.8416 25.5858C45.7441 25.8549 45.6222 26.1913 45.4759 26.5949C45.3296 26.9985 45.1329 27.4295 44.8856 27.8879C44.657 28.3226 44.3767 28.774 44.0446 29.2423C43.7337 29.708 43.3637 30.127 42.9346 30.4991C42.6788 30.7007 42.3314 30.9452 41.8924 31.2326C41.4534 31.52 41.0089 31.6684 40.559 31.6779C40.387 31.6764 40.1758 31.6151 39.9254 31.4939C39.6726 31.3516 39.4217 31.1338 39.1728 30.8406C38.9239 30.5474 38.6956 30.1552 38.4881 29.6639C38.3017 29.1702 38.189 28.5712 38.1499 27.867C38.0886 26.9721 38.1252 26.0872 38.2595 25.2125C38.3914 24.3165 38.5544 23.5029 38.7484 22.7715C38.9612 22.0165 39.1569 21.3923 39.3357 20.899C39.5333 20.382 39.647 20.0681 39.6771 19.9572C39.7834 19.5797 39.896 19.2552 40.0147 18.9836C40.1521 18.6884 40.209 18.5314 40.1854 18.5127L37.7512 18.6351C37.6547 19.0974 37.4895 19.7073 37.2555 20.4648C37.0403 21.1986 36.7889 21.9903 36.5013 22.84C36.2323 23.666 35.9435 24.505 35.6346 25.3571C35.3234 26.1881 35.034 26.9305 34.7665 27.5845C34.3404 28.5362 33.8291 29.4012 33.2324 30.1794C32.6146 30.9601 31.924 31.5775 31.1608 32.0315C30.9799 32.1385 30.8048 32.2019 30.6352 32.2216C30.4445 32.2438 30.2533 32.1695 30.0616 31.9985C29.9172 31.865 29.8314 31.6817 29.8042 31.4486C29.7771 31.2155 29.8133 31.1576 29.9129 31.2748C30.0188 31.2625 30.1142 31.2514 30.1989 31.2415C30.2837 31.2316 30.3872 31.1981 30.5094 31.1409C30.6104 31.0862 30.7513 31.0054 30.9321 30.8984C31.0893 30.7727 31.3051 30.5972 31.5796 30.3719C32.0462 29.9525 32.4349 29.5099 32.7458 29.0441C33.0542 28.5572 33.3284 28.0527 33.5682 27.5308C33.8057 26.9877 34.03 26.4246 34.2413 25.8416C34.429 25.2398 34.6459 24.6132 34.8922 23.9617C35.0222 23.6029 35.1417 23.2453 35.2505 22.889C35.3569 22.5115 35.4588 22.1882 35.5564 21.9191L35.8755 20.7866L36.0107 20.2876L36.4878 18.299C36.23 18.1143 36.044 17.8997 35.9296 17.6553C35.8364 17.4084 35.7844 17.146 35.7735 16.8681C35.7753 16.3309 35.9123 15.9391 36.1842 15.6927C36.4538 15.425 36.6708 15.2601 36.8354 15.198C37.3316 15.0328 37.7217 15.0626 38.0056 15.2872C38.2895 15.5119 38.3787 15.9096 38.2734 16.4802L37.9956 17.4147C38.0168 17.4122 38.0723 17.4272 38.162 17.4597C38.2728 17.4898 38.4261 17.5149 38.6218 17.535C38.8361 17.5315 39.1035 17.5219 39.4238 17.506C39.7653 17.4877 40.1773 17.429 40.6597 17.3299C41.121 17.2332 41.5268 17.1215 41.8771 16.9948C42.2275 16.8681 42.5261 16.7581 42.773 16.6649C43.0198 16.5717 43.228 16.5153 43.3976 16.4955C43.5646 16.4546 43.7073 16.4809 43.8256 16.5745C44.0434 16.7854 44.0312 17.1412 43.7888 17.642C43.5676 18.1402 43.3108 18.793 43.0182 19.6003C42.6493 20.6742 42.3171 21.7867 42.0217 22.938C41.7449 24.0656 41.5934 25.2537 41.567 26.5025C41.5606 26.6321 41.5634 26.9325 41.5753 27.4036C41.5872 27.8747 41.659 28.3066 41.7907 28.6994C41.8217 28.7817 41.8634 28.8627 41.9156 28.9426C41.9866 28.9987 42.0751 29.0206 42.181 29.0083C42.287 28.9959 42.4092 28.9388 42.5476 28.8367C42.7073 28.7322 42.8994 28.538 43.1241 28.2541C43.4424 27.8519 43.7345 27.4098 44.0005 26.9278C44.2877 26.4433 44.5382 25.9202 44.752 25.3583C44.887 25.0419 44.9914 24.7398 45.0653 24.452C45.1578 24.1405 45.2529 23.8503 45.3504 23.5812C45.4967 23.1775 45.623 22.787 45.7294 22.4095C45.857 22.0295 45.9577 21.6956 46.0316 21.4078Z" fill="#181818"/>
<path d="M61.3833 19.6197C61.4434 19.3979 61.5495 19.203 61.7018 19.0349C61.8515 18.8457 61.9969 18.7106 62.1378 18.6298C62.2763 18.5277 62.3891 18.4824 62.4763 18.4937C62.5636 18.505 62.584 18.5885 62.5377 18.7443C62.524 18.8103 62.4801 18.9872 62.4063 19.275C62.3536 19.5604 62.2672 19.9248 62.147 20.3684C62.0269 20.8119 61.8705 21.3134 61.6779 21.8728C61.5065 22.4297 61.3164 23.0102 61.1076 23.6144C61.0712 23.8549 61.0098 24.0661 60.9236 24.248C60.7035 24.9394 60.4267 25.6052 60.0932 26.2455C59.7784 26.862 59.518 27.3004 59.3121 27.5607C58.9726 27.9653 58.6575 28.3027 58.3668 28.5728C58.0761 28.8429 57.7911 29.0694 57.5117 29.2523C57.2298 29.414 56.9443 29.5439 56.655 29.642C56.387 29.7377 56.0952 29.8146 55.7798 29.8728C55.4669 29.9522 55.1254 29.9705 54.7553 29.9277C54.3827 29.8637 54.052 29.6982 53.7632 29.4312C53.4719 29.1429 53.253 28.7389 53.1066 28.219C52.9788 27.6755 52.9915 26.9545 53.1446 26.0561C52.7333 27.1349 52.1707 28.1132 51.4568 28.991C50.7641 29.8664 50.0013 30.417 49.1685 30.6429C48.8132 30.7272 48.44 30.7492 48.0487 30.7089C47.6574 30.6685 47.2762 30.5304 46.905 30.2944C46.5339 30.0584 46.2128 29.6985 45.9416 29.2146C45.6705 28.7307 45.488 28.0862 45.3942 27.2809C45.2832 26.3274 45.3199 25.26 45.5045 24.0787C45.7078 22.8737 45.9703 21.7156 46.2918 20.6043C46.6134 19.4929 46.9511 18.5193 47.3047 17.6835C47.6559 16.8264 47.9345 16.2678 48.1405 16.0075C48.5435 15.5955 48.9968 15.3386 49.5004 15.237C50.0228 15.1117 50.4914 15.0786 50.9064 15.1377C51.3213 15.1968 51.6247 15.3118 51.8164 15.4827C52.0269 15.63 52.0099 15.7609 51.7655 15.8753C51.4812 16.0158 51.189 16.4579 50.889 17.2016C50.6078 17.9216 50.2625 19.0142 49.8533 20.4794L49.8215 20.4831C49.4911 21.7029 49.2237 22.8186 49.0194 23.8304C48.8338 24.8185 48.801 25.7351 48.9209 26.5802C49.0087 27.1499 49.1709 27.5283 49.4075 27.7156C49.6628 27.8791 49.8235 27.9678 49.8895 27.9816C50.0664 28.0254 50.297 27.9771 50.5814 27.8366C50.8632 27.6749 51.1633 27.3929 51.4816 26.9907C51.8397 26.5624 52.1587 26.0743 52.4385 25.5262C52.7159 24.957 52.9577 24.3596 53.1641 23.7342C53.3917 23.1064 53.598 22.4809 53.7832 21.858C53.9659 21.2139 54.1429 20.6134 54.3143 20.0565C54.631 18.9027 54.9307 17.8799 55.2134 16.9878C55.4961 16.0958 55.7766 15.4618 56.055 15.0857C56.4107 14.6362 56.8522 14.37 57.3795 14.2871C57.9043 14.183 58.3754 14.1711 58.7928 14.2514C59.2314 14.3291 59.5572 14.4523 59.7701 14.6208C59.983 14.7893 59.9636 14.8989 59.7118 14.9497C59.5659 14.9882 59.4055 15.1787 59.2307 15.5212C59.077 15.8613 58.9095 16.2674 58.7282 16.7395C58.5657 17.188 58.4069 17.6683 58.2517 18.1803C58.0941 18.6712 57.9609 19.0948 57.8521 19.4511C57.722 19.8099 57.575 20.2995 57.411 20.92C57.2446 21.5193 57.09 22.1279 56.9472 22.7459C56.8019 23.3427 56.6717 23.8841 56.5564 24.37C56.4624 24.8535 56.4097 25.1388 56.3984 25.2261C56.3369 25.6198 56.2823 25.9806 56.2345 26.3083C56.1868 26.636 56.1659 26.9177 56.1718 27.1532C56.1965 27.3651 56.268 27.5179 56.3863 27.6115C56.5021 27.6839 56.6928 27.6617 56.9584 27.5448C57.5532 27.3037 58.0309 26.9796 58.3916 26.5725C58.7709 26.1417 59.118 25.6181 59.4328 25.0015C59.6264 24.6353 59.7651 24.3507 59.8488 24.1476C59.9537 23.9421 60.0562 23.7154 60.1562 23.4675L60.7546 21.6903C60.8772 21.268 60.9942 20.8892 61.1055 20.5541C61.2168 20.219 61.3094 19.9075 61.3833 19.6197Z" fill="#181818"/>
<path d="M71.0608 18.5247C71.1209 18.303 71.2177 18.1199 71.3512 17.9755C71.5035 17.8074 71.6395 17.6842 71.7592 17.6058C71.9001 17.5249 72.0048 17.502 72.0733 17.537C72.1606 17.5483 72.181 17.6318 72.1348 17.7876C72.1047 17.8984 72.0333 18.2074 71.9206 18.7146C71.8265 19.198 71.6662 19.8503 71.4397 20.6713C70.9866 22.3134 70.3744 23.6949 69.6028 24.8157C68.8525 25.934 67.9179 26.9449 66.7989 27.8484C66.1702 28.3512 65.5311 28.6726 64.8816 28.8127C64.2508 28.9291 63.6893 28.9945 63.197 29.0089C62.4878 29.0056 61.8836 28.7968 61.3843 28.3824C60.9037 27.9444 60.6259 27.311 60.5509 26.4821C60.5114 26.1431 60.5603 25.8259 60.6978 25.5307C60.8327 25.2143 61.0044 24.9366 61.2128 24.6975C61.3464 24.5531 61.5141 24.4262 61.7162 24.3167C61.9394 24.2048 62.1663 24.1247 62.3969 24.0764C62.6251 24.0068 62.8276 23.994 63.0045 24.0378C63.2002 24.058 63.3266 24.1292 63.3838 24.2514C63.2192 24.3135 63.0938 24.4355 63.0076 24.6173C62.9426 24.7967 62.9094 24.9724 62.9079 25.1444C62.904 25.2952 62.925 25.4753 62.9709 25.6848C63.0143 25.873 63.0894 26.0575 63.1964 26.2384C63.3221 26.3956 63.4865 26.516 63.6895 26.5998C63.9138 26.681 64.1917 26.6701 64.5234 26.5671C64.8787 26.4827 65.1132 26.2836 65.227 25.9697C65.3595 25.6321 65.4321 25.3337 65.4449 25.0744C65.4655 24.5136 65.3907 23.9639 65.2206 23.4253C65.048 22.8655 64.8448 22.32 64.6111 21.7888C64.375 21.2364 64.1388 20.6841 63.9027 20.1317C63.6877 19.5768 63.5375 19.0252 63.4522 18.4767C63.4102 18.1164 63.3757 17.8198 63.3485 17.5867C63.3401 17.3299 63.3716 17.0471 63.443 16.7381C63.3006 16.9909 63.1644 17.2967 63.0344 17.6555C62.9019 17.9931 62.7612 18.3531 62.6125 18.7356C62.48 19.0732 62.3455 19.4862 62.2091 19.9745C62.0702 20.4418 61.9094 20.9974 61.7267 21.6416L60.7939 21.6536C60.8077 21.5875 60.8227 21.5321 60.8389 21.4872C60.8527 21.4212 60.8677 21.3657 60.884 21.3209C61.0844 20.4599 61.3341 19.561 61.633 18.6241C61.9532 17.6848 62.2869 16.862 62.6342 16.1557C63.0327 15.3361 63.5806 14.6924 64.2778 14.2246C64.975 13.7568 65.6365 13.4435 66.2624 13.2847C66.9094 13.1234 67.4778 13.025 67.9677 12.9894C68.455 12.9327 68.9023 13.0846 69.3094 13.4453C69.4302 13.5601 69.5253 13.7315 69.5948 13.9597C69.6619 14.1667 69.7065 14.3655 69.7288 14.5562C69.7485 14.7257 69.7434 14.8659 69.7133 14.9768C69.6808 15.0665 69.6266 15.0621 69.5507 14.9635C69.4772 14.8862 69.3452 14.8586 69.1545 14.8808C68.9825 14.8794 68.773 14.9253 68.5262 15.0184C68.3005 15.1092 68.0679 15.2329 67.8284 15.3897C67.5865 15.5252 67.3788 15.6783 67.2054 15.8488C67.0531 16.0169 66.9139 16.2049 66.7878 16.4129C66.6617 16.6209 66.5772 16.9099 66.5344 17.2801C66.5104 17.6265 66.5422 18.0846 66.6301 18.6542C66.7154 19.2027 66.8959 19.9226 67.1716 20.8141C67.2697 21.1033 67.3902 21.4007 67.5332 21.7062C67.6737 21.9905 67.7967 22.3091 67.9023 22.6619C68.0265 22.9911 68.1108 23.3464 68.1553 23.7278C68.1997 24.1093 68.1618 24.5217 68.0417 24.9653C68.2639 24.6602 68.4592 24.4012 68.6277 24.1883C68.7937 23.9542 68.9667 23.687 69.1465 23.3869C69.3263 23.0867 69.5174 22.6993 69.7199 22.2247C69.9435 21.7477 70.211 21.0936 70.5223 20.2627C70.6498 19.8827 70.7424 19.5713 70.8 19.3283C70.8764 19.0617 70.9633 18.7938 71.0608 18.5247Z" fill="#181818"/>
<path d="M84.2077 16.9613C84.2678 16.7395 84.374 16.5446 84.5262 16.3765C84.6972 16.1848 84.8531 16.0485 84.994 15.9676C85.1537 15.8631 85.2771 15.8165 85.3644 15.8278C85.4728 15.8367 85.5038 15.919 85.4576 16.0747C85.4088 16.2093 85.2773 16.74 85.0631 17.667C84.8465 18.5729 84.513 19.6748 84.0629 20.973C83.9654 21.242 83.8341 21.5902 83.6691 22.0175C83.5253 22.4424 83.3415 22.8933 83.1179 23.3704C82.8942 23.8475 82.6388 24.3282 82.3516 24.8127C82.0619 25.276 81.7355 25.7006 81.3724 26.0866C81.0068 26.4513 80.6114 26.7444 80.1861 26.9657C79.7584 27.1659 79.2947 27.2414 78.795 27.1922C78.2953 27.143 77.8998 26.9743 77.6085 26.686C77.3147 26.3766 77.0821 26.0386 76.9105 25.672C76.7601 25.3029 76.6546 24.9501 76.5939 24.6135C76.5308 24.2557 76.4905 24.0027 76.4733 23.8544C76.3636 22.7288 76.4255 21.5081 76.6588 20.1923C76.8922 18.8765 77.2078 17.5296 77.6057 16.1516C77.3249 16.5065 76.9579 17.0432 76.5046 17.7618C76.0514 18.4804 75.5775 19.2981 75.0829 20.2148C74.607 21.1078 74.1479 22.0526 73.7055 23.0492C73.2632 24.0457 72.9218 24.9875 72.6815 25.8746C72.5737 26.4241 72.4784 26.897 72.3957 27.2932C72.3105 27.6682 72.248 27.8688 72.2081 27.8949C72.0272 28.0019 71.819 28.0584 71.5835 28.0643C71.3479 28.0703 71.1062 28.0233 70.8583 27.9233C70.6316 27.8208 70.4317 27.6723 70.2587 27.4777C70.0621 27.2643 69.9346 26.9999 69.8764 26.6846C69.8305 26.4751 69.8529 26.0215 69.9434 25.3237C70.0103 24.6071 70.119 23.7891 70.2697 22.8695C70.3991 21.9523 70.5485 21.0221 70.7178 20.0789C70.9059 19.1119 71.0888 18.2852 71.2666 17.5987C71.661 16.0064 72.0747 14.487 72.5076 13.0405C72.938 11.5729 73.3446 10.2691 73.7272 9.12917C74.1099 7.98925 74.4301 7.0499 74.6877 6.31114C74.964 5.54872 75.1347 5.07781 75.1997 4.89842C75.5268 4.38781 75.9515 4.06987 76.4739 3.9446C76.9938 3.79814 77.4718 3.7532 77.9079 3.80979C78.3652 3.86391 78.7216 3.97275 78.9769 4.13631C79.2297 4.27868 79.2514 4.37281 79.042 4.41868C78.8562 4.48327 78.6815 4.64322 78.518 4.89852C78.3756 5.15136 78.1988 5.56929 77.9875 6.15232C77.9899 6.17351 77.888 6.4968 77.6816 7.12221C77.4728 7.72643 77.2014 8.53123 76.8675 9.53661C76.5523 10.5183 76.1908 11.6558 75.783 12.949C75.3939 14.2185 75.0098 15.5304 74.6306 16.8847C74.5429 17.2386 74.4277 17.7245 74.2849 18.3425C74.1396 18.9393 73.9818 19.6128 73.8115 20.3629C74.4371 19.2805 75.0522 18.1995 75.6566 17.1196C76.2798 16.0161 77.0151 14.9532 77.8625 13.931C78.1808 13.5288 78.5227 13.1453 78.8883 12.7806C79.2726 12.3922 79.7092 12.0836 80.198 11.8549C80.4873 11.7567 80.711 11.7414 80.8692 11.8089C81.0274 11.8764 81.2261 12.0143 81.4651 12.2227C81.5622 12.3188 81.6487 12.4161 81.7246 12.5147C81.7981 12.592 81.8328 12.7061 81.8289 12.8569C81.8437 12.9841 81.8105 13.1597 81.7292 13.384C81.648 13.6082 81.5105 13.9034 81.3169 14.2696C81.0558 14.794 80.8127 15.3808 80.5877 16.0298C80.3813 16.6552 80.2011 17.3205 80.0469 18.0258C79.9116 18.7074 79.7998 19.4076 79.7117 20.1267C79.6424 20.822 79.6011 21.4819 79.5879 22.1063C79.5978 22.191 79.6001 22.3948 79.5947 22.7176C79.5869 23.0192 79.6015 23.3289 79.6385 23.6468C79.6755 23.9646 79.7394 24.2364 79.8301 24.4621C79.9208 24.6878 80.079 24.7553 80.3047 24.6645C80.8822 24.2751 81.3826 23.7765 81.8058 23.1688C82.2502 22.5587 82.663 21.7696 83.0442 20.8017C83.1117 20.6435 83.1673 20.4759 83.2112 20.299C83.2762 20.1196 83.3456 19.886 83.4195 19.5982C83.5146 19.3079 83.6246 18.9622 83.7497 18.561C83.8724 18.1386 84.025 17.6054 84.2077 16.9613Z" fill="#181818"/>
<path d="M96.8632 15.5195C96.8907 15.3874 96.9725 15.2597 97.1085 15.1365C97.242 14.9921 97.3805 14.89 97.5239 14.8304C97.6648 14.7495 97.7801 14.7254 97.8698 14.7579C97.9595 14.7904 97.9837 14.9057 97.9423 15.1038C97.9285 15.1699 97.8997 15.2913 97.8559 15.4683C97.8096 15.624 97.7552 15.8022 97.6926 16.0027C97.6513 16.2009 97.6006 16.4108 97.5405 16.6326C97.4779 16.8332 97.4129 17.0125 97.3454 17.1707C97.108 17.7139 96.8856 18.2015 96.6782 18.6338C96.4708 19.066 96.2149 19.4502 95.9104 19.7863C95.6034 20.1013 95.2068 20.3837 94.7204 20.6337C94.2528 20.86 93.6413 21.0493 92.8858 21.2018C92.6445 21.8957 92.3839 22.5167 92.1041 23.0647C91.8218 23.5916 91.458 24.0635 91.0126 24.4805C90.6046 24.8502 90.1493 25.1824 89.6467 25.4772C89.1653 25.7695 88.7046 25.9628 88.2645 26.057C87.2198 26.3075 86.366 26.3533 85.7032 26.1942C85.0591 26.0115 84.5509 25.7056 84.1788 25.2764C83.8042 24.8261 83.5599 24.2961 83.4459 23.6866C83.3108 23.0794 83.2498 22.4637 83.263 21.8393C83.2811 21.2573 83.3667 20.5171 83.5198 19.6187C83.6704 18.6991 83.8814 17.8369 84.1528 17.0321C84.4404 16.1824 84.7478 15.5023 85.0749 14.9917C85.3996 14.4599 85.7484 14.0434 86.1214 13.7423C86.1589 13.6949 86.1988 13.6688 86.2411 13.6639C86.3023 13.6353 86.3515 13.5973 86.389 13.55C86.5515 13.1015 86.7626 12.7011 87.0222 12.3487C87.2794 11.9751 87.5428 11.6545 87.8123 11.3868C88.103 11.1167 88.3892 10.9008 88.6711 10.7391C88.9505 10.5562 89.1937 10.4313 89.4006 10.3642C89.8781 10.2227 90.383 10.1316 90.9152 10.0911C91.4661 10.027 91.9777 10.0855 92.4498 10.2668C92.922 10.448 93.336 10.7757 93.6919 11.2497C94.0478 11.7237 94.2763 12.3951 94.3775 13.2639C94.4836 14.1751 94.4432 15.2107 94.2561 16.3708C94.0903 17.5284 93.7985 18.7114 93.3809 19.9199C93.9505 19.832 94.4393 19.6033 94.8473 19.2336C95.2528 18.8427 95.6004 18.4157 95.8901 17.9524C96.1773 17.4679 96.4022 17.0014 96.5647 16.5529C96.7273 16.1044 96.8267 15.76 96.8632 15.5195ZM86.4903 21.3346C86.4145 22.1595 86.491 22.8164 86.7198 23.3052C86.9673 23.7704 87.2866 24.0231 87.6779 24.0635C88.088 24.0802 88.545 23.8551 89.049 23.3883C89.5531 22.9215 90.0319 22.1463 90.4856 21.0625C89.5561 20.8271 88.7883 20.4118 88.182 19.8166C87.5969 19.219 87.2082 18.5555 87.0159 17.8262C86.9834 17.9159 86.9489 18.081 86.9125 18.3215C86.8736 18.5408 86.8372 18.7813 86.8032 19.043C86.7693 19.3046 86.7235 19.557 86.6659 19.7999C86.6295 20.0404 86.6056 20.2043 86.5943 20.2915C86.5791 20.5295 86.5601 20.7358 86.5375 20.9102C86.5148 21.0847 86.4991 21.2261 86.4903 21.3346ZM91.7686 15.7585C91.9246 14.5161 91.9118 13.6692 91.7304 13.2178C91.549 12.7664 91.1404 12.5778 90.5047 12.6518C90.2716 12.679 90.0447 12.7591 89.8239 12.8922C89.6007 13.0041 89.393 13.1572 89.2009 13.3514C89.3478 13.5061 89.4629 13.6645 89.5462 13.8266C89.6295 13.9887 89.6748 14.1016 89.6822 14.1651C89.5078 14.1425 89.3053 14.1553 89.0746 14.2037C88.8415 14.2308 88.6196 14.3533 88.4087 14.5712C88.3574 14.6846 88.2811 14.9512 88.1797 15.3711C88.0782 15.791 88.0584 16.2658 88.1201 16.7955C88.203 17.3228 88.4391 17.8752 88.8285 18.4527C89.2155 19.009 89.8836 19.4896 90.8328 19.8945C91.0303 19.3775 91.2155 18.7546 91.3883 18.0257C91.5587 17.2756 91.6855 16.5199 91.7686 15.7585Z" fill="#181818"/>
<path d="M116.552 13.2262C116.628 12.9596 116.723 12.7553 116.835 12.6134C116.966 12.4478 117.093 12.3364 117.215 12.2792C117.335 12.2008 117.439 12.1779 117.529 12.2104C117.616 12.2217 117.654 12.271 117.643 12.3582C117.634 12.4666 117.602 12.6529 117.547 12.917C117.511 13.1575 117.455 13.4217 117.382 13.7095C117.329 13.9948 117.266 14.2814 117.192 14.5692C117.118 14.857 117.047 15.0801 116.98 15.2383C116.561 16.2535 116.096 17.0593 115.586 17.6557C115.073 18.2309 114.4 18.6315 113.567 18.8573C113.212 18.9417 112.864 18.993 112.522 19.0113C112.202 19.0271 111.944 19.0249 111.748 19.0048C111.501 19.4631 111.279 19.8648 111.083 20.2098C110.885 20.5336 110.625 20.886 110.304 21.267C109.909 21.7427 109.526 22.1416 109.155 22.464C108.806 22.7839 108.482 23.0471 108.184 23.2537C107.966 23.408 107.694 23.5684 107.37 23.7351C107.046 23.9017 106.704 24.006 106.343 24.0479C106.004 24.0874 105.666 24.0409 105.329 23.9084C104.988 23.7547 104.684 23.4465 104.415 22.9838C104.337 22.8641 104.242 22.6926 104.13 22.4694C104.039 22.2437 103.949 22.018 103.858 21.7924C103.767 21.5667 103.691 21.3715 103.629 21.2069C103.585 21.0187 103.561 20.9034 103.556 20.861C103.288 21.3218 102.987 21.7864 102.655 22.2546C102.342 22.6992 101.982 23.1169 101.577 23.5077C101.169 23.8774 100.691 24.2015 100.144 24.4801C99.6151 24.735 99.0011 24.9031 98.3018 24.9846C97.9416 25.0265 97.5242 24.9463 97.0496 24.7438C96.5962 24.5389 96.2881 24.1989 96.1254 23.7239C95.9577 23.2065 95.8837 22.5708 95.9033 21.8168C95.9228 21.0628 95.9848 20.3039 96.0891 19.54C96.191 18.7549 96.3189 18.0098 96.4731 17.3046C96.6459 16.5757 96.8017 15.9776 96.9406 15.5104C97.0746 15.0008 97.2191 14.49 97.3742 13.978C97.5269 13.4447 97.6727 12.9445 97.8116 12.4773C97.9716 12.0076 98.1273 11.5922 98.2785 11.2309C98.4273 10.8485 98.5541 10.5545 98.659 10.349C98.9674 9.86202 99.3791 9.52413 99.894 9.33528C100.409 9.14644 100.881 9.04853 101.31 9.04155C101.759 9.0321 102.111 9.09856 102.364 9.24093C102.614 9.36211 102.63 9.49985 102.412 9.65414C102.194 9.80843 101.983 10.1229 101.781 10.5975C101.597 11.0484 101.34 11.7012 101.01 12.5558C100.731 13.297 100.46 14.1018 100.196 14.9702C99.932 15.8386 99.7104 16.702 99.5312 17.5605C99.352 18.419 99.2208 19.2289 99.1377 19.9903C99.0521 20.7305 99.0389 21.3549 99.0981 21.8635C99.1475 22.2873 99.2288 22.5248 99.3422 22.576C99.4531 22.6061 99.5989 22.5676 99.7798 22.4606C100.221 22.1944 100.612 21.859 100.951 21.4544C101.309 21.026 101.622 20.5709 101.888 20.0889C102.175 19.6044 102.418 19.1142 102.618 18.6184C102.837 18.099 103.038 17.6138 103.222 17.1628C103.357 16.8464 103.465 16.5761 103.546 16.3519C103.625 16.1064 103.696 15.8834 103.758 15.6828C103.842 15.4798 103.905 15.2792 103.946 15.0811C104.009 14.8805 104.078 14.6469 104.154 14.3803C104.353 13.6913 104.519 13.178 104.652 12.8404C104.782 12.4816 104.935 12.1416 105.113 11.8202C105.374 11.2958 105.727 10.9217 106.174 10.6979C106.618 10.4529 107.041 10.307 107.444 10.2601C107.846 10.2132 108.162 10.2515 108.391 10.3752C108.642 10.4964 108.681 10.6528 108.511 10.8446C108.171 11.2492 107.882 11.8091 107.643 12.5242C107.404 13.2393 107.216 14.0236 107.079 14.8772C106.94 15.7096 106.846 16.5582 106.796 17.4231C106.765 18.2643 106.767 19.0158 106.801 19.6777C106.856 20.337 106.949 20.8525 107.078 21.224C107.204 21.5744 107.378 21.683 107.599 21.5499C107.939 21.3384 108.316 20.8865 108.73 20.194C109.143 19.5015 109.559 18.7443 109.979 17.9222C109.484 17.357 109.199 16.66 109.124 15.8311C109.046 14.9811 109.087 14.1386 109.248 13.3038C109.511 11.877 109.899 10.7795 110.411 10.0111C110.941 9.21908 111.446 8.6663 111.925 8.35279C112.244 8.14378 112.591 7.98527 112.965 7.87728C113.339 7.76928 113.681 7.75098 113.99 7.82238C114.296 7.87259 114.56 8.01373 114.78 8.24579C115.019 8.4542 115.164 8.7809 115.216 9.2259C115.273 9.71327 115.226 10.2342 115.076 10.7886C114.947 11.3406 114.703 12.0993 114.343 13.0648L113.831 14.4775C113.647 14.9284 113.437 15.4361 113.202 16.0004C112.968 16.5647 112.685 17.1775 112.354 17.8389C112.983 17.8945 113.589 17.7488 114.171 17.4017C114.751 17.0335 115.233 16.4726 115.618 15.719C115.809 15.3316 115.986 14.9137 116.149 14.4652C116.311 14.0167 116.446 13.6037 116.552 13.2262ZM110.506 16.6366C110.573 16.4784 110.702 16.195 110.89 15.7864C111.079 15.3779 111.274 14.9363 111.477 14.4617C111.679 13.9871 111.874 13.5349 112.06 13.1051C112.244 12.6542 112.385 12.3047 112.485 12.0568C112.867 11.0889 113.037 10.3388 112.997 9.8066C112.954 9.25319 112.789 8.95015 112.504 8.89747C112.393 8.86743 112.242 8.94951 112.05 9.14371C111.876 9.31426 111.679 9.56267 111.46 9.88895C111.261 10.2128 111.071 10.6107 110.89 11.0829C110.706 11.5338 110.549 12.0247 110.417 12.5555C110.203 13.4825 110.091 14.2688 110.08 14.9143C110.069 15.5599 110.211 16.134 110.506 16.6366Z" fill="#181818"/>
</svg>
