<svg width="54" height="54" viewBox="0 0 54 54" fill="none" xmlns="http://www.w3.org/2000/svg">
<path fill-rule="evenodd" clip-rule="evenodd" d="M25.4884 10.561C16.185 10.561 11.6412 17.9899 11.6412 17.9899V17.9822H9.55068L7.46011 21.8779H8.83325L8.18525 23.467H6.59611L3.78039 28.6588H4.92982L4.49782 29.6693H2.04468L0.602107 32.3385H1.83639L0.03125 35.5862H11.3404C11.3404 35.5862 15.7452 43.5936 25.4807 43.5936C35.2238 43.5936 39.405 35.8022 39.405 35.8022C41.4955 38.0393 45.6072 36.7433 45.6072 36.7433C53.5452 33.6422 53.3987 27.0773 53.3987 27.0773H49.719C51.447 23.3282 51.1615 22.2482 51.1615 22.2482H50.2975C50.8761 22.1016 51.2387 20.875 51.2387 20.875L51.7401 17.7739H39.1195C39.1195 17.7739 34.7918 10.561 25.4884 10.561ZM36.9518 17.7508C36.9272 17.7218 36.9012 17.6886 36.8699 17.6486C36.6763 17.4008 36.281 16.895 34.7532 15.5599C32.1458 13.2842 28.6898 12.2505 25.4421 12.2505C23.0507 12.2505 20.9524 12.7905 18.6381 14.0633C15.9305 15.555 14.6741 17.2475 14.2514 17.8169C14.2128 17.8688 14.1812 17.9114 14.1561 17.9436C13.9324 18.2213 13.9015 18.3833 14.0481 18.4682C14.1484 18.5299 14.3489 18.3139 14.5341 18.0671C15.4135 16.9022 16.5707 15.7528 17.7818 15.0816C18.1598 15.1356 18.6921 15.6602 18.8927 15.9456C18.1135 16.3699 16.8252 17.3496 16.3315 17.7276C15.9072 18.0516 15.7607 18.2368 15.8764 18.3679C15.9689 18.4759 16.2929 18.2599 16.5629 18.0362C17.0335 17.6505 18.4221 16.6708 19.1087 16.3005C19.5792 16.8482 19.4249 17.8588 19.2629 18.0825C19.1781 18.1982 19.1627 18.3293 19.2629 18.3833C19.3632 18.4373 19.4635 18.2985 19.6024 18.1056C19.9187 17.6428 19.7952 16.5319 19.5175 16.1308C20.3584 15.6139 21.5618 15.2591 22.2869 15.0971C22.3441 15.2042 23.1084 17.4262 23.3502 18.1294L23.3504 18.1297L23.3978 18.2676L23.4201 18.3295C23.5058 18.5692 23.5977 18.8265 23.7681 18.7768C23.8915 18.7382 23.8067 18.4605 23.7064 18.1751C23.6204 17.9476 23.3059 16.9383 23.0407 16.0872L23.0406 16.087C22.9012 15.6394 22.7753 15.2355 22.7035 15.0122C22.9427 14.8811 24.3929 14.5879 24.7555 14.6033C24.5843 15.5113 25.1958 15.9095 25.918 16.3798L25.9975 16.4316C26.2126 16.5722 27.0462 17.0587 27.8554 17.5309L27.8555 17.531L27.8558 17.5312L27.8559 17.5312L27.8561 17.5314L27.8563 17.5315L27.8564 17.5315C28.5562 17.9399 29.2376 18.3375 29.4844 18.4913C29.7852 18.6765 30.0244 18.7999 30.0861 18.7073C30.1632 18.6071 29.9549 18.3911 29.6772 18.2291L29.5089 18.1311L29.5089 18.1311L29.5088 18.131C28.9012 17.7778 26.9586 16.6486 26.0901 16.0922C25.3804 15.6448 25.0024 15.1665 25.1721 14.5339C25.4035 14.4645 26.1209 14.4568 26.8615 14.4645C31.9221 14.5031 35.9798 17.4036 36.4272 17.8742C36.6587 18.1133 36.9749 18.3139 37.0984 18.2136C37.1987 18.1365 37.0598 17.8742 36.9518 17.7508ZM19.3169 15.7528C19.1781 15.5213 18.5378 14.9351 18.1907 14.8193C19.0007 14.2176 20.8829 13.3536 21.6004 13.2071C21.7238 13.4153 22.0555 14.2871 22.1635 14.6573C21.5309 14.7962 19.8492 15.3979 19.3169 15.7528ZM24.8404 14.1251C24.1769 14.1636 22.9812 14.4259 22.5569 14.5493C22.4852 14.3598 22.3284 13.9015 22.2018 13.5313C22.1378 13.3441 22.0815 13.1795 22.0478 13.0836C23.2667 12.7365 24.6707 12.6208 25.7584 12.7133C25.4652 12.9448 24.9561 13.8628 24.8404 14.1251ZM28.1267 14.0865C27.0312 14.0093 26.1364 13.9785 25.3495 14.0556C25.5732 13.4848 26.0284 12.9525 26.3832 12.7133C27.1315 12.7442 27.9029 12.8522 28.5124 12.9756C30.4718 13.3613 33.5112 14.5571 34.8227 16.3159C33.0792 15.1433 30.1709 14.2253 28.1267 14.0865ZM26.8384 19.5096C26.7767 19.5405 26.6378 19.5636 26.5761 19.5096C26.4141 19.3785 26.1055 19.2782 25.9435 19.2782C25.4729 19.2782 25.1335 19.3708 24.9329 19.8105C24.7555 20.1885 24.9407 20.5048 25.3495 20.6976L25.3619 20.7036C25.5379 20.7875 25.7639 20.8955 25.6735 21.1065C25.6041 21.2608 25.4267 21.2839 25.2569 21.2762C25.0332 21.2762 24.7015 21.1065 24.6475 20.7902C24.6321 20.6899 24.5087 20.7131 24.4778 20.7671L24.1924 21.3302C24.1461 21.4073 24.2618 21.4922 24.3081 21.4382C24.4007 21.3379 24.6089 21.3148 24.7169 21.3765C24.8558 21.4691 25.2184 21.6388 25.4344 21.6311C25.9127 21.6311 26.2212 21.5076 26.4835 21.0988C26.7227 20.7285 26.5761 20.3582 26.1441 20.1499C25.9127 20.0419 25.7198 19.8491 25.8201 19.6408C25.8895 19.5019 26.0901 19.5328 26.1904 19.5482C26.3832 19.5791 26.6301 19.7642 26.6609 19.9262C26.6764 19.9956 26.7612 20.0111 26.7998 19.9493L26.9464 19.6022C26.9849 19.5405 26.8769 19.4865 26.8384 19.5096ZM20.9215 30.5719C20.9678 30.7031 21.0912 30.8342 21.2841 30.8419C21.5772 30.8573 21.7007 31.2353 21.1992 31.2276H14.2795L12.9295 33.5882L12.909 33.6205C12.8043 33.7854 12.7826 33.8196 12.5284 33.8196L3.40238 33.8119C2.90095 33.8119 2.88552 33.4262 3.45638 33.4262H5.02238C5.26152 33.4262 5.36952 33.2951 5.4698 33.1408L5.78609 32.5313C5.8478 32.4156 5.66266 32.4002 5.50838 32.4002H4.8758C4.83723 32.4002 4.79866 32.3693 4.79866 32.3231C4.79866 32.2845 4.82952 32.2459 4.8758 32.2459H5.50838C5.75523 32.2459 5.93266 32.2382 5.97895 32.1611L6.48809 31.2045C6.58066 31.0348 6.32609 31.0116 6.1178 31.0116H3.02438C2.9858 31.0116 2.94723 30.9808 2.94723 30.9345C2.94723 30.8959 2.97809 30.8573 3.02438 30.8573H6.12552C6.36466 30.8573 6.67323 30.8496 6.72723 30.6491L7.5218 29.1525C7.5758 29.0291 7.46009 28.9905 7.23638 28.9905H6.60381C6.56523 28.9905 6.52666 28.9596 6.52666 28.9133C6.52666 28.8748 6.55752 28.8362 6.60381 28.8362H7.23638C7.3598 28.8362 7.66838 28.8362 7.77638 28.6665L8.37038 27.5479C8.43981 27.4168 8.29323 27.4091 8.05409 27.4091H6.05609C6.01752 27.4091 5.97895 27.3782 5.97895 27.3319C5.97895 27.2933 6.0098 27.2548 6.05609 27.2548H8.0618C8.34723 27.2548 8.51695 27.2393 8.57866 27.1545L9.61238 25.2105C9.69723 25.0485 9.61238 24.9482 9.38866 24.9482H7.39066C7.35209 24.9482 7.31352 24.9096 7.31352 24.8711C7.31352 24.8325 7.34438 24.7939 7.39066 24.7939H9.39638C9.75123 24.7939 9.86695 24.7399 9.94409 24.6011L10.4764 23.6136C10.5381 23.4825 10.5072 23.4053 10.3684 23.4053H10.0135C9.97495 23.4053 9.93638 23.3745 9.93638 23.3282C9.93638 23.2896 9.96723 23.2511 10.0135 23.2511H10.3761C10.5767 23.2511 10.6847 23.2356 10.7387 23.1353L11.3867 21.9396C11.4638 21.8162 11.4638 21.7313 11.3327 21.7313H10.4301C10.3915 21.7313 10.3529 21.7005 10.3529 21.6542C10.3529 21.6156 10.3838 21.5771 10.4301 21.5771H11.3404C11.4792 21.5771 11.6027 21.5385 11.6489 21.4613L11.9267 20.9368C12.0269 20.7439 11.8649 20.7131 11.7569 20.7131H9.75895C9.72038 20.7131 9.6818 20.6822 9.6818 20.6359C9.6818 20.5973 9.71266 20.5588 9.75895 20.5588H11.7647C12.0732 20.5588 12.1504 20.5202 12.2044 20.4276L12.3664 20.1345C12.4512 19.9725 12.3509 19.7796 12.0269 19.7796H10.8929C10.3221 19.7796 10.3375 19.3939 10.8389 19.3939H16.9641C17.4578 19.3939 17.4732 19.7796 16.9024 19.7796H15.6835C15.4675 19.7796 15.2515 19.9648 15.1975 20.0882L9.45809 30.8265C9.75895 30.8265 11.2941 30.6259 11.6104 30.2171L13.3075 28.0879C13.3847 27.9953 13.2767 27.9722 13.1378 27.9722H12.2352C12.1967 27.9722 12.1581 27.9413 12.1581 27.8951C12.1581 27.8565 12.1889 27.8179 12.2352 27.8179H13.2921C13.4155 27.8179 13.5312 27.8102 13.5929 27.7485L14.7887 26.2519C14.8272 26.2133 14.8272 26.1671 14.7347 26.1671H14.4338C14.3952 26.1671 14.3567 26.1362 14.3567 26.0899C14.3567 26.0513 14.3875 26.0128 14.4338 26.0128H14.7887C14.8658 26.0128 14.9892 26.0051 15.0278 25.9588L16.3007 24.3619C16.3701 24.2848 16.1849 24.2462 16.0229 24.2462H15.1204C15.0818 24.2462 15.0432 24.2153 15.0432 24.1691C15.0432 24.1305 15.0741 24.0919 15.1204 24.0919H16.2312C16.3778 24.0919 16.5089 24.0919 16.5707 24.0302L17.0412 23.4362C17.1184 23.3359 17.2187 23.2588 17.3729 23.2588H18.6921C18.9081 23.2588 18.9621 23.3976 18.9312 23.6059L18.0595 30.1708C18.0364 30.6413 18.3912 30.5873 18.5687 30.3405L21.0295 25.8585C21.1298 25.6656 20.9909 25.6116 20.8212 25.6116H20.1887C20.1501 25.6116 20.1115 25.5808 20.1115 25.5345C20.1115 25.4959 20.1424 25.4573 20.1887 25.4573H20.8212C21.0372 25.4573 21.2378 25.4419 21.3304 25.2953L22.0709 23.9608C22.1249 23.8451 22.0478 23.6522 21.8549 23.6522C21.3767 23.6522 21.3767 23.2742 21.8781 23.2742H24.5472C25.0487 23.2742 24.9175 23.6599 24.6244 23.6599C24.4624 23.6599 24.3235 23.8913 24.2695 23.9993L20.9369 29.9162C20.8675 30.0628 20.8598 30.3868 20.9215 30.5719ZM14.9044 30.9191C15.3904 30.7879 15.7838 30.5333 15.8532 30.1399L16.2081 28.0956H13.8784L12.4744 29.9625C12.3355 30.1631 12.4281 30.4176 12.4667 30.4871C12.6132 30.7262 12.8292 30.8342 13.0221 30.8419C13.3152 30.8496 13.4464 31.2276 12.9449 31.2276H9.28066L8.31638 33.0251C8.1698 33.2411 8.40895 33.3259 8.63266 33.3259H9.36552C11.8423 33.3259 12.5322 32.5091 13.966 30.8115C14.1086 30.6426 14.2586 30.4651 14.4184 30.2788C14.6807 29.9779 14.9198 30.0936 14.8118 30.3019L14.3952 31.0502L14.9044 30.9191ZM14.1021 27.7871H16.3778L16.9795 23.9916L14.1021 27.7871ZM28.7129 30.9113C30.0861 30.9113 30.8421 30.3559 32.1921 28.7205C32.4235 28.4505 32.8324 28.4273 32.6472 28.7359L31.3512 30.9731C31.2587 31.0965 31.1352 31.2199 30.8421 31.2199H23.6909C23.4055 31.2199 23.2358 31.0965 23.1818 30.8342L22.4412 27.3936L26.1132 24.4776C26.4604 24.2076 26.4758 23.6522 26.0901 23.6522C25.6118 23.6522 25.6349 23.2665 26.1364 23.2665H34.7841C35.0232 23.2665 35.2392 23.4671 35.1389 23.6753L33.8661 26.1902H33.5035C33.7581 24.3928 33.3492 23.6445 32.4698 23.5905H31.7678L30.0321 26.8999H30.3098C30.3305 26.8999 30.3529 26.9002 30.3768 26.9005C30.7535 26.9051 31.513 26.9144 32.2384 25.9279C32.3387 25.7968 32.5315 25.8353 32.4544 26.0051L30.9115 28.7128C30.8267 28.8053 30.7495 28.7976 30.7804 28.6896C30.9655 27.8951 31.0658 27.3165 30.3715 27.3165H29.7544L28.1344 30.5796C28.0032 30.8111 28.2501 30.9113 28.7129 30.9113ZM26.5838 27.1468L27.2164 27.1545C27.4478 27.1545 27.7255 27.1313 27.7949 27.0233L29.1295 24.4776C29.1989 24.3619 29.0061 24.3619 28.8518 24.3619H28.4969C28.4584 24.3619 28.4198 24.3311 28.4198 24.2848C28.4198 24.2462 28.4507 24.2076 28.4969 24.2076H28.8595C29.0447 24.2076 29.2761 24.1999 29.3455 24.0765L29.4535 23.8605C29.5461 23.6291 29.4149 23.4516 29.0292 23.4516H28.4044C28.1189 23.4439 27.5712 23.8451 27.2858 24.0919L24.4084 26.3213L25.2261 30.5488C25.2955 30.8496 25.7275 30.9499 25.9358 30.5719L27.5867 27.4168C27.6407 27.3242 27.4401 27.2933 27.2241 27.2933L26.5838 27.3011C26.5452 27.3011 26.5067 27.2625 26.5067 27.2239C26.5067 27.1853 26.5375 27.1468 26.5838 27.1468ZM50.9918 28.9596C50.9532 28.7745 50.8838 28.8902 50.7604 29.1216C50.7218 29.1911 50.6061 29.1988 50.4827 29.1988H50.1201C50.0738 29.1988 50.0429 29.2373 50.0429 29.2759C50.0429 29.3222 50.0815 29.3531 50.1201 29.3531H50.4827C50.6215 29.3531 50.6215 29.4456 50.5598 29.5845C50.3052 30.1245 50.0507 30.4793 49.7035 30.9113C49.6495 30.9808 49.5107 31.0348 49.4027 31.0348H49.0324C48.9861 31.0348 48.9552 31.0733 48.9552 31.1119C48.9552 31.1582 48.9938 31.1891 49.0324 31.1891H49.3949C49.528 31.1891 49.4615 31.2498 49.407 31.2996C49.3887 31.3163 49.3718 31.3318 49.3641 31.3433C48.7238 32.1919 48.2841 32.5776 47.8135 32.9556C47.7701 32.9928 47.592 32.9902 47.4276 32.9877C47.3876 32.9871 47.3484 32.9865 47.3121 32.9865H46.9495C46.9032 32.9865 46.8724 33.0251 46.8724 33.0636C46.8724 33.1099 46.9109 33.1408 46.9495 33.1408H47.3044C47.5461 33.1408 47.4106 33.2645 47.3519 33.318L47.3407 33.3284L47.3352 33.3336C46.3401 34.1591 44.8589 34.4291 44.1801 34.3442C41.9815 34.0665 41.5264 32.4002 41.3644 31.7291C41.3501 31.6647 41.3192 31.5688 41.2863 31.4668C41.2483 31.3488 41.2076 31.2225 41.1869 31.1273C41.1175 30.7802 42.1127 30.6799 42.3827 30.8651C42.7992 31.1428 43.7712 31.4282 44.5349 31.4282C45.2369 31.4282 46.6872 30.9191 47.1038 29.7079C47.5281 28.4659 46.4558 27.0928 45.9775 26.6145C45.3681 26.0051 44.7972 25.0408 45.0441 24.3388C45.2292 23.8065 45.5301 23.5596 46.1858 23.5596C47.0267 23.5596 47.6438 24.0996 47.6438 24.8711C47.6438 24.9405 47.5975 25.0176 47.5435 25.0176H47.2427C47.1964 25.0176 47.1655 25.0562 47.1655 25.0948C47.1655 25.1411 47.2041 25.1719 47.2427 25.1719H47.5204C47.5975 25.1719 47.6515 25.2336 47.6284 25.3262C47.6048 25.4375 47.5885 25.5356 47.5726 25.632V25.632L47.5725 25.6322C47.552 25.7561 47.5319 25.8773 47.4972 26.0205C47.4664 26.1671 47.6824 26.2751 47.7595 26.1671L49.0864 23.8065C49.179 23.6291 48.9707 23.5828 48.8087 23.6368C48.4461 23.7602 47.8598 23.8528 47.6515 23.6985C47.1578 23.3436 46.7027 23.1122 46.0161 23.1122C44.8435 23.1122 44.0181 23.4053 43.4858 24.3696C43.4472 24.4468 43.3315 24.4468 43.2312 24.4468H43.0075C42.9612 24.4468 42.9304 24.4853 42.9304 24.5239C42.9304 24.5702 42.9689 24.6011 43.0075 24.6011H43.2004C43.2852 24.6011 43.3392 24.6242 43.3007 24.7168C43.2621 24.8016 43.2312 24.8942 43.2004 24.9945C43.0692 25.4111 43.1078 26.0051 43.3161 26.5219C43.3315 26.5528 43.2852 26.5759 43.2081 26.5759H42.8455C42.7992 26.5759 42.7684 26.6145 42.7684 26.6531C42.7684 26.6916 42.8069 26.7302 42.8455 26.7302H43.2081C43.3701 26.7302 43.4087 26.7456 43.4781 26.8459C43.5877 27.0011 43.6999 27.1321 43.8229 27.2754L43.8229 27.2755L43.823 27.2756L43.8231 27.2756C43.9078 27.3744 43.9977 27.4792 44.0952 27.6019C44.1724 27.6945 43.8484 27.7253 43.6787 27.7253H42.2515C42.2052 27.7253 42.1744 27.7639 42.1744 27.8025C42.1744 27.8488 42.2129 27.8796 42.2515 27.8796H43.6941C43.9255 27.8796 44.3267 27.8796 44.3652 27.9259C44.7124 28.3271 45.1367 28.9519 45.2061 29.4765C45.2292 29.6231 45.1675 29.6925 44.9824 29.6925H44.7895C44.7432 29.6925 44.7124 29.7311 44.7124 29.7696C44.7124 29.8159 44.7509 29.8468 44.7895 29.8468H44.9592C45.1058 29.8468 45.1829 29.8699 45.1521 29.9779C44.9669 30.5796 44.6815 31.0116 43.5398 31.0039C42.3441 30.9962 42.0972 29.8236 42.4521 28.5971C42.5215 28.3502 42.4521 28.2499 42.3364 28.4428L41.5032 29.7542C41.4801 29.7851 41.403 29.8622 41.2718 29.8622H41.1561C41.1098 29.8622 41.0789 29.9008 41.0789 29.9393C41.0789 29.9856 41.1175 30.0165 41.1638 30.0165C41.2718 30.0165 41.3104 30.0705 41.2718 30.1322L40.9632 30.6105C40.4618 29.4611 39.6132 28.0416 39.1658 27.5248L39.1735 27.5016C40.2844 27.4322 41.9275 26.3908 42.1898 25.4651C42.6527 23.8528 41.0867 23.2511 40.2304 23.2511H36.4735C35.9721 23.2511 35.9412 23.6291 36.4195 23.6291C36.6818 23.6291 36.9055 23.8528 36.7898 24.0842L35.9567 25.5808C35.8912 25.6972 35.6608 25.6969 35.3498 25.6965L35.2932 25.6965H34.9307C34.8844 25.6965 34.8535 25.7351 34.8535 25.7736C34.8535 25.8199 34.8921 25.8508 34.9307 25.8508H35.2855C35.5247 25.8508 35.7869 25.8662 35.7021 26.0359L34.7147 27.8102C34.6684 27.8951 34.5372 27.9028 34.2055 27.9028H33.8429C33.7967 27.9028 33.7658 27.9413 33.7658 27.9799C33.7658 28.0262 33.8044 28.0571 33.8429 28.0571H34.1978C34.4601 28.0571 34.5604 28.0956 34.4832 28.2268L33.1718 30.6028C33.0175 30.7725 32.8247 30.8033 32.5084 30.8033C32.0301 30.8033 32.0378 31.1813 32.5315 31.1813H35.7484C36.2498 31.1813 36.1187 30.7956 35.8255 30.7956C35.6558 30.7956 35.4707 30.4793 35.5864 30.2865L37.2295 27.1776H37.3992C38.1321 27.1776 38.3095 28.3733 38.4407 29.6848C38.4484 29.7773 38.271 29.7851 37.9084 29.7851H36.9981C36.9518 29.7851 36.9209 29.8236 36.9209 29.8622C36.9209 29.9085 36.9595 29.9393 36.9981 29.9393H37.9007C38.1398 29.9393 38.4715 29.9393 38.4869 30.0165L38.5082 30.2151C38.5604 30.7063 38.6076 31.1509 38.7029 31.5593C38.73 31.6879 38.5374 31.6859 38.3074 31.6835L38.3069 31.6835C38.2749 31.6831 38.2422 31.6828 38.2092 31.6828H37.0444C36.9981 31.6828 36.9672 31.7213 36.9672 31.7599C36.9672 31.8062 37.0058 31.8371 37.0444 31.8371H38.2092C38.5718 31.8371 38.7647 31.8371 38.7801 31.9142C39.2815 33.7502 41.4261 35.1928 43.5167 35.1156C45.3064 35.0462 46.8184 34.0742 47.5975 33.4493C48.6235 32.6239 50.1432 30.8959 50.7527 29.6308L50.7732 29.5936L50.7884 29.5666C50.8854 29.3938 51.0259 29.1436 50.9918 28.9596ZM38.9498 26.5142C38.6952 26.7225 38.3018 26.9539 38.2247 26.8845C38.1167 26.7765 37.785 26.5528 37.6075 26.4679L39.0964 23.7448C39.1581 23.6522 39.2275 23.5982 39.3895 23.5982C39.9681 23.5982 40.1609 24.2308 39.8909 25.0099C39.7058 25.5576 39.3972 26.1516 38.9498 26.5142ZM19.6872 21.3456C20.1347 21.3456 20.5358 21.2531 20.8367 20.8596C20.8984 20.7825 21.0141 20.7902 20.9601 20.8673L20.5589 21.4845C20.5204 21.5462 20.4818 21.6002 20.3275 21.6002H18.3372C18.2138 21.6002 18.2909 21.4073 18.3912 21.3765L18.4059 21.3728C18.4919 21.3515 18.5634 21.3338 18.6072 21.2608L19.3169 19.8645C19.3632 19.7642 19.3478 19.6485 19.2398 19.6485C19.1395 19.6485 19.1781 19.4479 19.2861 19.4479H20.5358C20.6669 19.4479 20.6824 19.6485 20.5821 19.6485C20.4818 19.6485 20.3969 19.7102 20.3584 19.7796L19.5638 21.3456H19.6872ZM40.8244 19.7565L40.6547 20.0728C40.6238 20.1345 40.4772 20.0959 40.4618 20.0419C40.3847 19.8336 40.1455 19.6331 39.8678 19.6331H39.4204L39.0192 20.4276H39.0887C39.1063 20.4276 39.131 20.4287 39.161 20.43C39.3409 20.438 39.7058 20.4541 39.7984 20.2888C39.8369 20.2271 39.9604 20.2425 39.9141 20.3273L39.6364 20.8751C39.5901 20.9445 39.4898 20.9136 39.4744 20.8751C39.4127 20.7208 39.1735 20.7208 38.9652 20.7208H38.8958L38.5718 21.4382H38.8418L38.8751 21.4382C39.188 21.4388 39.6043 21.4395 39.9989 21.0448C40.0452 20.9985 40.2149 20.9985 40.1378 21.0988L39.8138 21.5231C39.7829 21.5771 39.7367 21.6079 39.6441 21.6079H37.2912C37.1215 21.6079 37.1601 21.4305 37.2835 21.4305C37.4378 21.4305 37.5072 21.3765 37.6075 21.2531L38.3095 19.9648C38.4021 19.8182 38.3558 19.6331 38.2092 19.6331C38.1398 19.6331 38.0858 19.4556 38.2555 19.4556H40.5775C40.7781 19.4556 40.9015 19.6176 40.8244 19.7565ZM34.7069 19.4479H33.8815C33.7118 19.4479 33.7658 19.6253 33.8352 19.6253C34.0127 19.6253 34.1747 19.8336 34.0744 20.0265L33.7349 20.6513L32.9789 19.5482C32.9249 19.4788 32.8092 19.4479 32.7089 19.4479H31.8912C31.7215 19.4479 31.7601 19.6176 31.8295 19.6176C31.9992 19.6176 31.9607 19.7488 31.9144 19.8413L31.2664 21.0911C31.2278 21.1913 31.0504 21.2068 30.9964 21.0756L30.4949 19.4402C30.4718 19.3785 30.1787 19.3785 30.1092 19.4402L28.8518 20.4739H28.2038C28.0727 20.4739 28.0264 20.5279 28.0264 20.5973C28.0264 20.6668 28.0727 20.7285 28.2115 20.7285H28.5509L28.2115 21.0062C28.1571 21.0454 28.1027 21.0889 28.0498 21.1311C27.9154 21.2385 27.791 21.3379 27.7024 21.3379H27.6252C27.5018 21.3379 27.4324 21.3611 27.4324 21.4536C27.4324 21.5539 27.4864 21.5848 27.6021 21.5848H28.6204C28.8132 21.5848 28.7747 21.3379 28.6821 21.3379C28.5741 21.3379 28.4044 21.2068 28.5664 21.0139L28.8749 20.7208H29.4844C29.8469 20.7208 30.1015 21.1373 29.8855 21.2685L29.7158 21.3611C29.6387 21.3996 29.6001 21.5848 29.7158 21.5848H31.6984C31.8449 21.5848 31.8141 21.3919 31.7447 21.3919C31.5441 21.3919 31.6367 21.0988 31.6752 21.0216L32.1998 20.0342L32.9327 21.4536C32.9789 21.5385 33.0252 21.5848 33.1101 21.5848H33.3878C33.47 21.5848 33.4975 21.5422 33.535 21.4841L33.5498 21.4613L34.3829 19.9571C34.5141 19.6871 34.6221 19.6099 34.7918 19.6099C34.8227 19.6253 34.8767 19.4479 34.7069 19.4479ZM29.1604 20.4816L29.9318 19.8491V20.4816H29.1604ZM21.3998 20.4276C21.5387 19.7025 22.2638 19.3553 22.9581 19.3553C23.6678 19.3553 24.1924 19.8336 24.0612 20.5356C23.9224 21.2376 23.2358 21.7236 22.4952 21.7236C21.7161 21.7236 21.2764 21.0679 21.3998 20.4276ZM22.3332 21.2839C22.5647 21.3996 22.9349 21.1373 23.1587 20.6976C23.3747 20.2579 23.3669 19.8028 23.1355 19.6871C22.9041 19.5713 22.5338 19.8336 22.3101 20.2733C22.0864 20.7131 22.0941 21.1682 22.3332 21.2839ZM37.0675 20.4276H36.1727C36.0029 20.4276 36.0569 20.6051 36.1264 20.6051C36.1958 20.6051 36.2652 20.6436 36.2652 20.7516C36.2652 21.1142 36.1109 21.2531 35.8024 21.2531C35.4629 21.2531 35.3395 20.8365 35.5709 20.3351C35.7175 20.0111 36.1032 19.7102 36.5661 19.7102C36.8515 19.7102 37.0829 19.7719 37.1215 20.0342C37.1292 20.0959 37.2295 20.0959 37.2604 20.0342L37.4764 19.6562C37.4995 19.6176 37.4609 19.5636 37.3992 19.5636C37.3831 19.5636 37.3609 19.5698 37.3356 19.5768C37.2758 19.5934 37.1988 19.6147 37.1447 19.5713C36.9672 19.4402 36.5738 19.3091 36.2807 19.3091C35.8024 19.3091 35.1312 19.4171 34.6761 20.2039C34.2672 20.9136 34.8612 21.6696 35.4167 21.6696C35.6568 21.6696 35.925 21.5341 36.1303 21.4304L36.1303 21.4304L36.1305 21.4303C36.1889 21.4008 36.2422 21.3738 36.2884 21.3533L36.5198 21.5076C36.5507 21.5462 36.6278 21.6002 36.6972 21.6002H36.7821C36.8478 21.6002 36.8799 21.5219 36.907 21.4558C36.9118 21.4443 36.9164 21.4331 36.9209 21.4228L37.2758 20.5742C37.2835 20.4893 37.2604 20.4276 37.0675 20.4276ZM49.0787 19.5096C49.1404 19.5636 49.2792 19.5405 49.3409 19.5096C49.3795 19.4865 49.4875 19.5405 49.4489 19.6022L49.3024 19.9493C49.2638 20.0111 49.1789 19.9956 49.1635 19.9262C49.1327 19.7642 48.8858 19.5791 48.6929 19.5482C48.5927 19.5328 48.3921 19.5019 48.3227 19.6408C48.2224 19.8491 48.4152 20.0419 48.6467 20.1499C49.0787 20.3582 49.2252 20.7285 48.9861 21.0988C48.7238 21.5076 48.4152 21.6311 47.9369 21.6311C47.7209 21.6388 47.3584 21.4691 47.2195 21.3765C47.1115 21.3148 46.9032 21.3379 46.8107 21.4382C46.7644 21.4922 46.6487 21.4073 46.6949 21.3302L46.9804 20.7671C47.0112 20.7131 47.1347 20.6899 47.1501 20.7902C47.2041 21.1065 47.5358 21.2762 47.7595 21.2762C47.9215 21.2839 48.1067 21.2608 48.1761 21.1065C48.2665 20.8955 48.0404 20.7875 47.8645 20.7036L47.8521 20.6976C47.4432 20.5048 47.2581 20.1885 47.4355 19.8105C47.6361 19.3708 47.9755 19.2782 48.4461 19.2782C48.6081 19.2782 48.9167 19.3785 49.0787 19.5096ZM43.1078 20.8596C42.8069 21.2531 42.4058 21.3456 41.9584 21.3456H41.8349L42.6295 19.7796C42.6681 19.7102 42.7529 19.6485 42.8532 19.6485C42.9535 19.6485 42.9381 19.4479 42.8069 19.4479H41.5572C41.4492 19.4479 41.4107 19.6485 41.5109 19.6485C41.6189 19.6485 41.6344 19.7642 41.5881 19.8645L40.8784 21.2608C40.8346 21.3338 40.7631 21.3515 40.677 21.3728L40.6624 21.3765C40.5621 21.4073 40.4849 21.6002 40.6084 21.6002H42.5987C42.7529 21.6002 42.7915 21.5462 42.8301 21.4845L43.2312 20.8673C43.2852 20.7902 43.1695 20.7825 43.1078 20.8596ZM46.7104 20.0419C46.6332 19.8336 46.3941 19.6331 46.1164 19.6331H45.6689L45.2678 20.4276H45.3372C45.3548 20.4276 45.3796 20.4287 45.4095 20.43C45.5895 20.438 45.9543 20.4541 46.0469 20.2888C46.0855 20.2348 46.2089 20.2425 46.1627 20.3273L45.8849 20.8751C45.8387 20.9445 45.7384 20.9136 45.7229 20.8751C45.6612 20.7208 45.4221 20.7208 45.2138 20.7208H45.1444L44.8204 21.4382H45.0904L45.1237 21.4382C45.4366 21.4388 45.8528 21.4395 46.2475 21.0448C46.2938 20.9985 46.4635 20.9985 46.3864 21.0988L46.0624 21.5231C46.0315 21.5771 45.9852 21.6079 45.8927 21.6079H43.5398C43.3701 21.6079 43.4164 21.4305 43.5321 21.4305C43.6864 21.4305 43.7481 21.3765 43.8561 21.2531L44.5581 19.9648C44.6507 19.8182 44.6044 19.6331 44.4578 19.6331C44.3884 19.6331 44.3344 19.4556 44.5041 19.4556H46.8338C47.0344 19.4556 47.1578 19.6176 47.0807 19.7565L46.9109 20.0728C46.8801 20.1345 46.7258 20.0959 46.7104 20.0419ZM38.1409 34.8994C38.1117 34.9514 38.08 35.008 38.0472 35.0693C36.7204 37.5148 34.0358 39.9756 30.9501 41.1713C27.4169 42.5445 23.4672 42.6293 19.8415 41.0093C16.7327 39.6208 14.3027 37.0905 13.3075 35.3008C13.1841 35.0848 13.0915 34.8765 13.1687 34.8225C13.3219 34.718 13.45 34.928 13.5586 35.106L13.5586 35.1061C13.5703 35.1252 13.5817 35.144 13.5929 35.1619C14.2795 36.2651 15.6372 37.7693 17.2264 38.9496C19.0624 40.3228 20.9987 41.0711 22.5955 41.4028C22.0864 40.7856 20.3429 38.5253 19.3632 36.5968C18.4452 34.7762 18.0132 33.4956 17.7432 32.5931L17.7159 32.5062C17.6201 32.2028 17.5501 31.981 17.7124 31.9528C17.8821 31.9219 17.9747 32.1611 18.0441 32.4851C18.1907 33.1716 18.7769 34.7839 19.6641 36.5351C20.4201 38.0239 22.3949 40.8165 23.2667 41.5185C24.0072 41.6882 25.4807 41.7268 26.7304 41.6882C28.1344 41.6419 30.1478 41.0788 30.6415 40.8319C30.6125 40.7305 30.2416 39.5671 29.7868 38.1411L29.7867 38.1406L29.7863 38.1394C29.0309 35.7704 28.0446 32.6777 28.0109 32.5236C27.9998 32.4726 27.988 32.4255 27.9772 32.3826C27.9358 32.2179 27.9099 32.1145 27.9955 32.0839C28.0881 32.0531 28.1575 32.1379 28.2424 32.4156C28.2964 32.6008 30.3947 39.1888 30.9424 40.7316C31.5904 40.5156 33.4495 39.6593 35.0618 38.1859C36.5198 36.8591 37.1601 36.0105 37.7541 34.9845C37.7887 34.9268 37.8217 34.8686 37.8534 34.8126C37.9914 34.5691 38.1055 34.3678 38.2247 34.4368C38.358 34.513 38.277 34.6572 38.1409 34.8994Z" fill="#F0F0F0"/>
</svg>
