<svg width="2769" height="315" viewBox="0 0 2769 315" fill="none" xmlns="http://www.w3.org/2000/svg">
<path d="M407.641 315H501.663C509.087 304.687 516.717 296.154 524.551 289.4C540.018 275.533 553.085 268.066 563.751 267C572.285 266.466 579.218 268.333 584.551 272.6C589.885 276.866 593.618 281.666 595.751 287L597.351 296.6C597.885 299.266 597.618 303.266 596.551 308.6C596.345 310.454 596.02 312.588 595.575 315H686.111C687.333 312.172 688.68 308.972 690.151 305.4C694.418 296.333 698.951 287.266 703.751 278.2C708.551 269.133 713.618 261.133 718.951 254.2C724.818 247.266 730.151 243.8 734.951 243.8C740.285 243.8 740.551 241.4 735.751 236.6C731.485 231.8 724.285 227.8 714.151 224.6C704.018 220.866 692.551 219.266 679.751 219.8C666.951 220.333 655.218 225.933 644.551 236.6C640.818 240.866 637.085 245.933 633.351 251.8C629.618 257.666 625.618 264.6 621.351 272.6L615.751 260.6C610.418 248.333 601.885 238.733 590.151 231.8C578.951 224.333 565.885 220.066 550.951 219C536.018 217.933 520.018 220.333 502.951 226.2C486.418 231.533 470.151 240.866 454.151 254.2C445.618 261.133 437.618 269.933 430.151 280.6C422.685 290.733 415.485 301.666 408.551 313.4C408.247 313.932 407.944 314.465 407.641 315Z" fill="#DBCCB8"/>
<path d="M119.133 315C130.056 290.076 139.955 268.476 148.833 250.2C157.899 231 166.433 214.466 174.433 200.6C182.966 186.2 190.966 173.666 198.433 163C206.433 152.333 214.699 142.2 223.233 132.6C246.166 106.466 267.766 89.9329 288.033 82.9995C308.299 76.0662 322.699 76.3329 331.233 83.7996C347.766 99.2662 349.899 125.4 337.633 162.2C332.299 178.2 326.433 189.4 320.033 195.8C314.166 201.666 309.899 204.866 307.233 205.4C305.633 205.933 303.766 206.733 301.633 207.8C299.499 208.866 297.633 210.2 296.033 211.8C294.433 213.4 293.366 215.266 292.833 217.4C292.833 219 294.166 220.866 296.833 223C302.166 226.733 308.566 229.666 316.033 231.8C323.499 233.4 330.966 233.666 338.433 232.6C346.433 231.533 354.433 228.6 362.433 223.8C370.433 219 377.899 212.066 384.833 203C393.899 190.733 400.033 177.666 403.233 163.8C406.433 149.933 408.033 136.866 408.033 124.6C408.566 111.8 408.033 100.866 406.433 91.7996C404.833 82.1996 403.499 75.7996 402.433 72.5996C392.299 42.1995 376.299 22.7329 354.433 14.1996C332.566 5.13288 306.433 2.19954 276.033 5.39953C256.299 7.53287 236.033 14.4662 215.233 26.1995C194.433 37.9329 172.833 54.9996 150.433 77.3996C123.233 105.133 99.2327 135 78.4327 167C57.6327 199 38.6993 231.8 21.6327 265.4C14.0272 282.328 7.09885 298.861 0.847656 315H119.133Z" fill="#DBCCB8"/>
<path d="M850.931 315C857.076 303.208 860.671 296.008 861.714 293.4C865.447 284.333 869.181 276.6 872.914 270.2C877.181 263.266 879.047 259.533 878.514 259L817.714 255C813.981 266.2 808.114 280.866 800.114 299C797.901 304.216 795.594 309.549 793.194 315H759.973L764.914 303L769.714 291L787.314 243C781.447 237.666 777.447 231.8 775.314 225.4C773.714 219 773.181 212.333 773.714 205.4C775.314 192.066 779.847 182.733 787.314 177.4C794.781 171.533 800.647 168.066 804.914 167C817.714 164.333 827.314 166.2 833.714 172.6C840.114 179 841.181 189.133 836.914 203L827.314 225.4C827.847 225.4 829.181 225.933 831.314 227C833.981 228.066 837.714 229.133 842.514 230.2C847.847 230.733 854.514 231.266 862.514 231.8C871.047 232.333 881.447 232.066 893.714 231C905.447 229.933 915.847 228.333 924.914 226.2C933.981 224.066 941.714 222.2 948.114 220.6C954.514 219 959.847 218.2 964.114 218.2C968.381 217.666 971.847 218.733 974.514 221.4C979.314 227.266 977.981 236.066 970.514 247.8C963.581 259.533 955.314 275 945.714 294.2C942.428 301.056 939.2 307.99 936.029 315H850.931Z" fill="#DBCCB8"/>
<path d="M1456.38 315V303C1456.92 296.6 1458.52 289.666 1461.18 282.2C1456.92 288.066 1452.65 295.266 1448.38 303.8C1446.45 307.423 1444.46 311.157 1442.42 315H1415.05C1424.29 296.263 1433.54 279.729 1442.78 265.4C1455.05 246.2 1470.52 231.8 1489.18 222.2C1507.85 212.6 1525.18 206.733 1541.18 204.6C1557.72 202.466 1572.12 201.666 1584.38 202.2C1596.65 202.2 1607.32 207.266 1616.38 217.4C1619.05 220.6 1620.92 225.133 1621.98 231C1623.05 236.333 1623.58 241.4 1623.58 246.2C1623.58 250.466 1623.05 253.933 1621.98 256.6C1620.92 258.733 1619.58 258.466 1617.98 255.8C1616.38 253.666 1613.18 252.6 1608.38 252.6C1604.12 252.066 1598.78 252.6 1592.38 254.2C1586.52 255.8 1580.38 258.2 1573.98 261.4C1567.58 264.066 1561.98 267.266 1557.18 271C1552.92 274.733 1548.92 279 1545.18 283.8C1541.45 288.6 1538.52 295.533 1536.38 304.6C1535.8 307.683 1535.37 311.15 1535.07 315H1456.38Z" fill="#DBCCB8"/>
<path d="M1811.91 315C1812.79 312.868 1813.67 310.735 1814.57 308.6C1812.68 310.494 1810.63 312.627 1808.44 315H1772.39C1788.82 293.787 1807.15 273.52 1827.37 254.2C1836.44 245.133 1846.04 236.6 1856.17 228.6C1866.84 220.066 1878.57 213.666 1891.37 209.4C1898.84 207.8 1904.44 208.066 1908.17 210.2C1911.9 212.333 1916.44 216.333 1921.77 222.2C1923.9 224.866 1925.77 227.533 1927.37 230.2C1928.97 232.333 1929.5 235.266 1928.97 239C1928.97 242.2 1927.64 246.466 1924.97 251.8C1922.3 257.133 1918.04 264.066 1912.17 272.6C1904.17 284.866 1896.44 298.733 1888.97 314.2C1888.85 314.466 1888.72 314.733 1888.6 315H1811.91Z" fill="#DBCCB8"/>
<path d="M2747.22 315C2753.06 302.665 2757.5 292.265 2760.55 283.8C2765.88 270.466 2768.55 257.666 2768.55 245.4C2768.55 234.2 2765.88 225.666 2760.55 219.8C2755.75 213.4 2749.62 209.133 2742.15 207C2734.68 204.333 2726.15 203.8 2716.55 205.4C2706.95 207 2697.88 209.933 2689.35 214.2C2676.55 220.6 2662.42 232.866 2646.95 251C2634.16 266.073 2622.94 287.407 2613.28 315H2639.47C2639.56 314.733 2639.66 314.467 2639.75 314.2C2644.55 301.4 2649.88 289.666 2655.75 279C2661.62 267.8 2667.48 258.466 2673.35 251C2679.75 243.533 2685.35 237.933 2690.15 234.2C2695.48 229.933 2699.48 228.333 2702.15 229.4C2709.08 231.533 2712.28 239.533 2711.75 253.4C2711.22 266.733 2704.82 284.866 2692.55 307.8C2691.41 309.894 2690.1 312.294 2688.61 315H2747.22Z" fill="#DBCCB8"/>
<path d="M2566.65 315C2568.05 311.737 2569.48 308.536 2570.95 305.4C2578.95 288.333 2587.75 275.266 2597.35 266.2C2602.15 261.933 2601.62 257.933 2595.75 254.2C2590.42 250.466 2582.68 248.6 2572.55 248.6C2562.42 248.6 2551.48 251 2539.75 255.8C2528.02 260.066 2518.15 268.333 2510.15 280.6C2504.82 288.066 2500.02 296.066 2495.75 304.6C2494.2 307.504 2492.48 310.971 2490.58 315H2566.65Z" fill="#DBCCB8"/>
<path d="M2392.36 315C2396.96 305.255 2401.56 295.922 2406.15 287C2416.82 266.733 2425.08 251.266 2430.95 240.6C2437.35 229.4 2443.48 222.2 2449.35 219C2455.22 215.8 2455.22 212.333 2449.35 208.6C2443.48 204.333 2434.95 201.666 2423.75 200.6C2413.08 199.533 2401.08 200.6 2387.75 203.8C2374.42 207 2363.22 214.2 2354.15 225.4C2350.95 230.2 2346.95 237.133 2342.15 246.2C2337.35 254.733 2332.28 264.6 2326.95 275.8C2322.15 287 2317.08 299 2311.75 311.8C2311.29 312.866 2310.83 313.933 2310.37 315H2392.36Z" fill="#DBCCB8"/>
<path d="M2237.38 315C2238.73 304.683 2239.4 294.817 2239.4 285.4C2239.4 263.533 2235.67 246.2 2228.2 233.4C2220.73 220.6 2211.4 211.266 2200.2 205.4C2189 199.533 2176.47 196.6 2162.6 196.6C2149.27 196.066 2136.47 196.866 2124.2 199C2118.87 200.066 2112.47 202.466 2105 206.2C2097.53 209.4 2089.8 213.933 2081.8 219.8C2074.33 225.666 2066.87 232.866 2059.4 241.4C2051.93 249.4 2045.53 258.733 2040.2 269.4C2039.13 270.466 2037.8 271.266 2036.2 271.8C2035.13 271.8 2034.07 272.333 2033 273.4C2022.87 279.8 2013 289.133 2003.4 301.4C2000.1 305.43 1996.81 309.963 1993.51 315H2081.2C2084 307.617 2086.07 302.817 2087.4 300.6C2093.27 295.8 2099.13 293.4 2105 293.4C2110.87 292.866 2115.93 293.133 2120.2 294.2C2120.2 292.6 2119.4 289.666 2117.8 285.4C2116.2 281.133 2113.8 276.866 2110.6 272.6C2115.93 268.333 2121.53 265.133 2127.4 263C2133.27 260.333 2139.13 259 2145 259C2161 259 2170.6 264.866 2173.8 276.6C2176.04 284.819 2175.67 297.619 2172.67 315H2237.38Z" fill="#DBCCB8"/>
<path d="M1739.88 315C1752.78 283.602 1765.67 253.202 1778.57 223.8C1792.44 192.866 1804.7 165.666 1815.37 142.2C1826.57 118.2 1835.64 98.9996 1842.57 84.5996C1849.5 69.6662 1852.97 61.9329 1852.97 61.3996C1859.9 47.5329 1865.5 37.6662 1869.77 31.7996C1874.57 25.9329 1879.37 22.4662 1884.17 21.3996C1889.5 20.8662 1889.24 18.4662 1883.37 14.1996C1877.5 9.39956 1868.97 5.66622 1857.77 2.99956C1847.1 0.332897 1835.1 0.0662335 1821.77 2.19957C1808.44 3.79955 1796.97 10.4662 1787.37 22.1996L1770.57 55.7995C1762.04 73.3995 1751.37 95.7995 1738.57 123C1725.77 150.2 1711.9 181.4 1696.97 216.6C1683.5 247.88 1670.24 280.68 1657.2 315H1739.88Z" fill="#DBCCB8"/>
<path d="M1322.67 315C1324.38 311.205 1326.19 307.205 1328.1 303C1333.43 290.733 1338.77 279.266 1344.1 268.6C1349.97 257.4 1355.3 247.8 1360.1 239.8C1365.43 231.8 1369.97 227.533 1373.7 227C1380.1 226.466 1380.9 223.8 1376.1 219C1371.3 214.2 1363.57 210.2 1352.9 207C1342.77 203.8 1331.03 202.733 1317.7 203.8C1304.37 204.333 1292.63 209.666 1282.5 219.8C1274.5 228.333 1265.7 243.266 1256.1 264.6C1249.27 279.779 1242.03 296.579 1234.39 315H1322.67Z" fill="#DBCCB8"/>
<path d="M1121.55 315C1132.07 290.114 1140.92 270.914 1148.1 257.4C1157.7 239.8 1166.23 229.666 1173.7 227C1180.1 224.866 1180.9 221.666 1176.1 217.4C1171.83 212.6 1164.63 208.866 1154.5 206.2C1144.37 203.533 1132.63 203 1119.3 204.6C1106.5 205.666 1094.5 210.733 1083.3 219.8C1077.43 225.666 1068.9 238.733 1057.7 259C1048.45 275.301 1039.2 293.967 1029.95 315H1121.55Z" fill="#DBCCB8"/>
</svg>
