<svg width="20" height="48" viewBox="0 0 20 48" fill="none" xmlns="http://www.w3.org/2000/svg">
<path d="M14.9778 42.4059C14.898 42.5931 14.7955 42.8337 15.2694 43.2505C15.2553 44.0512 15.1705 44.7368 15.098 45.3238C14.932 46.6657 14.8298 47.4922 15.7821 48C16.1046 47.9925 16.4179 47.948 16.7179 47.8707C17.9029 46.9638 17.4124 45.4822 17.041 44.3603C16.9692 44.1435 16.9018 43.9399 16.8519 43.7567C16.8309 43.6973 16.8665 43.6254 16.8933 43.5712L16.9002 43.5572L16.9054 43.5464C16.9945 43.3798 16.8129 43.0078 16.8129 43.0078C16.6825 42.8835 16.6134 42.4117 16.5499 41.9778C16.517 41.7536 16.4857 41.5396 16.4481 41.3888C16.331 40.9006 16.4994 40.1852 16.6313 39.6243C16.7023 39.3229 16.7627 39.0661 16.7627 38.9132C16.7627 38.4807 16.4481 37.8815 15.8644 37.1124C15.8067 37.0442 15.7013 36.364 15.5709 35.5226C15.386 34.3298 15.151 32.813 14.9304 32.2554C14.6828 31.6361 14.5154 31.3563 14.3429 31.0678C14.1515 30.7479 13.9538 30.4173 13.6332 29.6014C13.4298 29.1389 13.3782 28.5858 13.307 27.8221C13.2085 26.7655 13.0725 25.3058 12.4447 23.1254C12.4544 23.1389 12.6847 22.8898 12.6847 22.8898C12.6847 22.8898 11.8301 19.6367 11.5496 18.7447C11.2659 17.8511 10.7729 17.7871 10.7729 17.7871C10.7729 17.7871 10.7745 17.4253 10.7956 17.3327C10.8378 17.1863 11.8399 14.4666 11.9242 14.3825C11.9274 14.3202 13.377 13.3003 13.4046 13.4468C13.4238 13.5521 13.4539 13.7247 13.492 13.9429L13.4924 13.9448C13.6963 15.1123 14.1274 17.5799 14.324 18.0362C14.3899 18.1806 14.4971 18.4038 14.6264 18.6731C14.9838 19.4175 15.5102 20.5135 15.7995 21.2674C14.2932 21.6427 13.1841 23.048 13.1841 24.7225C13.1841 25.189 13.2726 25.6509 13.4447 26.0819C13.6167 26.5128 13.8689 26.9043 14.1867 27.2341C14.5046 27.5639 14.882 27.8254 15.2972 28.0038C15.7125 28.1821 16.1576 28.2738 16.607 28.2736C17.2931 28.2751 17.9638 28.0625 18.532 27.6633C19.1002 27.2641 19.5396 26.6969 19.7932 26.0352C20.0628 25.0147 20.075 24.4416 19.7932 23.4216C19.6862 23.1338 19.5435 22.8561 19.3522 22.5902C19.3522 22.2324 19.105 22.1183 18.8966 22.0222C18.7933 21.9745 18.6995 21.9313 18.6501 21.8649C18.6149 21.8225 18.6057 21.7845 18.5969 21.748C18.5704 21.6382 18.547 21.541 17.828 21.3718C17.6464 21.2658 17.5086 19.8066 17.5086 19.8066C17.3715 18.8956 17.0628 18.2595 16.6035 17.3129L16.5632 17.23C16.436 16.9615 16.3438 16.3937 16.2472 15.7984C16.1603 15.2633 16.0699 14.706 15.9471 14.3236C16.0914 10.616 14.9499 9.53895 14.024 8.93309C13.8716 8.832 13.7523 8.7424 13.6376 8.65622C13.4888 8.5444 13.3476 8.43834 13.1516 8.32049L13.1403 8.14883C12.8711 7.88461 12.3263 7.5985 11.8788 7.3915C11.741 7.2434 11.8074 6.93037 11.8999 6.81257C12.2031 6.76881 12.6068 6.06365 12.9392 5.33493C13.1646 5.35092 13.2619 5.15486 13.3364 5.0046C13.3482 4.9809 13.3595 4.95816 13.3705 4.93776C13.3971 4.89335 13.4239 4.84953 13.4503 4.80637C13.7009 4.39645 13.9156 4.04538 13.5635 3.80176C14.4423 2.17098 13.8781 1.06865 13.4046 1.02658C13.2116 0.619301 12.8776 0.363493 12.2874 0.144709C11.6318 -0.0427324 11.2585 -0.0536628 10.6424 0.144709C9.32186 0.640622 9.13542 1.20882 9.08581 3.00755C9.05331 3.01075 9.01555 3.00906 8.97526 3.00726C8.73989 2.99673 8.41825 2.98234 8.55555 3.91533C8.55555 3.91533 8.64449 4.64323 8.9387 4.51883C8.89646 4.8032 8.86776 5.0488 8.84295 5.26114C8.69999 6.48459 8.68598 6.60451 6.95449 6.67899L6.85528 6.8202C6.68394 6.83654 6.52253 6.84971 6.36956 6.86219C4.7128 6.99737 4.04597 7.05178 2.48316 10.179C2.48316 10.179 2.04184 11.2363 1.91184 11.6751C1.83915 11.8253 1.74853 12.0066 1.64677 12.2102C1.1595 13.1851 0.416655 14.6714 0.161971 15.6962C0.13845 15.7958 0.109349 15.8794 0.0823341 15.957C-0.00459757 16.2067 -0.0699625 16.3944 0.141444 16.8561C0.233665 17.0614 0.268083 17.2313 0.29623 17.3702C0.388162 17.8238 0.413196 17.9473 2.16671 17.8984V18.4128C2.16671 18.4128 1.55605 18.9289 1.42776 19.2449C1.29776 19.5542 0.948815 21.1109 0.962499 21.8388C0.985069 22.9411 1.51935 23.9405 2.06123 24.9541C2.46392 25.7073 2.87082 26.4684 3.075 27.2854L4.12527 27.4317C4.72738 28.7597 7.3137 32.3656 7.84225 32.8413C7.91771 33.0481 8.19986 33.2861 8.49504 33.5351C8.67486 33.6867 8.85975 33.8427 9.00542 33.9979C9.04607 34.0359 9.11237 34.1023 9.20171 34.1917C9.80774 34.7982 11.4735 36.4652 13.3861 37.5449C13.3822 37.5445 13.4082 37.6009 13.4516 37.695C13.5629 37.9367 13.7888 38.4273 13.9181 38.841C13.5005 39.1705 13.785 39.6572 14.1845 40.3408C14.4823 40.8502 14.8439 41.4689 15.0265 42.2132C15.0339 42.2743 15.0074 42.3364 14.9778 42.4059Z" fill="#F0F0F0"/>
</svg>
