<svg width="123" height="42" viewBox="0 0 123 42" fill="none" xmlns="http://www.w3.org/2000/svg">
<path d="M42.5716 12.957L42.5066 13.1786C42.4713 13.2974 42.4388 13.4163 42.4035 13.5325C42.3683 13.6487 42.3221 13.8026 42.2842 13.9323C42.2462 14.062 42.2055 14.1809 42.1676 14.3051L42.1025 14.5105C45.0801 13.9701 48.0124 13.4965 50.8996 13.0894C48.1288 12.879 45.3478 12.8348 42.5716 12.957ZM14.4638 19.5354L14.3444 19.3004C10.6513 20.838 7.09363 22.6806 3.70873 24.8089C7.06956 23.5968 10.5407 22.4378 14.1221 21.332C14.3282 20.9105 14.5315 20.4864 14.7404 20.0649L14.5343 19.6759C14.5099 19.63 14.4882 19.5813 14.4638 19.5354ZM26.7591 22.237C26.5882 21.8858 26.4879 21.748 26.3198 21.3968L26.0486 22.1343L24.85 23.0853L24.3808 23.3014L24.4025 23.4743C25.3355 23.4682 26.2653 23.3649 27.1767 23.1664C27.1767 22.8151 27.1767 22.445 27.155 22.0668L26.7591 22.237ZM29.5658 20.8538L29.3326 21.0969L27.8384 21.7507C27.8547 22.1776 27.8655 22.5882 27.8655 22.9826C28.7712 22.7557 29.5685 22.518 30.279 22.2694C30.339 21.7294 30.4442 21.1953 30.5936 20.6728C30.3694 20.7539 30.1391 20.8171 29.9048 20.8619C29.7919 20.8744 29.6779 20.8717 29.5658 20.8538ZM24.9205 14.3862L25.6581 13.6108L26.2384 13.4812C26.0649 12.3519 25.8886 11.3199 25.7394 10.5094C23.2107 10.8751 20.737 11.5502 18.3742 12.5194L18.4501 12.6788C18.8702 13.5263 19.3572 14.3394 19.9063 15.1102C20.1161 15.04 20.3276 14.9751 20.5409 14.9157C21.2641 14.7248 21.9809 14.5384 22.6914 14.3565C23.3531 14.1836 24.4025 13.8405 24.9205 14.3862ZM30.2519 23.0313C29.5387 23.2717 28.7468 23.4986 27.8574 23.7202C27.8574 24.0201 27.8574 25.7518 27.3665 26.7379C28.7484 26.3491 30.0541 25.7297 31.2281 24.9062C30.6044 24.6063 30.279 23.8282 30.2519 23.0178V23.0313ZM29.4031 12.8112L29.1319 13.5028L29.1048 13.573L29.9183 12.7085C30.7509 12.5464 31.5807 12.3951 32.4132 12.2465L32.2749 12.6626C32.6825 12.3364 33.1722 12.1281 33.6905 12.0601H33.761C33.8895 11.5361 33.9855 11.0047 34.0484 10.4689L33.6254 10.377C32.4977 10.2562 31.3643 10.1967 30.2302 10.1987C28.9613 10.1981 27.6936 10.2729 26.4337 10.423C26.5828 11.2334 26.7537 12.2276 26.9245 13.3326C27.7489 13.1516 28.5679 12.9787 29.4031 12.8112ZM22.3931 24.247C22.686 24.6072 22.987 24.9674 23.2961 25.3276C23.5822 25.0126 23.7382 24.6015 23.7327 24.1767C23.4019 24.1767 23.0439 24.1497 22.6697 24.1173L22.3931 24.247ZM17.7423 12.7976C17.4142 12.9381 17.0888 13.0867 16.7661 13.238C17.059 14.2673 17.4034 15.2723 17.7911 16.253H17.8074L17.9322 16.1422L17.962 16.1206C18.0705 16.0369 18.1816 15.9612 18.2955 15.8856H18.3172L18.4691 15.791L18.4935 15.7748C18.6101 15.7046 18.7294 15.6397 18.8487 15.5776H18.8732L19.0277 15.4992L19.0603 15.483L19.2392 15.3993C18.7043 14.6453 18.23 13.8504 17.821 13.0219L17.7423 12.7976ZM23.7625 25.822C23.9171 25.9922 24.0744 26.157 24.2344 26.3245L24.2859 26.3785C24.5381 26.6487 24.7957 26.8972 25.0561 27.1512C25.4574 27.1134 25.8696 27.0593 26.2438 26.9891C26.3394 26.9043 26.4299 26.8141 26.515 26.7189C26.5223 26.7045 26.5325 26.6916 26.5449 26.6811C26.9408 26.2786 27.136 25.252 27.1848 23.8607C26.2811 24.0501 25.3612 24.1523 24.4378 24.1659C24.4468 24.4748 24.3901 24.782 24.2714 25.0675C24.1527 25.3529 23.9746 25.6101 23.749 25.822H23.7625ZM34.7996 10.6472C34.7641 11.0727 34.7035 11.4958 34.6179 11.9142C35.1359 11.8332 35.6538 11.7575 36.1718 11.6819L35.5291 14.2349L34.4959 15.3155L35.3745 15.0454C35.0979 16.1422 34.8267 17.2229 34.5284 18.3035L33.4057 19.4787C32.9339 19.6732 32.1529 20.046 31.4017 20.3594C31.2231 20.8962 31.0835 21.4452 30.9841 22.002C33.5549 20.9727 34.8728 19.6624 36.3019 17.4093C36.7941 15.2963 36.7409 13.0935 36.1474 11.0065C35.7008 10.8822 35.2516 10.7625 34.7996 10.6472ZM30.9136 22.78C30.8973 24.3605 31.8844 24.2929 32.0444 24.2686C33.5526 23.0184 34.7522 21.4397 35.5508 19.6543C34.3549 21.0537 32.999 21.9966 30.9136 22.78Z" fill="#EF3B24"/>
<path d="M28.1093 29.7663C27.1587 29.067 26.2529 28.3091 25.3975 27.4969L25.0341 27.1511C24.7629 26.8972 24.5161 26.6405 24.2639 26.3785L24.2124 26.3245C24.0524 26.157 23.8951 25.9922 23.7406 25.822C23.586 25.6518 23.4368 25.4843 23.2958 25.3276C22.9867 24.9674 22.6857 24.6072 22.3928 24.2469L21.3948 24.7143C23.1899 26.7911 25.2535 28.6216 27.5317 30.158C27.7242 30.0337 27.914 29.9068 28.1039 29.7798L28.1093 29.7663ZM27.5859 9.7367C23.2174 9.85234 18.9225 10.8843 14.9814 12.7652C15.4281 14.3365 15.9938 15.8718 16.6736 17.3579L17.1373 16.8743C17.1834 16.8203 17.2322 16.7716 17.281 16.7203C17.2914 16.7127 17.3005 16.7036 17.3081 16.6933L17.4356 16.569L17.46 16.5474C17.5603 16.4502 17.6634 16.361 17.7692 16.2772C17.3814 15.2966 17.037 14.2916 16.7441 13.2623C17.0668 13.111 17.3922 12.9624 17.7203 12.8219L18.3658 12.5518C20.7285 11.5826 23.2023 10.9075 25.731 10.5418C25.9642 10.5067 26.1947 10.4769 26.428 10.4472C27.6879 10.2972 28.9556 10.2223 30.2245 10.223C31.3587 10.2219 32.4921 10.2823 33.6197 10.404C31.6355 9.98328 29.6144 9.75976 27.5859 9.7367Z" fill="#FDBB30"/>
<path d="M20.069 17.1931C19.0602 19.3202 18.0884 21.4616 17.1538 23.6175C17.7992 23.323 18.4419 23.0339 19.0873 22.7476C19.9533 20.707 20.8482 18.6799 21.772 16.6663C21.1998 16.8392 20.633 17.0175 20.069 17.1931ZM27.3068 7.39985C21.4167 7.39985 16.8555 8.8506 11.6569 11.5171L12.0068 12.9192C12.5727 15.2098 13.397 17.4294 14.4638 19.5354C14.4882 19.5813 14.5099 19.63 14.5343 19.6759C14.6021 19.8056 14.6699 19.9461 14.7404 20.0649C14.5315 20.4864 14.3282 20.9105 14.1221 21.332C13.3718 22.8917 12.6431 24.4613 11.9363 26.0408C11.5864 26.8351 10.8271 28.2291 11.9769 28.7262C13.0318 28.9964 14.046 28.2939 14.9599 27.832L15.4508 27.5861L16.0907 27.2619L16.2046 27.2052C16.6033 27.0053 16.9992 26.8081 17.3978 26.6136C17.669 26.4812 18.187 26.2272 18.8459 25.9138C18.9842 26.0705 19.1171 26.2245 19.2717 26.3785L19.3286 26.4406C19.4642 26.5865 19.5998 26.7297 19.7381 26.8729L19.7625 26.8945C22.0094 29.1733 24.5456 31.1496 27.3068 32.7732C33.4761 29.0882 37.59 24.7549 40.3235 19.0383C40.3696 18.9464 40.4129 18.8519 40.4563 18.7681C40.535 18.5979 40.6109 18.4277 40.6896 18.2548L40.714 18.2008C40.7601 18.0927 40.8089 17.9847 40.855 17.8739C40.8712 17.8415 40.8848 17.8064 40.8984 17.7712C41.3702 16.6717 41.7933 15.5181 42.1756 14.3132C42.2136 14.1889 42.2516 14.0647 42.2922 13.9404C42.3329 13.8161 42.3709 13.6702 42.4116 13.5406C42.4522 13.4109 42.4793 13.3055 42.5146 13.1867C42.6683 12.6463 42.8165 12.0925 42.9593 11.5252C37.7581 8.8479 33.1995 7.39985 27.3068 7.39985ZM18.3497 25.0574C17.5361 25.4627 16.7226 25.8679 15.9091 26.2813C15.1633 26.6595 14.1057 27.3619 13.2596 27.1485C12.4922 26.8189 13.2108 25.5275 13.4467 25.0169C14.3507 23.0015 15.2871 21.005 16.2562 19.0275C16.5692 18.3479 16.9704 17.7121 17.4494 17.1364C18.3226 16.1746 19.4127 15.6532 20.6357 15.3209C21.3498 15.13 22.0631 14.9436 22.7754 14.7617C23.3014 14.632 24.5082 14.197 24.7387 14.9076C24.8553 15.4479 24.4946 16.0503 24.2885 16.5285C23.7353 17.8235 23.193 19.122 22.6615 20.4242C22.4283 21.0364 22.1501 21.6306 21.8289 22.2019C20.9964 23.5418 19.7381 24.3766 18.3497 25.0574ZM25.2404 15.6424C25.4736 15.0832 25.715 14.5212 25.9536 13.9809C26.8756 13.7729 27.803 13.5703 28.7305 13.3812C28.3129 14.4618 27.8998 15.5424 27.4912 16.6231C28.3644 15.4398 29.2493 14.2691 30.146 13.111C30.6884 13.0029 31.2398 12.8994 31.8002 12.8003C31.6592 13.2353 31.5291 13.6675 31.3718 14.1025L30.7996 14.2349C30.1216 15.22 29.45 16.216 28.7847 17.2228C29.1589 18.0513 29.5296 18.8816 29.8966 19.7137C29.2945 19.9838 28.6952 20.2378 28.0932 20.5053C27.7045 19.7128 27.3131 18.923 26.919 18.136C26.4869 19.2904 26.0612 20.4476 25.6417 21.6075C24.7143 22.0344 23.786 22.4639 22.8567 22.8962C23.1279 22.1775 23.4208 21.4616 23.7082 20.7349C24.4024 18.9735 25.112 17.2156 25.837 15.4614L25.2404 15.6424ZM33.4707 13.6567C33.1091 14.9175 32.7394 16.1782 32.3616 17.439C32.6545 17.3309 32.9446 17.2228 33.2402 17.1175C33.3378 16.7663 33.4355 16.4123 33.5358 16.0611C33.9588 15.9225 34.3801 15.7892 34.7995 15.6613C34.5988 16.443 34.3964 17.2237 34.1921 18.0036C33.3876 18.3332 32.5858 18.6673 31.7867 19.0059C31.5397 19.126 31.2794 19.2166 31.0111 19.276C30.222 19.3409 30.4687 18.4466 30.6315 17.9577L31.8274 14.2295C31.9402 13.8111 32.146 13.4234 32.4294 13.0948C32.7873 12.7513 33.2483 12.534 33.7419 12.4761C34.3683 12.3735 34.9975 12.2762 35.6239 12.1844C35.4802 12.7517 35.3527 13.3217 35.1927 13.8891L34.0565 14.1592C34.1188 13.9404 34.1785 13.7189 34.2409 13.4973L33.4707 13.6567ZM30.6071 20.6809C30.4577 21.2034 30.3525 21.7375 30.2925 22.2775C29.582 22.526 28.7847 22.7638 27.879 22.9907C27.879 22.5963 27.879 22.1802 27.8519 21.7588L29.3461 21.105L29.5793 20.8619C29.6918 20.8771 29.8058 20.8771 29.9183 20.8619C30.1479 20.8164 30.3738 20.7532 30.5936 20.6728L30.6071 20.6809ZM27.1767 23.1664C26.2657 23.3695 25.3359 23.4772 24.4024 23.4878L24.3807 23.3149L24.8499 23.0988L26.0512 22.137L26.3224 21.3995C26.496 21.7507 26.5936 21.8885 26.7617 22.2397L27.1576 22.0668C27.1685 22.4315 27.1767 22.8016 27.1767 23.1664ZM27.3068 31.625C24.5148 29.9406 21.9774 27.8694 19.7707 25.4735L21.3978 24.7008L22.6723 24.1038C23.0465 24.1362 23.4045 24.1551 23.7353 24.1632C23.7435 24.593 23.5864 25.0096 23.2961 25.3276C23.4453 25.4978 23.597 25.668 23.7489 25.8355C23.9746 25.6235 24.1526 25.3664 24.2713 25.0809C24.39 24.7955 24.4467 24.4883 24.4377 24.1794C25.3544 24.1682 26.2679 24.0696 27.1658 23.8849C27.117 25.2763 26.9217 26.3164 26.5258 26.7054C26.5134 26.7159 26.5033 26.7288 26.496 26.7432C26.4109 26.8384 26.3203 26.9286 26.2248 27.0134C26.6098 26.9431 26.9868 26.854 27.361 26.7432C27.8437 25.7382 27.8491 24.0065 27.8573 23.7066C28.7468 23.4851 29.5387 23.2582 30.2519 23.0178C30.279 23.8282 30.6043 24.6063 31.2281 24.8926C31.4992 24.6954 31.7704 24.4847 32.0416 24.2686C31.8816 24.2929 30.8945 24.3604 30.9108 22.78C32.9962 21.9965 34.3521 21.0537 35.548 19.6434C35.8669 18.9271 36.1184 18.1827 36.2991 17.42C34.87 19.6651 33.5521 20.9753 30.9813 22.0127C31.0807 21.4559 31.2203 20.907 31.3989 20.3702C32.1501 20.0568 32.9311 19.684 33.4029 19.4895L34.5284 18.3035C34.8267 17.2229 35.0978 16.1422 35.369 15.0453L34.4904 15.3155L35.5236 14.2349L36.1825 11.6819C35.6646 11.7575 35.1466 11.8332 34.6287 11.9142C34.7142 11.4958 34.7749 11.0727 34.8104 10.6472C34.6449 10.6039 34.4768 10.5661 34.3114 10.5256L34.211 10.504L34.0592 10.4689C33.9958 11.001 33.8998 11.5288 33.7717 12.0493H33.7012C33.1829 12.1172 32.6933 12.3256 32.2857 12.6517L32.424 12.2357C31.5914 12.3843 30.7616 12.5356 29.9291 12.6977L29.1156 13.5622L29.1427 13.4919L29.4139 12.8003C28.6003 12.9678 27.7868 13.1407 26.9515 13.319C26.7807 12.2141 26.6098 11.2172 26.4607 10.4094C26.2275 10.4391 25.997 10.4689 25.7638 10.504C25.9129 11.3144 26.0892 12.3411 26.2627 13.4757L25.6824 13.6054L24.9205 14.3862C24.4025 13.8459 23.353 14.1835 22.6913 14.351C21.9681 14.5311 21.2513 14.7176 20.5408 14.9103C20.3275 14.9697 20.116 15.0345 19.9063 15.1048C19.3571 14.3339 18.8702 13.5209 18.45 12.6733L18.3741 12.514L17.7287 12.7841L17.8209 12.9732C18.2299 13.8017 18.7042 14.5967 19.2392 15.3506L19.0602 15.4344L19.0276 15.4506L18.8731 15.5289H18.8487C18.7293 15.5911 18.61 15.6559 18.4934 15.7261L18.469 15.7424L18.3171 15.8369L18.2846 15.872C18.1707 15.9477 18.0595 16.0233 17.951 16.1071L17.9322 16.1422L17.7938 16.253L17.7694 16.2719C17.6636 16.3583 17.5605 16.4475 17.4602 16.542L17.4358 16.5636L17.3083 16.6825C17.3007 16.6928 17.2916 16.7019 17.2812 16.7095C17.2324 16.7609 17.1836 16.8095 17.1375 16.8635L16.0148 18.0333C15.7612 18.3272 15.5326 18.6417 15.3314 18.9735C14.689 17.6851 14.1354 16.3547 13.6745 14.9913C13.3527 14.0422 13.0653 13.0588 12.8122 12.0412C17.6202 9.65837 21.8777 8.38863 27.3068 8.39133C32.7358 8.39403 36.9961 9.65837 41.7933 12.0412C39.4367 20.8673 35.1412 26.7973 27.3068 31.6115V31.625Z" fill="#002D62"/>
<path d="M50.8668 15.1588C47.8313 15.4061 44.8149 15.8483 41.8365 16.4826C42.0399 15.9423 42.2297 15.4019 42.4114 14.8616C45.304 14.3411 48.1523 13.8827 50.9563 13.4865C51.5339 13.4271 51.5339 12.7355 50.9292 12.695C48.3254 12.4979 45.7126 12.4456 43.1029 12.5383C43.2114 12.1303 43.3171 11.7278 43.4175 11.309C38.0128 8.5318 33.4434 7 27.3066 7C21.1698 7 16.5977 8.5318 11.1931 11.3063L11.6188 13.0164C12.1325 15.1118 12.8594 17.1494 13.7883 19.0977C10.2131 20.6093 6.76681 22.4072 3.4834 24.4739C2.59393 24.998 3.06307 25.5113 3.83593 25.1871C6.90931 24.0704 10.0821 23.0033 13.3544 21.9857C12.7469 23.2771 12.1521 24.5711 11.57 25.8679C11.1198 26.8837 10.3361 28.4425 11.8412 29.0963C11.9877 29.1353 12.1375 29.1606 12.2886 29.1719C10.0494 30.7123 7.90334 32.383 5.86165 34.1753C5.06438 34.8777 5.66098 35.2397 6.32266 34.8237C10.6914 32.4247 15.3015 30.0797 20.1366 27.8347C22.3062 29.909 24.7127 31.7224 27.3066 33.2378C33.1777 29.7258 37.5817 25.5923 40.5945 19.4084C44.1235 18.1477 47.6009 16.9914 51.0268 15.9396C51.6397 15.8072 51.6207 15.0913 50.8668 15.1588ZM40.2908 19.0896L40.3152 19.0383C37.5898 24.7548 33.476 29.0882 27.2985 32.7732C24.5402 31.149 22.0068 29.1727 19.7625 26.8945C19.9117 27.0512 20.0634 27.2025 20.218 27.3565C15.3015 29.6501 10.5883 32.0302 6.13283 34.486C9.04428 31.9362 12.1608 29.6286 15.4508 27.5861L14.9599 27.832C14.046 28.2939 13.0318 28.9991 11.9769 28.7262C10.8271 28.2291 11.5864 26.8351 11.9363 26.0408C12.6413 24.4613 13.3697 22.8916 14.1218 21.3319C10.5458 22.4324 7.07473 23.5914 3.70848 24.8089C7.09338 22.6805 10.651 20.8379 14.3442 19.3003L14.4635 19.5354C13.3968 17.4293 12.5727 15.2098 12.0068 12.9192L11.6569 11.5171C16.8555 8.8506 21.4194 7.39985 27.3068 7.39985C33.1941 7.39985 37.7579 8.84789 42.9619 11.5171C42.8136 12.079 42.6618 12.6301 42.5063 13.1704L42.5714 12.9489C45.3475 12.8267 48.1285 12.8709 50.8993 13.0813C48.0158 13.5009 45.0834 13.9809 42.1022 14.5212L42.1673 14.3159C41.785 15.5208 41.3538 16.6744 40.8901 17.7739C40.9931 17.5335 41.0962 17.2877 41.1965 17.0418C44.3927 16.3274 47.6347 15.8346 50.8993 15.5667C47.4156 16.6204 43.8794 17.7947 40.2908 19.0896ZM17.7692 16.261L17.7936 16.2421H17.7773L17.7692 16.261ZM27.3068 8.39133C21.8832 8.39133 17.6201 9.65566 12.8147 12.0412C13.066 13.0606 13.3527 14.044 13.6745 14.9913C14.1344 16.3555 14.6869 17.6869 15.3286 18.9761C15.5304 18.6433 15.7601 18.328 16.0148 18.0333L16.6736 17.3417C15.9938 15.8556 15.4281 14.3203 14.9815 12.749C18.9238 10.8737 23.2186 9.84727 27.5859 9.7367C29.6153 9.75052 31.6383 9.965 33.6251 10.377L34.0482 10.4688L34.2 10.504L34.3004 10.5256C34.4658 10.5661 34.6339 10.6039 34.7993 10.6471C35.2495 10.7606 35.7015 10.884 36.1553 11.0173C36.8346 13.3845 36.8084 15.8975 36.08 18.2502C35.3515 20.6029 33.9522 22.6939 32.0523 24.2686C31.7811 24.4847 31.5099 24.6954 31.2387 24.8926C30.0647 25.7162 28.759 26.3355 27.3771 26.7243C27.0029 26.8297 26.626 26.9188 26.2409 26.9945C25.8558 27.0701 25.4545 27.1187 25.0531 27.1566L25.4056 27.4889L26.2056 27.3592C29.598 26.7873 32.6251 24.9007 34.6252 22.1118C36.6253 19.3229 37.4357 15.8586 36.8793 12.4761C36.863 12.3843 36.8441 12.2897 36.8278 12.206V11.7602L36.8142 11.7062V11.5468C36.7763 11.4009 36.7437 11.2766 36.7085 11.1523L37.2508 11.3225C37.6305 11.4468 37.9857 11.5738 38.3355 11.7062C39.225 12.0358 40.0142 12.3735 40.6677 12.6841C38.7214 19.4627 34.505 25.3735 28.7195 29.434L28.2476 29.7636C28.0578 29.8906 27.868 30.0175 27.6754 30.1418C25.3497 28.6159 23.24 26.7859 21.403 24.7008L19.7759 25.4735C21.9836 27.8646 24.521 29.9312 27.3121 31.6115C35.141 26.7972 39.4367 20.8673 41.7933 12.0412C36.9961 9.65837 32.7331 8.39133 27.3068 8.39133ZM22.3928 24.2469L22.664 24.1173L22.203 24.3334L22.3928 24.2469ZM25.9536 13.9809C25.715 14.5374 25.4734 15.094 25.2402 15.6532L25.8368 15.4884C25.1137 17.239 24.4041 18.9969 23.7081 20.7619C23.4206 21.4805 23.1386 22.1964 22.8566 22.9232C23.7858 22.4729 24.7143 22.0344 25.6417 21.6075C26.063 20.4476 26.4887 19.2904 26.919 18.136C27.3149 18.9248 27.7063 19.7146 28.0932 20.5053C28.6952 20.2351 29.2945 19.9649 29.8966 19.7137C29.535 18.8852 29.1644 18.0549 28.7847 17.2228C29.4518 16.216 30.1233 15.2128 30.7994 14.2132L31.3716 14.0809C31.5154 13.6459 31.6591 13.2137 31.8001 12.7787C31.2469 12.8796 30.6955 12.9831 30.1459 13.0894C29.242 14.2529 28.357 15.4236 27.491 16.6014C27.8996 15.5208 28.3127 14.4402 28.7303 13.3595C27.8029 13.5595 26.8756 13.7621 25.9536 13.9809ZM35.1871 13.8999C35.3336 13.3325 35.4746 12.7625 35.6183 12.1952C34.9919 12.287 34.3628 12.3843 33.7363 12.4869C33.2405 12.5416 32.7765 12.7571 32.4157 13.1002C32.1323 13.4287 31.9265 13.8165 31.8136 14.2349L30.6177 17.963C30.4632 18.452 30.2083 19.3463 30.9974 19.2814C31.2657 19.222 31.526 19.1314 31.773 19.0113C32.5721 18.6745 33.3738 18.3404 34.1783 18.009C34.3826 17.2273 34.5851 16.4466 34.7858 15.6667C34.3664 15.7964 33.9451 15.9297 33.5221 16.0665C33.4218 16.4177 33.3241 16.7716 33.2265 17.1229C32.9309 17.2282 32.6408 17.3363 32.3479 17.4443C32.7095 16.1836 33.0792 14.9229 33.457 13.6621L34.2353 13.4973C34.1729 13.7189 34.1133 13.9404 34.0509 14.1592L35.1871 13.8999ZM21.8288 22.2045C22.1499 21.6333 22.4282 21.0391 22.6613 20.4269C23.1928 19.1247 23.7352 17.8262 24.2884 16.5312C24.4945 16.0449 24.8552 15.4317 24.7385 14.9103C24.508 14.1997 23.3013 14.6401 22.7752 14.7644C22.0629 14.9445 21.3497 15.1309 20.6356 15.3236C19.4126 15.6559 18.3224 16.1773 17.4492 17.1391C16.9702 17.7148 16.5691 18.3506 16.256 19.0302C15.2798 21.0113 14.3433 23.0078 13.4466 25.0196C13.2107 25.5437 12.492 26.8216 13.2595 27.1512C14.1055 27.37 15.1577 26.6622 15.9089 26.2839C16.7224 25.8706 17.536 25.4735 18.3495 25.0601C19.738 24.3766 20.9962 23.5418 21.8288 22.2045ZM17.1538 23.6175C18.0884 21.4616 19.0602 19.3202 20.069 17.1931C20.633 17.0175 21.1996 16.8392 21.7718 16.6528C20.8444 18.6772 19.9531 20.7088 19.098 22.7476C18.4417 23.0339 17.7992 23.323 17.1538 23.6175Z" fill="white"/>
<path d="M41.1965 17.031C41.0961 17.2769 40.9931 17.5227 40.89 17.7632C40.8765 17.7983 40.8629 17.8334 40.8466 17.8658C40.8005 17.9766 40.7517 18.0847 40.7056 18.1927L40.6812 18.2468C40.6026 18.4197 40.5266 18.5899 40.448 18.7601C40.4046 18.8519 40.3612 18.9465 40.3151 19.0302L40.2907 19.0815C43.8793 17.7956 47.4155 16.6204 50.8993 15.556C47.6347 15.8238 44.3927 16.3167 41.1965 17.031ZM19.7379 26.8729C19.5996 26.7297 19.4667 26.5866 19.3284 26.4407L19.2715 26.3785C19.1278 26.2246 18.984 26.0706 18.8457 25.9139C18.1868 26.2273 17.6661 26.4812 17.3976 26.6136C16.999 26.8081 16.6031 27.0053 16.2044 27.2052L16.0905 27.262L15.4506 27.5862C12.1606 29.6286 9.04428 31.9362 6.13283 34.486C10.5883 32.0302 15.3015 29.6501 20.218 27.3565C20.0634 27.2025 19.9115 27.0512 19.7623 26.8945L19.7379 26.8729ZM38.1999 11.7062C37.8447 11.5738 37.4894 11.4361 37.1152 11.3226L36.5728 11.1524C36.6081 11.274 36.6406 11.4009 36.6786 11.5468V11.7062L36.6921 11.7602V12.206C36.7084 12.2979 36.7274 12.3924 36.7437 12.4762C37.3054 15.8401 36.5144 19.289 34.542 22.0761C32.5697 24.8633 29.5747 26.7642 26.2056 27.3673L25.4056 27.497C26.2611 28.3091 27.1668 29.0671 28.1174 29.7663L28.5893 29.4367C34.3692 25.3729 38.5796 19.4614 40.5212 12.6842C39.8785 12.3735 39.0894 12.0358 38.1999 11.7062Z" fill="#007DC3"/>
<path d="M59.1909 8.72869V31.4531H57.3827V8.72869H59.1909ZM75.6304 16.8118C75.5584 16.1731 75.2615 15.6783 74.7397 15.3274C74.218 14.9721 73.5612 14.7944 72.7696 14.7944C72.2028 14.7944 71.7125 14.8844 71.2987 15.0643C70.8849 15.2397 70.5633 15.4826 70.3339 15.793C70.1089 16.0988 69.9965 16.4474 69.9965 16.8388C69.9965 17.1671 70.073 17.4505 70.2259 17.6889C70.3833 17.9273 70.588 18.1275 70.8399 18.2894C71.0963 18.4469 71.3707 18.5795 71.663 18.6875C71.9554 18.791 72.2366 18.8764 72.5064 18.9439L73.8559 19.2947C74.2967 19.4027 74.7487 19.5489 75.212 19.7333C75.6754 19.9177 76.1049 20.1606 76.5008 20.462C76.8966 20.7634 77.216 21.1367 77.4589 21.582C77.7062 22.0273 77.8299 22.5604 77.8299 23.1811C77.8299 23.9638 77.6275 24.6587 77.2227 25.266C76.8224 25.8732 76.2399 26.3523 75.4752 26.7031C74.715 27.054 73.7951 27.2294 72.7156 27.2294C71.681 27.2294 70.7859 27.0652 70.0302 26.7369C69.2745 26.4085 68.683 25.9429 68.2557 25.3402C67.8284 24.733 67.5923 24.0133 67.5473 23.1811H69.6389C69.6794 23.6804 69.8413 24.0965 70.1247 24.4293C70.4126 24.7577 70.7792 25.0028 71.2245 25.1648C71.6743 25.3222 72.1668 25.4009 72.7021 25.4009C73.2914 25.4009 73.8154 25.3087 74.2742 25.1243C74.7375 24.9354 75.1018 24.6745 75.3672 24.3416C75.6326 24.0043 75.7653 23.6107 75.7653 23.1609C75.7653 22.7515 75.6484 22.4164 75.4145 22.1555C75.1851 21.8946 74.8724 21.6787 74.4766 21.5078C74.0853 21.3369 73.6422 21.1862 73.1474 21.0558L71.5146 20.6104C70.4081 20.3091 69.5309 19.866 68.8832 19.2812C68.24 18.6965 67.9184 17.9228 67.9184 16.9602C67.9184 16.1641 68.1343 15.4691 68.5661 14.8754C68.9979 14.2816 69.5827 13.8205 70.3204 13.4922C71.058 13.1593 71.8902 12.9929 72.8168 12.9929C73.7524 12.9929 74.5778 13.1571 75.293 13.4854C76.0127 13.8138 76.5795 14.2659 76.9933 14.8416C77.4071 15.4129 77.623 16.0696 77.641 16.8118H75.6304ZM80.3213 27V13.1818H82.4062V19.1868H89.2951V13.1818H91.3867V27H89.2951V20.9748H82.4062V27H80.3213ZM106.426 20.0909C106.426 21.5663 106.156 22.8348 105.616 23.8963C105.077 24.9534 104.337 25.7675 103.397 26.3388C102.461 26.9055 101.397 27.1889 100.205 27.1889C99.0087 27.1889 97.9404 26.9055 97.0003 26.3388C96.0647 25.7675 95.327 24.9511 94.7872 23.8896C94.2475 22.828 93.9776 21.5618 93.9776 20.0909C93.9776 18.6155 94.2475 17.3493 94.7872 16.2923C95.327 15.2307 96.0647 14.4165 97.0003 13.8498C97.9404 13.2785 99.0087 12.9929 100.205 12.9929C101.397 12.9929 102.461 13.2785 103.397 13.8498C104.337 14.4165 105.077 15.2307 105.616 16.2923C106.156 17.3493 106.426 18.6155 106.426 20.0909ZM104.361 20.0909C104.361 18.9664 104.179 18.0195 103.815 17.2504C103.455 16.4767 102.96 15.8919 102.331 15.4961C101.705 15.0958 100.997 14.8956 100.205 14.8956C99.409 14.8956 98.6983 15.0958 98.0731 15.4961C97.4479 15.8919 96.9531 16.4767 96.5887 17.2504C96.2289 18.0195 96.049 18.9664 96.049 20.0909C96.049 21.2154 96.2289 22.1645 96.5887 22.9382C96.9531 23.7074 97.4479 24.2921 98.0731 24.6925C98.6983 25.0883 99.409 25.2862 100.205 25.2862C100.997 25.2862 101.705 25.0883 102.331 24.6925C102.96 24.2921 103.455 23.7074 103.815 22.9382C104.179 22.1645 104.361 21.2154 104.361 20.0909ZM109.025 27V13.1818H113.951C115.026 13.1818 115.917 13.3775 116.623 13.7688C117.329 14.1602 117.857 14.6954 118.208 15.3746C118.559 16.0494 118.735 16.8095 118.735 17.6552C118.735 18.5053 118.557 19.27 118.202 19.9492C117.851 20.6239 117.32 21.1592 116.609 21.555C115.903 21.9464 115.015 22.142 113.944 22.142H110.557V20.3743H113.755C114.434 20.3743 114.985 20.2573 115.408 20.0234C115.831 19.785 116.141 19.4612 116.339 19.0518C116.537 18.6425 116.636 18.177 116.636 17.6552C116.636 17.1334 116.537 16.6701 116.339 16.2653C116.141 15.8604 115.829 15.5433 115.402 15.3139C114.979 15.0845 114.421 14.9698 113.728 14.9698H111.11V27H109.025Z" fill="#181818"/>
</svg>
