<svg width="100" height="58" viewBox="0 0 100 58" fill="none" xmlns="http://www.w3.org/2000/svg">
<path d="M98.0544 16.8739C91.8361 17.3853 85.6572 18.2998 79.556 19.6117C79.9726 18.4942 80.3615 17.3767 80.7336 16.2593C86.6591 15.1828 92.4938 14.2348 98.2378 13.4153C99.421 13.2924 99.421 11.862 98.1822 11.7782C92.8483 11.3706 87.496 11.2624 82.1502 11.4541C82.3724 10.6104 82.589 9.77791 82.7946 8.91187C71.7233 3.16804 62.3629 0 49.7918 0C37.2206 0 27.8547 3.16804 16.7834 8.90628L17.6555 12.4431C18.7077 16.7766 20.1968 20.9908 22.0996 25.0203C14.7759 28.1465 7.71626 31.865 0.990234 36.1392C-0.831838 37.2231 0.129194 38.2847 1.7124 37.6142C8.00817 35.3048 14.5076 33.0978 21.2108 30.9932C19.9664 33.6639 18.748 36.3403 17.5555 39.0222C16.6334 41.1231 15.028 44.347 18.111 45.6992C18.4111 45.7798 18.7179 45.8322 19.0276 45.8556C14.4406 49.0414 10.0444 52.4967 5.86205 56.2034C4.22885 57.6561 5.45098 58.4049 6.80642 57.5444C15.7557 52.5828 25.1993 47.733 35.1041 43.0899C39.5484 47.3799 44.478 51.1305 49.7918 54.2646C61.8185 47.001 70.84 38.4523 77.0117 25.6628C84.2408 23.0554 91.3643 20.664 98.3822 18.4886C99.6376 18.2149 99.5988 16.7342 98.0544 16.8739ZM76.3896 25.0035L76.3989 24.9834L76.4396 24.8974C76.426 24.926 76.4124 24.9547 76.3989 24.9834C70.8158 36.7637 62.3989 45.7009 49.7751 53.3036C44.1247 49.9444 38.9349 45.8571 34.3375 41.1454C34.643 41.4695 34.9541 41.7824 35.2707 42.1009C25.1994 46.8446 15.5446 51.7671 6.41757 56.846C12.3816 51.5726 18.7654 46.7999 25.5049 42.5758L24.4994 43.0843C22.6273 44.0397 20.5497 45.498 18.3888 44.9337C16.0334 43.9056 17.5889 41.0225 18.3055 39.3798C19.7498 36.1131 21.2423 32.8668 22.7829 29.641C15.4576 31.917 8.34703 34.314 1.45131 36.832C8.38523 32.4302 15.673 28.6194 23.2384 25.4393L23.4828 25.9254C21.2976 21.5697 19.6093 16.9794 18.4499 12.2419L17.7333 9.3421C28.3824 3.82735 37.7316 0.826932 49.7918 0.826932C61.8519 0.826932 71.2011 3.82177 81.8613 9.3421C81.5577 10.5043 81.2466 11.6441 80.9281 12.7616L81.0614 12.3034C86.7483 12.0506 92.4451 12.1421 98.1211 12.5772C98.0961 12.5809 98.0711 12.5845 98.0461 12.5882C96.6892 12.7878 95.3271 12.994 93.9597 13.2067C89.3986 13.9163 84.7788 14.6992 80.1004 15.5553L80.1078 15.5315L80.2337 15.1306C80.1916 15.2647 80.1491 15.3984 80.1064 15.5318C79.492 17.4517 78.8186 19.3078 78.102 21.0975C77.9425 21.4958 77.7809 21.8908 77.6172 22.2825C77.8283 21.7852 78.0394 21.2767 78.245 20.7683C84.76 19.2981 91.368 18.2816 98.022 17.7258C98.055 17.7231 98.0881 17.7203 98.1211 17.7176C90.9847 19.8967 83.7408 22.3253 76.3896 25.0035ZM30.2545 19.1535L30.3045 19.1144H30.2711L30.2545 19.1535ZM49.7918 2.8775C38.6816 2.8775 29.949 5.49239 20.1053 10.426C20.6201 12.5344 21.2071 14.5682 21.8663 16.5275C22.8083 19.3489 23.9404 22.1024 25.2549 24.7688C25.6684 24.0805 26.1386 23.4282 26.6603 22.8188L28 21.3994L28.0102 21.3885C26.6218 18.3243 25.4658 15.159 24.5522 11.9195C24.5494 11.9096 24.5466 11.8998 24.5438 11.8899C32.6197 8.01147 41.4176 5.88869 50.3639 5.66001C54.5211 5.68859 58.6651 6.13216 62.7351 6.98422L63.6017 7.17419L63.9128 7.24683L64.1184 7.29153C64.4572 7.37534 64.8016 7.45356 65.1405 7.54296C66.0626 7.77763 66.9885 8.03279 67.918 8.30843C69.3097 13.2043 69.2561 18.4016 67.7638 23.2674C66.2716 28.1333 63.405 32.4578 59.5132 35.7145C58.9577 36.1615 58.4022 36.5973 57.8466 37.0052C55.4416 38.7085 52.7669 39.9894 49.9362 40.7934C49.1696 41.0113 48.3974 41.1957 47.6086 41.3522C46.8198 41.5086 45.9976 41.6092 45.1755 41.6874L45.8976 42.3747L47.5364 42.1065C48.0615 42.0171 48.5822 41.9122 49.0982 41.7922C55.4106 40.3235 60.9961 36.5862 64.7837 31.254C68.8809 25.4861 70.5411 18.3212 69.4012 11.3256C69.3751 11.1765 69.3455 11.0239 69.3179 10.8814C69.3103 10.8424 69.3029 10.8041 69.2957 10.7669V9.84496L69.2679 9.73321V9.40356C69.1999 9.13957 69.1403 8.9098 69.0781 8.68431C69.0693 8.65208 69.0603 8.61994 69.0513 8.5878L70.1623 8.9398C70.94 9.19682 71.6677 9.45943 72.3843 9.73321C74.2064 10.4149 75.8229 11.1133 77.1617 11.7558C73.1747 25.7751 64.5375 37.9997 52.686 46.3976L51.7194 47.0792C51.3305 47.3418 50.9417 47.6045 50.5472 47.8615C50.507 47.8348 50.4667 47.8081 50.4265 47.7813C45.7152 44.645 41.4391 40.8927 37.7107 36.6227C37.7066 36.618 37.7024 36.6132 37.6983 36.6085L34.3653 38.2065C38.8876 43.1518 44.0854 47.426 49.8029 50.901C65.8404 40.9443 74.6397 28.68 79.4671 10.426C69.6401 5.49798 60.9075 2.8775 49.7918 2.8775ZM39.7259 35.6698L40.2814 35.4016L39.3371 35.8486L39.7259 35.6698ZM47.0198 14.4378C46.5309 15.5888 46.0365 16.7398 45.5588 17.8964L46.7809 17.5555C45.2995 21.1762 43.846 24.8117 42.4201 28.4621C41.8313 29.9483 41.2536 31.429 40.6758 32.932C42.5794 32.0008 44.4811 31.0938 46.3809 30.211C47.2438 27.8121 48.116 25.4188 48.9974 23.0312C49.8084 24.6627 50.6102 26.2961 51.4027 27.9313C52.636 27.3726 53.8636 26.8138 55.0969 26.2942C54.3562 24.5807 53.597 22.8635 52.8193 21.1426C54.1858 19.0604 55.5617 16.9856 56.9467 14.9183L58.1188 14.6445C58.4133 13.7449 58.7077 12.851 58.9966 11.9514C57.8633 12.16 56.7338 12.3742 55.6079 12.5939C53.7562 15.0002 51.9434 17.4214 50.1695 19.8575C51.0065 17.6226 51.8527 15.3876 52.7082 13.1527C50.8083 13.5662 48.9085 13.9852 47.0198 14.4378ZM65.9349 14.2702C66.2348 13.0968 66.5237 11.9179 66.8181 10.7445C65.5349 10.9345 64.2461 11.1356 62.9629 11.348C61.9473 11.461 60.9967 11.9067 60.2576 12.6163C59.677 13.2958 59.2556 14.0978 59.0243 14.963L56.5745 22.6736C56.2579 23.6849 55.7357 25.5343 57.3522 25.4002C57.9018 25.2774 58.4351 25.0899 58.941 24.8415C60.5779 24.1449 62.2204 23.454 63.8684 22.7686C64.2869 21.152 64.7016 19.5372 65.1127 17.9243C64.2535 18.1925 63.3906 18.4681 62.524 18.7512C62.3185 19.4776 62.1185 20.2095 61.9185 20.9359C61.313 21.1538 60.7186 21.3773 60.1187 21.6008C60.8594 18.9934 61.6167 16.3859 62.3907 13.7785L63.985 13.4376C63.8573 13.8958 63.7351 14.354 63.6073 14.8066L65.9349 14.2702ZM38.5705 31.4458C39.2283 30.2643 39.7984 29.0354 40.2759 27.7693C41.3647 25.0762 42.4757 22.3905 43.6089 19.7123C44.0311 18.7065 44.77 17.4382 44.5311 16.3598C44.0589 14.8904 41.5869 15.8011 40.5092 16.0581C39.0501 16.4306 37.5891 16.8161 36.1262 17.2147C33.6209 17.902 31.3877 18.9803 29.599 20.9694C28.6178 22.1601 27.7961 23.475 27.1547 24.8806C25.1549 28.978 23.2365 33.1071 21.3997 37.2678C20.9164 38.3518 19.4443 40.9946 21.0164 41.6762C22.7495 42.1288 24.9049 40.6649 26.4437 39.8827C28.1102 39.0278 29.7767 38.2065 31.4433 37.3516C34.2875 35.938 36.865 34.2115 38.5705 31.4458ZM28.9935 34.368C30.9081 29.9092 32.8987 25.4803 34.9652 21.0812C36.1207 20.718 37.2817 20.3492 38.4538 19.9637C36.554 24.1505 34.7282 28.3522 32.9765 32.5688C31.6321 33.1611 30.3156 33.7589 28.9935 34.368Z" fill="#DBCCB8"/>
<path fill-rule="evenodd" clip-rule="evenodd" d="M98.1211 12.5939C98.0961 12.592 98.0711 12.5901 98.0461 12.5882C96.6892 12.7878 95.3271 12.994 93.9597 13.2067C95.3519 12.9949 96.739 12.7907 98.1211 12.5939ZM80.1718 15.5198C80.1505 15.5237 80.1292 15.5276 80.1078 15.5315L80.2337 15.1306C80.1916 15.2647 80.1491 15.3984 80.1064 15.5318C80.1282 15.5278 80.15 15.5238 80.1718 15.5198ZM22.7829 29.641C15.4576 31.917 8.34703 34.314 1.45131 36.832C8.33592 34.3251 15.4464 31.9281 22.7829 29.641ZM48.2291 30.6651C48.087 30.4051 47.9467 30.1484 47.7697 29.7751L47.2142 31.3005L44.7588 33.2672L43.7978 33.7142L43.8422 34.0718C45.7534 34.059 47.658 33.8456 49.5251 33.4349C49.5251 32.7085 49.5251 31.943 49.4807 31.1608L48.6696 31.5128C48.4995 31.1597 48.3635 30.911 48.2291 30.6651ZM54.4192 28.6521L53.9414 29.1549L50.8806 30.5071C50.9139 31.3899 50.9361 32.2392 50.9361 33.0549C52.7915 32.5856 54.4247 32.0939 55.8801 31.5799C56.003 30.463 56.2186 29.3584 56.5245 28.2777C56.0652 28.4455 55.5934 28.5763 55.1135 28.6688C54.8824 28.6948 54.6488 28.6891 54.4192 28.6521ZM44.9033 15.2759L46.4143 13.6723L47.6031 13.4041C47.2519 11.0977 46.8954 8.98737 46.5923 7.32079C46.5885 7.29979 46.5847 7.27886 46.5809 7.258C41.4009 8.01431 36.3334 9.41053 31.4933 11.415L31.517 11.4653L31.6488 11.7447C32.5094 13.4976 33.5069 15.179 34.6319 16.7733C35.0615 16.628 35.4948 16.4939 35.9318 16.371C37.4131 15.9762 38.8815 15.5906 40.337 15.2144C40.4468 15.1855 40.5619 15.1542 40.6811 15.1217C42.0337 14.7539 43.9282 14.2387 44.9033 15.2759ZM55.8246 33.1555C54.3636 33.6528 52.7415 34.1221 50.9194 34.5803C50.9194 35.2005 50.9194 38.782 49.914 40.8214C52.7447 40.0173 55.4194 38.7364 57.8244 37.0331C56.5468 36.4129 55.8801 34.8038 55.8246 33.1276V33.1555ZM54.0858 12.0184L53.5303 13.4488L53.4748 13.5941L55.1413 11.8061C56.8467 11.4709 58.5466 11.158 60.252 10.8507L59.9687 11.7111C60.8037 11.0367 61.8067 10.6057 62.8685 10.4652H63.0129C63.2762 9.38137 63.4728 8.2823 63.6017 7.17419L62.7351 6.98422C62.5517 6.96438 62.3682 6.94534 62.1846 6.9271C60.0564 6.71565 57.9189 6.61162 55.7802 6.61546C53.1809 6.61409 50.5839 6.76895 48.003 7.07921C48.0059 7.09514 48.0088 7.11111 48.0117 7.12711C48.3152 8.79453 48.6618 10.8333 49.0085 13.0968C50.6972 12.7225 52.3749 12.3649 54.0858 12.0184ZM39.7259 35.6698C40.3259 36.4148 40.9425 37.1598 41.5758 37.9048C42.1619 37.2533 42.4813 36.403 42.4701 35.5245C41.7924 35.5245 41.0591 35.4687 40.2925 35.4016L39.7259 35.6698ZM30.1989 11.9905C29.5268 12.2811 28.8602 12.5884 28.1991 12.9013C28.2015 12.9099 28.204 12.9185 28.2064 12.9271C28.8048 15.0469 29.5078 17.1168 30.2989 19.1368H30.3323L30.5878 18.9077L30.6489 18.863C30.8711 18.6898 31.0989 18.5333 31.3322 18.3769H31.3766L31.6877 18.1813L31.7377 18.1478C31.9766 18.0025 32.221 17.8684 32.4654 17.7399H32.5154L32.832 17.5779L32.8987 17.5444L33.2653 17.3712C32.1695 15.8118 31.198 14.1677 30.36 12.4543L30.2085 12.018L30.1989 11.9905ZM42.5312 38.9273C42.8479 39.2793 43.1701 39.6201 43.4978 39.9665L43.6034 40.0783C44.0719 40.5849 44.5495 41.0549 45.0321 41.5297L45.181 41.6763C46.0032 41.598 46.8476 41.4863 47.6142 41.341C47.8099 41.1657 47.9954 40.9791 48.1697 40.7823C48.1847 40.7524 48.2054 40.7258 48.2308 40.704C49.0418 39.8715 49.4418 37.7483 49.5418 34.8708C47.6905 35.2626 45.806 35.4741 43.9145 35.5022C43.933 36.1409 43.8169 36.7764 43.5737 37.3667C43.3305 37.9571 42.9657 38.4889 42.5035 38.9273H42.5312ZM65.1405 7.54296C65.0679 8.42307 64.9436 9.29808 64.7683 10.1634C65.8293 9.99582 66.8903 9.83937 67.9514 9.68293L66.6348 14.963L64.5183 17.1979L66.3182 16.6392L66.2384 16.9585C65.6993 19.1175 65.1674 21.2476 64.585 23.3776L62.2852 25.8081C61.8411 25.9929 61.2634 26.2556 60.6193 26.5484C59.8615 26.8929 59.0118 27.2792 58.18 27.6296C57.8141 28.7398 57.5282 29.8751 57.3245 31.0267C62.5907 28.8979 65.2905 26.188 68.218 21.5282C69.2262 17.1581 69.1172 12.6024 67.9014 8.28608C66.9866 8.02906 66.0663 7.78135 65.1405 7.54296ZM57.18 32.6359C57.1467 35.9045 59.1688 35.7648 59.4965 35.7145C62.586 33.1289 65.0435 29.8638 66.6793 26.1713C64.2295 29.0655 61.4519 31.0155 57.18 32.6359Z" fill="#DBCCB8"/>
<path fill-rule="evenodd" clip-rule="evenodd" d="M78.102 21.0975C78.1499 20.9804 78.1976 20.8632 78.245 20.7459C84.7923 19.2685 91.4336 18.2491 98.1211 17.6952C98.0881 17.7054 98.055 17.7156 98.022 17.7258C91.368 18.2816 84.76 19.2981 78.245 20.7683C78.0394 21.2767 77.8283 21.7852 77.6172 22.2825C77.7809 21.8908 77.9425 21.4958 78.102 21.0975C78.102 21.0975 78.102 21.0976 78.102 21.0975ZM77.3794 22.8231C77.4295 22.7072 77.4797 22.5905 77.5284 22.4724C77.5617 22.4054 77.5895 22.3327 77.6172 22.2601C77.7797 21.8775 77.9421 21.4883 78.102 21.0975M76.3989 24.9834C76.3988 24.9834 76.399 24.9833 76.3989 24.9834ZM68.7735 8.5878L69.0781 8.68431C69.1403 8.9098 69.1999 9.13957 69.2679 9.40356V9.73321L69.2957 9.84496V10.7669L69.3179 10.8814C69.3455 11.0239 69.3751 11.1765 69.4012 11.3256C70.5411 18.3212 68.8809 25.4861 64.7837 31.254C60.9961 36.5862 55.4106 40.3235 49.0982 41.7922C55.3596 40.2669 60.8806 36.5057 64.6135 31.1801C68.6539 25.4158 70.2742 18.2828 69.1235 11.3256L69.1013 11.2111C69.0737 11.0686 69.0441 10.916 69.018 10.7669V9.84496L68.9902 9.73321V9.40356L68.9649 9.30535C68.8977 9.04419 68.8378 8.81157 68.7735 8.5878Z" fill="#DBCCB8"/>
<path fill-rule="evenodd" clip-rule="evenodd" d="M37.7107 36.6227L37.6816 36.6364C41.3589 40.9317 45.5861 44.7175 50.2528 47.895C50.3108 47.8572 50.3687 47.8193 50.4265 47.7813C45.7152 44.645 41.4391 40.8927 37.7107 36.6227ZM55.7802 6.61546C57.9189 6.61162 60.0564 6.71565 62.1846 6.9271C62.3645 6.96397 62.5444 7.00163 62.724 7.04009C60.4142 6.78841 58.0924 6.66344 55.769 6.66574C53.1765 6.66438 50.5861 6.81844 48.0117 7.12711L48.003 7.07921C50.5839 6.76895 53.1809 6.61409 55.7802 6.61546ZM46.5809 7.258L46.5923 7.32079L46.5642 7.32505C41.3986 8.07926 36.3449 9.46981 31.517 11.4653L31.4933 11.415C36.3334 9.41053 41.4009 8.01431 46.5809 7.258ZM30.1989 11.9905L30.2085 12.018L30.1545 12.0408C29.4999 12.3238 28.8505 12.6226 28.2064 12.9271L28.1991 12.9013C28.8602 12.5884 29.5268 12.2811 30.1989 11.9905ZM28 21.3994L28.0102 21.422C26.6176 18.3486 25.4588 15.1733 24.5438 11.9235L24.5522 11.9195C25.4658 15.159 26.6218 18.3243 28.0102 21.3885L28 21.3994Z" fill="#DBCCB8"/>
</svg>
