<svg width="57" height="34" viewBox="0 0 57 34" fill="none" xmlns="http://www.w3.org/2000/svg">
<g clip-path="url(#clip0_288_735)">
<path d="M56.3056 9.90355C52.7338 10.2037 49.1847 10.7405 45.6803 11.5104C45.9196 10.8546 46.1429 10.1987 46.3567 9.54282C49.7602 8.91101 53.1116 8.35462 56.4109 7.87365C57.0905 7.8015 57.0905 6.962 56.3789 6.91281C53.3152 6.67361 50.2409 6.61011 47.1704 6.72261C47.298 6.22743 47.4224 5.73881 47.5405 5.23052C41.1813 1.85938 35.8048 0 28.5841 0C21.3634 0 15.9837 1.85937 9.62452 5.22724L10.1255 7.30305C10.7298 9.84645 11.5852 12.3198 12.6781 14.6848C8.47143 16.5196 4.41649 18.702 0.553152 21.2106C-0.493422 21.8468 0.0585821 22.4699 0.967953 22.0764C4.58416 20.7209 8.31737 19.4256 12.1676 18.1904C11.4528 19.7579 10.753 21.3287 10.068 22.9028C9.53837 24.1358 8.61624 26.028 10.3871 26.8216C10.5595 26.8689 10.7357 26.8997 10.9136 26.9134C8.27885 28.7832 5.75375 30.8112 3.35146 32.9867C2.41337 33.8393 3.11534 34.2787 3.89389 33.7737C9.03423 30.8617 14.4585 28.0152 20.1477 25.2901C22.7005 27.808 25.532 30.0093 28.5841 31.8488C35.4921 27.5856 40.674 22.5683 44.2189 15.0619C48.3712 13.5316 52.4628 12.128 56.4938 10.8513C57.2149 10.6906 57.1926 9.82157 56.3056 9.90355ZM43.8615 14.675L43.8669 14.6631L43.8903 14.6127C43.8825 14.6295 43.8747 14.6463 43.8669 14.6631C40.66 21.5772 35.8255 26.8226 28.5745 31.2847C25.329 29.3132 22.3481 26.9143 19.7074 24.1489C19.8829 24.3391 20.0616 24.5228 20.2434 24.7097C14.4586 27.4938 8.91299 30.3829 3.67054 33.3638C7.09622 30.2688 10.763 27.4676 14.634 24.9884L14.0565 25.2868C12.9812 25.8476 11.7879 26.7035 10.5467 26.3723C9.19377 25.7689 10.0872 24.0768 10.4988 23.1127C11.3284 21.1953 12.1857 19.2901 13.0706 17.3968C8.86299 18.7326 4.7788 20.1394 0.817986 21.6173C4.80074 19.0338 8.98673 16.7972 13.3322 14.9307L13.4726 15.216C12.2175 12.6596 11.2477 9.96547 10.5818 7.18499L10.1701 5.48302C16.2869 2.24634 21.6569 0.485339 28.5841 0.485339C35.5113 0.485339 40.8814 2.24306 47.0044 5.48302C46.83 6.16512 46.6513 6.8341 46.4684 7.48997L46.545 7.22106C49.8114 7.07271 53.0836 7.12636 56.3438 7.38175C56.3295 7.38391 56.3151 7.38607 56.3007 7.38823C55.5214 7.50536 54.739 7.62636 53.9536 7.75122C51.3337 8.16771 48.6802 8.62718 45.993 9.12963L45.9972 9.11571L46.0696 8.8804C46.0454 8.95907 46.021 9.03755 45.9965 9.11586C45.6435 10.2427 45.2568 11.332 44.8451 12.3825C44.7535 12.6162 44.6607 12.848 44.5667 13.0779C44.6879 12.7861 44.8092 12.4877 44.9273 12.1892C48.6694 11.3264 52.4649 10.7297 56.2869 10.4036C56.3059 10.4019 56.3249 10.4003 56.3438 10.3987C52.2448 11.6777 48.084 13.1031 43.8615 14.675ZM17.3622 11.2415L17.3909 11.2186H17.3717L17.3622 11.2415ZM28.5841 1.68885C22.2026 1.68885 17.1867 3.22357 11.5326 6.11921C11.8283 7.35661 12.1654 8.55028 12.5441 9.70023C13.0851 11.3562 13.7354 12.9722 14.4905 14.5372C14.728 14.1332 14.998 13.7504 15.2977 13.3927L16.0672 12.5596L16.0731 12.5532C15.2756 10.7548 14.6116 8.89704 14.0868 6.99572C14.0852 6.98994 14.0836 6.98417 14.082 6.97839C18.7207 4.70206 23.7741 3.45616 28.9128 3.32195C31.3006 3.33872 33.6809 3.59906 36.0186 4.09915L36.5164 4.21065L36.6951 4.25328L36.8131 4.27951C37.0078 4.3287 37.2056 4.37461 37.4002 4.42708C37.9299 4.56481 38.4617 4.71457 38.9956 4.87635C39.7949 7.74984 39.7642 10.8002 38.907 13.656C38.0499 16.5119 36.4034 19.05 34.168 20.9614C33.8489 21.2238 33.5298 21.4796 33.2107 21.7189C31.8293 22.7186 30.293 23.4704 28.6671 23.9423C28.2267 24.0702 27.7832 24.1784 27.3301 24.2703C26.877 24.3621 26.4048 24.4211 25.9326 24.467L26.3474 24.8704L27.2887 24.713C27.5902 24.6605 27.8894 24.599 28.1857 24.5285C31.8115 23.6665 35.0197 21.473 37.1953 18.3435C39.5487 14.9582 40.5022 10.753 39.8475 6.64718C39.8325 6.55965 39.8155 6.4701 39.7996 6.38647C39.7953 6.36356 39.791 6.3411 39.7869 6.31925V5.77816L39.771 5.71258V5.5191C39.7319 5.36416 39.6977 5.2293 39.662 5.09696C39.6568 5.07804 39.6517 5.05918 39.6465 5.04032L40.2847 5.24691C40.7314 5.39776 41.1494 5.55189 41.561 5.71258C42.6076 6.11265 43.5361 6.52257 44.3051 6.89969C42.0149 15.1278 37.0539 22.3026 30.2465 27.2315L29.6913 27.6316C29.4679 27.7857 29.2446 27.9398 29.0181 28.0907C28.9949 28.075 28.9718 28.0593 28.9487 28.0436C26.2426 26.2029 23.7864 24.0006 21.6449 21.4944C21.6425 21.4917 21.6402 21.4889 21.6378 21.4861L19.7233 22.424C22.3209 25.3265 25.3065 27.8351 28.5905 29.8746C37.8023 24.0309 42.8564 16.8328 45.6292 6.11921C39.9847 3.22685 34.9688 1.68885 28.5841 1.68885ZM22.8024 20.9352L23.1215 20.7778L22.5791 21.0401L22.8024 20.9352ZM26.9919 8.47377C26.7111 9.14931 26.4271 9.82485 26.1527 10.5037L26.8547 10.3036C26.0038 12.4286 25.1689 14.5624 24.3499 16.7049C24.0117 17.5772 23.6799 18.4462 23.348 19.3283C24.4414 18.7818 25.5337 18.2494 26.625 17.7313C27.1206 16.3234 27.6216 14.9187 28.1278 13.5174C28.5937 14.4749 29.0542 15.4336 29.5094 16.3933C30.2178 16.0654 30.9229 15.7375 31.6313 15.4325C31.2059 14.4268 30.7698 13.419 30.3231 12.409C31.108 11.1869 31.8983 9.96914 32.6938 8.75579L33.3671 8.5951C33.5362 8.06713 33.7053 7.54244 33.8712 7.01447C33.2203 7.1369 32.5715 7.2626 31.9248 7.39159C30.8613 8.80388 29.82 10.2249 28.8011 11.6547C29.2818 10.343 29.7679 9.03125 30.2593 7.71952C29.168 7.96219 28.0768 8.20814 26.9919 8.47377ZM37.8565 8.37539C38.0288 7.68673 38.1947 6.99479 38.3638 6.30613C37.6268 6.41763 36.8865 6.53569 36.1494 6.6603C35.5661 6.72666 35.0201 6.98821 34.5955 7.40471C34.2621 7.80352 34.02 8.27421 33.8872 8.78202L32.48 13.3075C32.2982 13.901 31.9982 14.9865 32.9267 14.9078C33.2424 14.8357 33.5487 14.7256 33.8393 14.5799C34.7795 14.171 35.7229 13.7655 36.6695 13.3632C36.9099 12.4144 37.1481 11.4667 37.3843 10.5201C36.8908 10.6775 36.3951 10.8392 35.8974 11.0054C35.7793 11.4317 35.6644 11.8613 35.5496 12.2876C35.2018 12.4155 34.8604 12.5467 34.5158 12.6779C34.9412 11.1475 35.3762 9.61715 35.8208 8.08681L36.7365 7.88677C36.6631 8.15567 36.593 8.42458 36.5196 8.6902L37.8565 8.37539ZM22.1387 18.456C22.5166 17.7626 22.844 17.0413 23.1183 16.2982C23.7437 14.7176 24.3819 13.1413 25.0328 11.5694C25.2753 10.9792 25.6996 10.2348 25.5624 9.60185C25.2912 8.73939 23.8713 9.27392 23.2523 9.42477C22.4142 9.64339 21.575 9.86966 20.7348 10.1036C19.2958 10.5069 18.0131 11.1399 16.9856 12.3073C16.4221 13.0061 15.9501 13.7779 15.5817 14.6028C14.433 17.0077 13.3311 19.4311 12.2761 21.8731C11.9985 22.5093 11.1529 24.0604 12.0559 24.4605C13.0514 24.7261 14.2894 23.8669 15.1733 23.4078C16.1305 22.9061 17.0877 22.424 18.045 21.9223C19.6787 21.0926 21.1592 20.0793 22.1387 18.456ZM16.6378 20.1711C17.7376 17.5542 18.881 14.9548 20.0679 12.3729C20.7316 12.1597 21.3985 11.9433 22.0717 11.717C20.9805 14.1743 19.9318 16.6404 18.9256 19.1152C18.1535 19.4628 17.3973 19.8137 16.6378 20.1711Z" fill="#F0F0F0"/>
<path fill-rule="evenodd" clip-rule="evenodd" d="M56.3438 7.39159C56.3295 7.39046 56.3151 7.38934 56.3007 7.38823C55.5214 7.50536 54.739 7.62636 53.9536 7.75122C54.7533 7.62692 55.55 7.50705 56.3438 7.39159ZM46.034 9.10883C46.0218 9.11112 46.0095 9.11342 45.9972 9.11571L46.0696 8.8804C46.0454 8.95907 46.021 9.03755 45.9965 9.11586C46.009 9.11352 46.0215 9.11117 46.034 9.10883ZM13.0706 17.3968C8.86299 18.7326 4.7788 20.1394 0.817986 21.6173C4.77242 20.146 8.85661 18.7391 13.0706 17.3968ZM27.6866 17.9978C27.6049 17.8453 27.5243 17.6946 27.4227 17.4755L27.1036 18.3708L25.6933 19.5251L25.1413 19.7874L25.1668 19.9973C26.2645 19.9898 27.3585 19.8645 28.4309 19.6235C28.4309 19.1971 28.4309 18.7479 28.4054 18.2888L27.9396 18.4954C27.8419 18.2882 27.7638 18.1421 27.6866 17.9978ZM31.242 16.8164L30.9676 17.1115L29.2095 17.9051C29.2286 18.4232 29.2414 18.9217 29.2414 19.4005C30.3071 19.125 31.2452 18.8364 32.0812 18.5347C32.1518 17.8792 32.2756 17.2309 32.4513 16.5966C32.1875 16.6951 31.9165 16.7719 31.6409 16.8262C31.5081 16.8414 31.3739 16.8381 31.242 16.8164ZM25.7762 8.96566L26.6441 8.0245L27.3269 7.86709C27.1253 6.51339 26.9205 5.27483 26.7464 4.29669C26.7442 4.28436 26.742 4.27208 26.7398 4.25984C23.7645 4.70373 20.8538 5.52319 18.0737 6.69965L18.0873 6.72919L18.163 6.89313C18.6574 7.92193 19.2303 8.90882 19.8765 9.84452C20.1232 9.75926 20.3721 9.68056 20.6231 9.60841C21.474 9.37667 22.3174 9.1504 23.1534 8.92959C23.2165 8.91258 23.2826 8.89422 23.3511 8.87519C24.128 8.6593 25.2162 8.35692 25.7762 8.96566ZM32.0493 19.4595C31.2101 19.7513 30.2784 20.0268 29.2318 20.2957C29.2318 20.6597 29.2318 22.7618 28.6543 23.9587C30.2802 23.4868 31.8165 22.735 33.198 21.7353C32.4641 21.3713 32.0812 20.4269 32.0493 19.4431V19.4595ZM31.0506 7.05382L30.7315 7.89333L30.6996 7.97859L31.6568 6.92921C32.6364 6.73245 33.6128 6.5488 34.5923 6.36844L34.4296 6.87346C34.9092 6.47759 35.4853 6.22464 36.0952 6.14217H36.1781C36.3294 5.50608 36.4423 4.86102 36.5164 4.21065L36.0186 4.09915C35.9132 4.08751 35.8078 4.07633 35.7024 4.06563C34.48 3.94152 33.2522 3.88047 32.0238 3.88272C30.5308 3.88191 29.0391 3.9728 27.5567 4.1549C27.5583 4.16425 27.56 4.17362 27.5617 4.18302C27.736 5.16165 27.9351 6.35823 28.1342 7.68673C29.1042 7.46701 30.0678 7.25714 31.0506 7.05382ZM22.8024 20.9352C23.147 21.3724 23.5012 21.8097 23.865 22.2469C24.2016 21.8646 24.3851 21.3655 24.3787 20.8499C23.9894 20.8499 23.5682 20.8171 23.1279 20.7778L22.8024 20.9352ZM17.3302 7.03742C16.9442 7.20795 16.5613 7.38831 16.1816 7.57195C16.183 7.577 16.1844 7.58206 16.1858 7.58711C16.5294 8.83124 16.9332 10.0461 17.3877 11.2317H17.4068L17.5536 11.0972L17.5887 11.071C17.7163 10.9693 17.8472 10.8775 17.9812 10.7857H18.0067L18.1854 10.6709L18.2141 10.6512C18.3513 10.566 18.4917 10.4873 18.6321 10.4118H18.6608L18.8427 10.3167L18.881 10.2971L19.0916 10.1954C18.4621 9.28022 17.9041 8.31528 17.4228 7.30961L17.3357 7.05355L17.3302 7.03742ZM24.4138 22.847C24.5956 23.0536 24.7807 23.2537 24.969 23.457L25.0296 23.5226C25.2987 23.82 25.573 24.0958 25.8502 24.3745L25.9358 24.4605C26.408 24.4145 26.893 24.349 27.3333 24.2637C27.4458 24.1608 27.5523 24.0513 27.6524 23.9358C27.661 23.9182 27.6729 23.9026 27.6875 23.8899C28.1534 23.4012 28.3831 22.1551 28.4405 20.4662C27.3772 20.6962 26.2948 20.8203 25.2083 20.8368C25.2189 21.2117 25.1522 21.5846 25.0125 21.9311C24.8728 22.2776 24.6633 22.5898 24.3978 22.847H24.4138ZM37.4002 4.42708C37.3585 4.94363 37.2871 5.45719 37.1864 5.96508C37.7959 5.8667 38.4053 5.77488 39.0147 5.68306L38.2585 8.78202L37.0428 10.0937L38.0767 9.76582L38.0309 9.95321C37.7212 11.2204 37.4156 12.4705 37.0811 13.7207L35.7602 15.1472C35.5051 15.2557 35.1732 15.4098 34.8033 15.5817C34.368 15.7839 33.88 16.0106 33.4022 16.2162C33.192 16.8679 33.0278 17.5342 32.9108 18.2101C35.9357 16.9606 37.4864 15.3702 39.1679 12.6352C39.747 10.0704 39.6844 7.39652 38.986 4.86323C38.4606 4.71238 37.932 4.567 37.4002 4.42708ZM32.8278 19.1545C32.8087 21.0729 33.9701 20.9909 34.1584 20.9614C35.933 19.4439 37.3445 17.5275 38.2841 15.3603C36.8769 17.059 35.2815 18.2035 32.8278 19.1545Z" fill="#F0F0F0"/>
<path fill-rule="evenodd" clip-rule="evenodd" d="M44.8451 12.3825C44.8726 12.3137 44.9 12.2449 44.9273 12.1761C48.688 11.309 52.5026 10.7107 56.3438 10.3856C56.3249 10.3916 56.3059 10.3976 56.2869 10.4036C52.4649 10.7297 48.6694 11.3264 44.9273 12.1892C44.8092 12.4877 44.6879 12.7861 44.5667 13.0779C44.6607 12.848 44.7535 12.6162 44.8451 12.3825C44.8451 12.3825 44.8451 12.3825 44.8451 12.3825ZM44.4301 13.3952C44.4589 13.3272 44.4877 13.2588 44.5156 13.1894C44.5348 13.1501 44.5507 13.1074 44.5667 13.0648C44.66 12.8403 44.7533 12.6118 44.8451 12.3825M43.8669 14.6631C43.8668 14.6632 43.8669 14.6631 43.8669 14.6631ZM39.487 5.04031L39.662 5.09696C39.6977 5.2293 39.7319 5.36416 39.771 5.5191V5.71258L39.7869 5.77816V6.31925L39.7996 6.38647C39.8155 6.4701 39.8325 6.55965 39.8475 6.64718C40.5022 10.753 39.5487 14.9582 37.1953 18.3435C35.0197 21.473 31.8115 23.6665 28.1857 24.5285C31.7822 23.6333 34.9534 21.4258 37.0975 18.3001C39.4183 14.917 40.3489 10.7305 39.688 6.64718L39.6753 6.57997C39.6594 6.49633 39.6424 6.40678 39.6274 6.31925V5.77816L39.6114 5.71258V5.5191L39.5969 5.46146C39.5583 5.30818 39.5239 5.17165 39.487 5.04031Z" fill="#F0F0F0"/>
<path fill-rule="evenodd" clip-rule="evenodd" d="M21.6449 21.4944L21.6282 21.5025C23.7404 24.0234 26.1684 26.2454 28.8489 28.1103C28.8823 28.0882 28.9155 28.0659 28.9487 28.0436C26.2426 26.2029 23.7864 24.0006 21.6449 21.4944ZM32.0238 3.88272C33.2522 3.88047 34.48 3.94152 35.7024 4.06563C35.8058 4.08726 35.909 4.10937 36.0122 4.13194C34.6855 3.98422 33.3519 3.91088 32.0174 3.91223C30.5282 3.91143 29.0404 4.00185 27.5617 4.18302L27.5567 4.1549C29.0391 3.9728 30.5308 3.88191 32.0238 3.88272ZM26.7398 4.25984L26.7464 4.29669L26.7303 4.29919C23.7632 4.74184 20.8604 5.55798 18.0873 6.72919L18.0737 6.69965C20.8538 5.52319 23.7645 4.70373 26.7398 4.25984ZM17.3302 7.03742L17.3357 7.05355L17.3047 7.06694C16.9287 7.23301 16.5557 7.40842 16.1858 7.58711L16.1816 7.57195C16.5613 7.38831 16.9442 7.20795 17.3302 7.03742ZM16.0672 12.5596L16.0731 12.5729C15.2732 10.7691 14.6076 8.90543 14.082 6.99807L14.0868 6.99572C14.6116 8.89704 15.2756 10.7548 16.0731 12.5532L16.0672 12.5596Z" fill="#F0F0F0"/>
</g>
<defs>
<clipPath id="clip0_288_735">
<rect width="57" height="34" fill="white"/>
</clipPath>
</defs>
</svg>
